<svg width="188" height="124" viewBox="0 0 188 124" fill="none" xmlns="http://www.w3.org/2000/svg">
<g clip-path="url(#clip0_257_63835)">
<path d="M67.4353 71.3636C73.8781 60.1152 86.1679 51.4783 99.1776 52.3103C89.5812 62.6675 83.9854 76.0597 83.3801 90.1175C83.1665 95.5398 83.4978 101.593 79.8703 105.653C77.6132 108.179 74.1631 109.403 70.771 109.66C67.3787 109.916 63.9872 109.308 60.6403 108.702L59.8284 108.95C59.5193 96.0144 60.9925 82.612 67.4353 71.3636Z" fill="#F0F0F0"/>
<path d="M99.1972 52.5812C89.5766 57.1777 81.3734 64.8544 76.3376 74.2167C75.2489 76.2408 74.322 78.3882 73.9177 80.6586C73.5131 82.93 73.7957 85.0922 74.5774 87.2496C75.292 89.2219 76.2532 91.1572 76.4723 93.2675C76.7033 95.492 75.8786 97.5718 74.3942 99.2225C72.578 101.242 70.1388 102.494 67.7107 103.635C65.0148 104.903 62.1943 106.177 60.2848 108.543C60.0535 108.829 59.6189 108.456 59.8499 108.17C63.1721 104.054 68.8588 103.281 72.8023 99.965C74.6424 98.4178 76.0238 96.311 75.9367 93.8423C75.8604 91.6836 74.871 89.6871 74.1301 87.6963C73.352 85.606 72.964 83.5042 73.243 81.2756C73.5284 78.9958 74.3727 76.808 75.4045 74.7651C77.7315 70.158 80.916 65.9283 84.5641 62.272C88.7567 58.0691 93.6429 54.6091 99.0111 52.0416C99.3434 51.8828 99.5273 52.4235 99.1972 52.5812Z" fill="white"/>
<path d="M77.8134 71.087C76.3386 70.0167 75.2951 68.4609 74.8693 66.6975C74.4435 64.9341 74.6632 63.0779 75.4891 61.4604C75.6573 61.1337 76.1767 61.3778 76.0083 61.705C75.2364 63.2098 75.032 64.9389 75.4319 66.5801C75.8317 68.2214 76.8096 69.6668 78.1889 70.6553C78.4884 70.8705 78.1112 71.301 77.8134 71.087Z" fill="white"/>
<path d="M74.0822 86.296C77.7779 85.7601 81.1342 83.8614 83.482 80.9785C83.7144 80.6927 84.1491 81.0656 83.917 81.3511C81.4682 84.3466 77.9713 86.3154 74.1243 86.8648C73.7576 86.9169 73.7175 86.3478 74.0822 86.296Z" fill="white"/>
<path d="M89.0406 58.7711C89.5243 59.3032 90.1336 59.7078 90.8138 59.9485C91.494 60.1892 92.2237 60.2584 92.9375 60.15C93.3034 60.0933 93.3431 60.6624 92.9796 60.7187C92.1904 60.8349 91.3846 60.7574 90.6325 60.4932C89.8804 60.2289 89.2049 59.7859 88.6652 59.2028C88.6096 59.152 88.5757 59.0822 88.5701 59.0075C88.5646 58.9328 88.5879 58.8589 88.6354 58.8006C88.6854 58.7437 88.756 58.7087 88.8319 58.7032C88.9078 58.6976 88.9828 58.722 89.0406 58.7711Z" fill="white"/>
<path d="M125.064 87.7942C124.836 87.836 124.609 87.8779 124.379 87.9241C121.325 88.5024 118.322 89.3262 115.402 90.3871C115.175 90.4655 114.946 90.5485 114.721 90.6332C107.713 93.2637 101.257 97.1627 95.683 102.132C93.4666 104.111 91.4052 106.255 89.5166 108.545C86.9086 111.708 84.3343 115.343 80.9263 117.405C80.5732 117.624 80.2067 117.821 79.829 117.995L60.1961 109.913C60.1608 109.872 60.1234 109.836 60.0878 109.795L59.2891 109.508C59.3782 109.383 59.4733 109.256 59.5624 109.131C59.6137 109.058 59.6695 108.987 59.7209 108.915C59.7565 108.867 59.7924 108.819 59.8218 108.774C59.8336 108.758 59.8456 108.742 59.8555 108.73C59.8849 108.685 59.9171 108.646 59.9446 108.606C60.4743 107.891 61.0099 107.179 61.5515 106.469C61.5533 106.465 61.5533 106.465 61.5596 106.462C65.7002 101.065 70.3312 95.9629 75.5952 91.721C75.7536 91.5934 75.9137 91.4613 76.0811 91.3374C78.4645 89.4384 81.0004 87.736 83.6633 86.247C85.1241 85.4364 86.6253 84.6996 88.1611 84.0396C92.1328 82.3419 96.3488 81.2747 100.655 80.8772C109.238 80.0862 117.981 82.0285 124.565 87.3804C124.733 87.5174 124.897 87.6527 125.064 87.7942Z" fill="#F0F0F0"/>
<path d="M124.916 88.024C114.446 85.9454 103.239 87.173 93.5389 91.6392C91.4417 92.6048 89.399 93.7655 87.6988 95.3367C85.9979 96.9086 84.9119 98.8038 84.2273 100.993C83.6014 102.995 83.1948 105.115 82.0896 106.931C80.9246 108.845 79.0045 110.013 76.8179 110.444C74.1426 110.971 71.4358 110.513 68.8046 109.973C65.8831 109.375 62.8581 108.707 59.8984 109.454C59.5398 109.545 59.4191 108.987 59.7772 108.897C64.9266 107.596 69.9365 110.376 75.0965 110.085C77.5042 109.949 79.8853 109.093 81.3132 107.07C82.5619 105.3 82.9831 103.115 83.5991 101.083C84.246 98.9489 85.2112 97.0389 86.7859 95.4262C88.3968 93.7765 90.3981 92.5341 92.4612 91.5195C97.1139 89.2315 102.222 87.7572 107.353 87.0177C113.25 86.1672 119.251 86.3243 125.094 87.482C125.456 87.5538 125.275 88.0954 124.916 88.024Z" fill="white"/>
<path d="M96.6152 90.022C96.0869 88.2862 96.1975 86.4204 96.9272 84.758C97.657 83.0956 98.9584 81.7448 100.599 80.9468C100.932 80.7865 101.198 81.2918 100.865 81.4523C99.3361 82.1926 98.124 83.451 97.4476 85.0004C96.7713 86.5498 96.6752 88.2882 97.1768 89.9017C97.2854 90.2525 96.7231 90.3708 96.6152 90.022Z" fill="white"/>
<path d="M84.4101 99.9364C87.686 101.717 91.5177 102.206 95.1411 101.307C95.5 101.218 95.6208 101.776 95.2623 101.865C91.4899 102.793 87.5036 102.276 84.0987 100.416C83.7743 100.238 84.0875 99.7599 84.4101 99.9364Z" fill="white"/>
<path d="M113.051 86.8968C113.114 87.6107 113.355 88.2978 113.752 88.8965C114.149 89.4951 114.69 89.9864 115.326 90.3264C115.652 90.4997 115.339 90.9778 115.014 90.8056C114.314 90.4268 113.717 89.8834 113.277 89.223C112.837 88.5626 112.566 87.8053 112.489 87.0171C112.476 86.9435 112.491 86.8674 112.532 86.8045C112.573 86.7415 112.636 86.6964 112.709 86.6783C112.784 86.6627 112.861 86.6769 112.925 86.7179C112.989 86.7588 113.034 86.8231 113.051 86.8968Z" fill="white"/>
<path d="M87.664 101.129C84.9145 87.9348 81.4775 83.5357 81.4775 83.5357L80.1645 82.5252L78.5856 81.3079L78.5932 81.1514L78.2187 81.025L78.1307 80.9572L77.9865 80.8474L77.9634 80.8721L77.9144 80.9224L70.7693 78.5119L61.7046 75.456L57.5071 70.0411C56.8234 69.1592 55.9433 68.4464 54.9357 67.9586C53.928 67.4708 52.8202 67.2212 51.6992 67.2294L38.2936 67.3279C36.481 67.3412 34.7389 68.027 33.41 69.2504L24.5987 77.3621L10.869 83.87L10.8458 83.847L10.7017 83.9493L8.58029 84.956L8.66783 85.4082L7.35484 86.3485C7.35484 86.3485 3.91792 90.4418 1.16837 102.719C0.468919 105.843 0.124622 112.544 0.000349232 120.802C-0.00589297 121.22 0.0716011 121.635 0.228323 122.022C0.385046 122.41 0.617871 122.763 0.913261 123.061C1.20865 123.358 1.56071 123.595 1.94897 123.756C2.33724 123.918 2.75395 124.001 3.17489 124.001H76.5079L85.6608 124.001C86.0814 124.001 86.4978 123.918 86.8858 123.756C87.2739 123.595 87.6257 123.359 87.9211 123.062C88.2164 122.764 88.4493 122.412 88.6063 122.025C88.7632 121.637 88.8411 121.223 88.8354 120.805C88.714 111.82 88.3698 104.517 87.664 101.129Z" fill="#3F3D56"/>
<path d="M97.073 11.5068C94.2199 11.5068 91.4837 12.6317 89.4662 14.634C87.4488 16.6362 86.3154 19.3519 86.3154 22.1835C86.3154 25.0152 87.4488 27.7308 89.4662 29.7331C91.4837 31.7354 94.2199 32.8602 97.073 32.8602H177.242C180.096 32.8602 182.832 31.7354 184.849 29.7331C186.867 27.7308 188 25.0152 188 22.1835C188 19.3519 186.867 16.6362 184.849 14.634C182.832 12.6317 180.096 11.5068 177.242 11.5068H97.073Z" fill="#E5E5E5"/>
<path d="M97.0736 13.6672C94.7979 13.6672 92.6155 14.5644 91.0063 16.1615C89.3972 17.7585 88.4932 19.9246 88.4932 22.1832C88.4932 24.4418 89.3972 26.6078 91.0063 28.2049C92.6155 29.8019 94.7979 30.6991 97.0736 30.6991H177.243C179.519 30.6991 181.701 29.8019 183.31 28.2049C184.919 26.6078 185.824 24.4418 185.824 22.1832C185.824 19.9246 184.919 17.7585 183.31 16.1615C181.701 14.5644 179.519 13.6672 177.243 13.6672H97.0736Z" fill="white"/>
<path d="M47.1017 62.2299C56.8013 62.2299 64.6643 54.426 64.6643 44.7993C64.6643 35.1726 56.8013 27.3687 47.1017 27.3687C37.4021 27.3687 29.5391 35.1726 29.5391 44.7993C29.5391 54.426 37.4021 62.2299 47.1017 62.2299Z" fill="#9E616A"/>
<path d="M42.6088 61.3772C42.5339 61.2132 42.4592 61.0487 42.3848 60.8835C42.4135 60.8845 42.4419 60.8886 42.4706 60.8893L42.6088 61.3772Z" fill="#2F2E41"/>
<path d="M29.0502 28.1619C29.9385 27.4587 30.9767 26.8116 32.1124 26.848C33.248 26.8843 34.3997 27.9023 34.1644 29.0056C36.2504 25.3399 39.5707 22.5206 43.5425 21.0424C47.5142 19.5643 51.8837 19.5219 55.8838 20.9226C58.7065 21.9109 61.4745 23.8883 62.1229 26.7884C62.2893 27.5328 62.3251 28.3491 62.7934 28.9536C63.3839 29.7158 64.5138 29.8883 65.4441 29.6201C65.4534 29.6174 65.4627 29.6147 65.472 29.612C65.6291 29.5587 65.7988 29.5535 65.959 29.597C66.1192 29.6404 66.2625 29.7306 66.3705 29.8558C66.4785 29.981 66.5462 30.1355 66.5647 30.2993C66.5833 30.4631 66.5519 30.6287 66.4746 30.7746L65.676 32.2529C66.6827 32.4756 67.7288 32.4535 68.7251 32.1885C68.8906 32.1454 69.0655 32.1542 69.2258 32.2137C69.386 32.2732 69.5239 32.3804 69.6203 32.5206C69.7167 32.6609 69.7671 32.8274 69.7644 32.9972C69.7618 33.167 69.7063 33.3318 69.6055 33.469C66.9721 37.0575 62.5724 39.3747 58.0826 39.3475C54.8916 39.3281 51.6677 38.2366 48.562 38.9649C47.3606 39.2467 46.238 39.7918 45.2765 40.5604C44.315 41.3289 43.5391 42.3013 43.0057 43.4063C42.4723 44.5112 42.1949 45.7207 42.1938 46.9459C42.1928 48.1712 42.4682 49.3811 42.9998 50.487C42.0457 49.4513 40.2014 49.6965 39.2255 50.7119C38.2496 51.7274 37.9969 53.2431 38.0953 54.643C38.2456 56.7842 39.0909 58.8017 39.982 60.7653C32.511 60.5319 25.4447 55.3306 23.0662 48.2956C20.6777 41.2311 23.181 32.8088 29.0502 28.1619Z" fill="#2F2E41"/>
<path opacity="0.2" d="M17.2861 97.1453L22.2121 123.745L25.1677 124L17.2861 97.1453Z" fill="black"/>
<path opacity="0.2" d="M71.5457 95.1384L66.6197 123.725L63.6641 123.999L71.5457 95.1384Z" fill="black"/>
<path d="M33.2524 19.2096C32.308 19.601 31.3224 19.172 30.9091 18.1897C30.4895 17.1923 30.8814 16.1798 31.841 15.7821C32.8008 15.3844 33.7687 15.8144 34.1951 16.8279C34.6151 17.8262 34.2275 18.8055 33.2524 19.2096ZM31.4432 13.8189L30.6923 14.1302C30.5047 14.207 30.2948 14.2111 30.1043 14.1418C29.9138 14.0724 29.7564 13.9346 29.6633 13.7556L29.6262 13.6835C28.8182 12.2372 28.7256 10.4794 29.3527 8.46175C29.9335 6.6518 30.1748 5.37886 29.6896 4.22565C29.1286 2.89232 27.9308 2.47466 26.4032 3.0797C25.8107 3.32522 25.6222 3.32131 25.156 3.78035C25.0546 3.88141 24.9337 3.96118 24.8005 4.01487C24.6674 4.06857 24.5247 4.09511 24.381 4.09291C24.2421 4.09128 24.1049 4.06191 23.9777 4.00654C23.8504 3.95117 23.7357 3.87094 23.6404 3.77063C23.4568 3.57731 23.3539 3.32204 23.3526 3.05636C23.3512 2.79068 23.4515 2.53438 23.6331 2.33924C24.4168 1.52506 25.362 0.880939 26.4091 0.447525C29.6912 -0.912651 31.3434 1.09545 32.0995 2.89252C32.839 4.65025 32.423 6.28114 31.7546 8.3933C31.1944 10.1484 31.2271 11.4489 31.8634 12.7419C31.9093 12.8397 31.9348 12.9457 31.9385 13.0535C31.9421 13.1613 31.9238 13.2687 31.8845 13.3693C31.8453 13.4699 31.786 13.5616 31.7102 13.6388C31.6343 13.7161 31.5435 13.7774 31.4432 13.8189Z" fill="#6C63FF"/>
<path d="M114.782 27.2765H98.8312C98.7805 27.2768 98.7302 27.2672 98.6833 27.2482C98.6364 27.2292 98.5937 27.2012 98.5578 27.1657C98.5218 27.1303 98.4933 27.0881 98.4738 27.0417C98.4544 26.9952 98.4443 26.9454 98.4443 26.8951C98.4443 26.8448 98.4544 26.795 98.4738 26.7485C98.4933 26.7021 98.5218 26.6599 98.5578 26.6245C98.5937 26.589 98.6364 26.561 98.6833 26.542C98.7302 26.523 98.7805 26.5133 98.8312 26.5137H114.782C114.883 26.5144 114.98 26.5548 115.052 26.6263C115.123 26.6978 115.163 26.7944 115.163 26.8951C115.163 26.9958 115.123 27.0924 115.052 27.1639C114.98 27.2353 114.883 27.2758 114.782 27.2765Z" fill="#6C63FF"/>
<path d="M135.016 27.402H119.066C119.015 27.4023 118.965 27.3927 118.918 27.3737C118.871 27.3547 118.828 27.3266 118.792 27.2912C118.756 27.2557 118.728 27.2136 118.708 27.1671C118.689 27.1207 118.679 27.0709 118.679 27.0206C118.679 26.9703 118.689 26.9205 118.708 26.874C118.728 26.8276 118.756 26.7854 118.792 26.75C118.828 26.7145 118.871 26.6865 118.918 26.6675C118.965 26.6484 119.015 26.6388 119.066 26.6392H135.016C135.067 26.6388 135.117 26.6484 135.164 26.6675C135.211 26.6865 135.254 26.7145 135.29 26.75C135.326 26.7854 135.354 26.8276 135.374 26.874C135.393 26.9205 135.403 26.9703 135.403 27.0206C135.403 27.0709 135.393 27.1207 135.374 27.1671C135.354 27.2136 135.326 27.2557 135.29 27.2912C135.254 27.3266 135.211 27.3547 135.164 27.3737C135.117 27.3927 135.067 27.4023 135.016 27.402Z" fill="#6C63FF"/>
<path d="M155.25 27.5304H139.3C139.198 27.5297 139.101 27.4892 139.03 27.4178C138.958 27.3463 138.918 27.2497 138.918 27.149C138.918 27.0483 138.958 26.9517 139.03 26.8802C139.101 26.8088 139.198 26.7683 139.3 26.7676H155.25C155.301 26.7672 155.351 26.7769 155.398 26.7959C155.445 26.8149 155.488 26.8429 155.524 26.8784C155.56 26.9138 155.588 26.956 155.608 27.0024C155.627 27.0489 155.637 27.0987 155.637 27.149C155.637 27.1993 155.627 27.2491 155.608 27.2956C155.588 27.342 155.56 27.3842 155.524 27.4196C155.488 27.4551 155.445 27.4831 155.398 27.5021C155.351 27.5211 155.301 27.5307 155.25 27.5304Z" fill="#6C63FF"/>
<path d="M175.485 27.6573H159.534C159.432 27.6567 159.335 27.6162 159.264 27.5447C159.192 27.4733 159.152 27.3766 159.152 27.2759C159.152 27.1752 159.192 27.0786 159.264 27.0072C159.335 26.9357 159.432 26.8952 159.534 26.8945H175.485C175.586 26.8952 175.683 26.9357 175.755 27.0072C175.826 27.0786 175.866 27.1752 175.866 27.2759C175.866 27.3766 175.826 27.4733 175.755 27.5447C175.683 27.6162 175.586 27.6567 175.485 27.6573Z" fill="#6C63FF"/>
<path d="M106.77 23.7666C108.408 23.7666 109.735 22.4493 109.735 20.8244C109.735 19.1994 108.408 17.8821 106.77 17.8821C105.133 17.8821 103.806 19.1994 103.806 20.8244C103.806 22.4493 105.133 23.7666 106.77 23.7666Z" fill="#6C63FF"/>
<path d="M127.128 23.7666C128.765 23.7666 130.092 22.4493 130.092 20.8244C130.092 19.1994 128.765 17.8821 127.128 17.8821C125.49 17.8821 124.163 19.1994 124.163 20.8244C124.163 22.4493 125.49 23.7666 127.128 23.7666Z" fill="#6C63FF"/>
<path d="M147.484 23.7666C149.121 23.7666 150.449 22.4493 150.449 20.8244C150.449 19.1994 149.121 17.8821 147.484 17.8821C145.847 17.8821 144.52 19.1994 144.52 20.8244C144.52 22.4493 145.847 23.7666 147.484 23.7666Z" fill="#6C63FF"/>
<path d="M167.842 23.7666C169.479 23.7666 170.806 22.4493 170.806 20.8244C170.806 19.1994 169.479 17.8821 167.842 17.8821C166.204 17.8821 164.877 19.1994 164.877 20.8244C164.877 22.4493 166.204 23.7666 167.842 23.7666Z" fill="#6C63FF"/>
</g>
<defs>
<clipPath id="clip0_257_63835">
<rect width="188" height="124" fill="white"/>
</clipPath>
</defs>
</svg>
