<svg width="24" height="24" viewBox="0 0 24 24" fill="none" xmlns="http://www.w3.org/2000/svg">
<path d="M15.15 8.4C13.6021 8.39469 12.1155 9.0052 11.0182 10.0969C9.92079 11.1887 9.30265 12.672 9.3 14.22V20.1C9.3 20.3387 9.39482 20.5676 9.5636 20.7364C9.73239 20.9052 9.96131 21 10.2 21H12.3C12.7971 21 13.2 20.5971 13.2 20.1V14.22C13.1996 13.6687 13.4338 13.1432 13.8441 12.7749C14.2543 12.4067 14.8019 12.2303 15.35 12.29C16.356 12.4167 17.1079 13.2761 17.1 14.29V20.1C17.1 20.5971 17.5029 21 18 21H20.1C20.5971 21 21 20.5971 21 20.1V14.22C20.9974 12.672 20.3792 11.1887 19.2818 10.0969C18.1845 9.0052 16.6979 8.39469 15.15 8.4Z" fill="#007EBB"/>
<path d="M3 10.2C3 9.70294 3.40294 9.3 3.9 9.3H6.6C7.09706 9.3 7.5 9.70294 7.5 10.2V20.1C7.5 20.5971 7.09706 21 6.6 21H3.9C3.40294 21 3 20.5971 3 20.1V10.2Z" fill="#007EBB"/>
<path d="M7.5 5.25C7.5 6.49264 6.49264 7.5 5.25 7.5C4.00736 7.5 3 6.49264 3 5.25C3 4.00736 4.00736 3 5.25 3C6.49264 3 7.5 4.00736 7.5 5.25Z" fill="#007EBB"/>
</svg>
