<svg width="188" height="172" viewBox="0 0 188 172" fill="none" xmlns="http://www.w3.org/2000/svg">
<g clip-path="url(#clip0_460_161718)">
<path d="M186.35 65.7763C186.283 65.7763 186.217 65.7553 186.162 65.716L94.9461 0.972177C94.6685 0.776067 94.3386 0.671261 94.0009 0.671849C93.6631 0.672436 93.3336 0.778385 93.0567 0.97546L2.49784 65.7154C2.42621 65.7666 2.33756 65.7867 2.25138 65.7713C2.16521 65.7559 2.08857 65.7062 2.03833 65.6332C1.98809 65.5602 1.96836 65.4698 1.98348 65.382C1.99861 65.2942 2.04735 65.2161 2.11897 65.1649L92.6779 0.424947C93.0656 0.149084 93.5269 0.000795206 93.9998 3.18926e-06C94.4727 -0.000788827 94.9344 0.145953 95.3231 0.420515L186.539 65.1642C186.597 65.2051 186.64 65.2637 186.663 65.3315C186.685 65.3992 186.686 65.4726 186.665 65.5409C186.644 65.6091 186.602 65.6688 186.546 65.7111C186.489 65.7535 186.42 65.7763 186.35 65.7763Z" fill="#3F3D56"/>
<path d="M7.6748 68.0722L94.0928 2.79736L181.166 72.7168L98.5454 122.635L53.6893 112.215L7.6748 68.0722Z" fill="#E6E6E6"/>
<path d="M57.4739 153.467H14.7813C14.5192 153.467 14.2595 153.415 14.0172 153.313C13.7749 153.211 13.5548 153.061 13.3693 152.872C13.1838 152.683 13.0367 152.459 12.9363 152.212C12.8359 151.965 12.7842 151.701 12.7842 151.434C12.7842 151.167 12.8359 150.902 12.9363 150.655C13.0367 150.408 13.1838 150.184 13.3693 149.995C13.5548 149.807 13.7749 149.657 14.0172 149.555C14.2595 149.453 14.5192 149.401 14.7813 149.401H57.4739C57.736 149.401 57.9957 149.453 58.238 149.555C58.4803 149.657 58.7005 149.807 58.8859 149.995C59.0714 150.184 59.2186 150.408 59.319 150.655C59.4194 150.902 59.471 151.167 59.471 151.434C59.471 151.701 59.4194 151.965 59.319 152.212C59.2186 152.459 59.0714 152.683 58.8859 152.872C58.7005 153.061 58.4803 153.211 58.238 153.313C57.9957 153.415 57.736 153.467 57.4739 153.467Z" fill="#6C63FF"/>
<path d="M30.0985 144.727H14.7813C14.5192 144.728 14.2595 144.675 14.0172 144.573C13.7749 144.471 13.5548 144.322 13.3693 144.133C13.1838 143.944 13.0367 143.72 12.9363 143.473C12.8359 143.226 12.7842 142.962 12.7842 142.694C12.7842 142.427 12.8359 142.163 12.9363 141.916C13.0367 141.669 13.1838 141.445 13.3693 141.256C13.5548 141.067 13.7749 140.918 14.0172 140.816C14.2595 140.714 14.5192 140.661 14.7813 140.662H30.0985C30.3606 140.661 30.6203 140.714 30.8625 140.816C31.1048 140.918 31.325 141.067 31.5105 141.256C31.696 141.445 31.8431 141.669 31.9435 141.916C32.0439 142.163 32.0956 142.427 32.0956 142.694C32.0956 142.962 32.0439 143.226 31.9435 143.473C31.8431 143.72 31.696 143.944 31.5105 144.133C31.325 144.322 31.1048 144.471 30.8625 144.573C30.6203 144.675 30.3606 144.728 30.0985 144.727Z" fill="#6C63FF"/>
<path d="M95.3064 104.428C94.9819 104.429 94.6605 104.364 94.3601 104.239L41.0635 81.7008V11.1514C41.0642 10.5276 41.3077 9.92946 41.7405 9.48834C42.1733 9.04721 42.7601 8.79907 43.3722 8.79834H145.618C146.23 8.79907 146.817 9.04721 147.25 9.48834C147.682 9.92946 147.926 10.5276 147.927 11.1514V81.75L147.826 81.7937L96.2814 104.228C95.9727 104.36 95.6412 104.428 95.3064 104.428Z" fill="white"/>
<path d="M95.3063 104.597C94.9603 104.598 94.6175 104.529 94.2972 104.396L40.8984 81.8141V11.1525C40.8992 10.4841 41.16 9.84325 41.6238 9.37061C42.0875 8.89797 42.7163 8.6321 43.3721 8.63135H145.618C146.274 8.6321 146.902 8.89797 147.366 9.37061C147.83 9.84325 148.091 10.4841 148.091 11.1525V81.862L96.346 104.384C96.0169 104.525 95.6633 104.598 95.3063 104.597ZM41.5581 81.365L94.5487 103.774C95.043 103.979 95.5965 103.975 96.0883 103.765L147.432 81.4182V11.1525C147.431 10.6623 147.24 10.1924 146.9 9.8458C146.56 9.4992 146.099 9.30423 145.618 9.30365H43.3721C42.8912 9.30423 42.4301 9.4992 42.09 9.8458C41.75 10.1924 41.5587 10.6623 41.5581 11.1525L41.5581 81.365Z" fill="#3F3D56"/>
<path d="M185.691 65.1035H185.625L147.761 81.5816L95.9559 104.127C95.7535 104.214 95.5363 104.259 95.3167 104.26C95.0971 104.262 94.8794 104.219 94.6761 104.134L41.2281 81.5346L2.43407 65.1304L2.3748 65.1035H2.30877C1.69666 65.1042 1.1098 65.3523 0.676972 65.7935C0.24414 66.2346 0.000679191 66.8327 0 67.4566V169.646C0.000680063 170.27 0.24414 170.868 0.676972 171.31C1.1098 171.751 1.69666 171.999 2.30877 172H185.691C186.303 171.999 186.89 171.751 187.323 171.31C187.756 170.868 187.999 170.27 188 169.646V67.4566C187.999 66.8327 187.756 66.2346 187.323 65.7935C186.89 65.3523 186.303 65.1042 185.691 65.1035ZM187.34 169.646C187.34 170.092 187.166 170.52 186.857 170.835C186.548 171.15 186.129 171.327 185.691 171.327H2.30877C1.87145 171.327 1.45209 171.15 1.14286 170.835C0.833628 170.52 0.659824 170.092 0.659649 169.646V67.4566C0.660247 67.0219 0.82567 66.6043 1.12133 66.2911C1.41699 65.9779 1.82 65.7933 2.24612 65.7758L41.2281 82.2607L94.4223 104.756C94.9981 104.995 95.6433 104.991 96.2165 104.746L147.761 82.3111L185.757 65.7758C186.183 65.7945 186.585 65.9797 186.879 66.2927C187.174 66.6058 187.339 67.0226 187.34 67.4566V169.646Z" fill="#3F3D56"/>
<path d="M89.7747 86.4107C87.8072 86.4145 85.8918 85.766 84.3175 84.5632L84.2199 84.4885L63.6682 68.4516C62.7164 67.7083 61.9176 66.7813 61.3173 65.7234C60.7171 64.6655 60.3271 63.4975 60.1698 62.286C60.0124 61.0745 60.0908 59.8433 60.4003 58.6627C60.7098 57.482 61.2444 56.3751 61.9737 55.405C62.703 54.435 63.6126 53.6208 64.6506 53.0091C65.6885 52.3973 66.8346 51.9999 68.0233 51.8395C69.212 51.6791 70.42 51.7589 71.5784 52.0744C72.7368 52.3899 73.823 52.9348 74.7747 53.678L88.0866 64.0811L119.545 22.2684C120.274 21.2986 121.184 20.4848 122.222 19.8734C123.26 19.262 124.407 18.865 125.595 18.705C126.784 18.5451 127.992 18.6254 129.15 18.9413C130.309 19.2572 131.395 19.8025 132.346 20.5462L132.151 20.8168L132.351 20.5501C134.271 22.0535 135.526 24.2716 135.843 26.7176C136.16 29.1635 135.512 31.6377 134.041 33.5973L97.0389 82.7791C96.1831 83.9124 95.0827 84.8295 93.8229 85.4593C92.5631 86.0892 91.1779 86.4147 89.7747 86.4107Z" fill="#6C63FF"/>
</g>
<defs>
<clipPath id="clip0_460_161718">
<rect width="188" height="172" fill="white"/>
</clipPath>
</defs>
</svg>
