<svg width="134" height="134" viewBox="0 0 134 134" fill="none" xmlns="http://www.w3.org/2000/svg">
<path d="M1 67C1 30.5492 30.5492 1 67 1V1C103.451 1 133 30.5492 133 67V67C133 103.451 103.451 133 67 133V133C30.5492 133 1 103.451 1 67V67Z" stroke="#C4CDD5" stroke-dasharray="3.25 2.17"/>
<circle cx="67" cy="67" r="54" fill="black" fill-opacity="0.64"/>
<path fill-rule="evenodd" clip-rule="evenodd" d="M66.5775 52.6667C66.8427 52.6667 67.097 52.7721 67.2846 52.9596C67.4721 53.1472 67.5775 53.4015 67.5775 53.6667V55.3334H69.2441C69.5094 55.3334 69.7637 55.4388 69.9512 55.6263C70.1388 55.8138 70.2441 56.0682 70.2441 56.3334C70.2441 56.5986 70.1388 56.853 69.9512 57.0405C69.7637 57.228 69.5094 57.3334 69.2441 57.3334H67.5775V59.0001C67.5775 59.2653 67.4721 59.5196 67.2846 59.7072C67.097 59.8947 66.8427 60.0001 66.5775 60.0001C66.3123 60.0001 66.0579 59.8947 65.8704 59.7072C65.6828 59.5196 65.5775 59.2653 65.5775 59.0001V57.3334H63.9108C63.6456 57.3334 63.3912 57.228 63.2037 57.0405C63.0162 56.853 62.9108 56.5986 62.9108 56.3334C62.9108 56.0682 63.0162 55.8138 63.2037 55.6263C63.3912 55.4388 63.6456 55.3334 63.9108 55.3334H65.5775V53.6667C65.5775 53.4015 65.6828 53.1472 65.8704 52.9596C66.0579 52.7721 66.3123 52.6667 66.5775 52.6667Z" fill="white"/>
<path fill-rule="evenodd" clip-rule="evenodd" d="M63.6148 67.0001H69.5401C73.7015 67.0001 75.7828 67.0001 77.2775 66.0201C77.9224 65.5974 78.4778 65.0519 78.9121 64.4147C79.9108 62.9481 79.9108 60.9041 79.9108 56.8187C79.9108 52.7321 79.9108 50.6894 78.9121 49.2227C78.4779 48.5855 77.9224 48.0401 77.2775 47.6174C76.3175 46.9867 75.1148 46.7614 73.2735 46.6814C72.3948 46.6814 71.6388 46.0281 71.4668 45.1814C71.3354 44.5612 70.9938 44.0054 70.4999 43.608C70.006 43.2105 69.3901 42.9958 68.7561 43.0001H64.3988C63.0815 43.0001 61.9468 43.9134 61.6881 45.1814C61.5161 46.0281 60.7601 46.6814 59.8815 46.6814C58.0415 46.7614 56.8388 46.9881 55.8775 47.6174C55.233 48.0401 54.678 48.5856 54.2441 49.2227C53.2441 50.6894 53.2441 52.7321 53.2441 56.8187C53.2441 60.9041 53.2441 62.9467 54.2428 64.4147C54.6748 65.0494 55.2295 65.5947 55.8775 66.0201C57.3721 67.0001 59.4535 67.0001 63.6148 67.0001ZM71.9108 56.3334C71.9108 57.7479 71.3489 59.1044 70.3487 60.1046C69.3485 61.1048 67.992 61.6667 66.5775 61.6667C65.163 61.6667 63.8064 61.1048 62.8062 60.1046C61.806 59.1044 61.2441 57.7479 61.2441 56.3334C61.2441 54.9189 61.806 53.5624 62.8062 52.5622C63.8064 51.562 65.163 51.0001 66.5775 51.0001C67.992 51.0001 69.3485 51.562 70.3487 52.5622C71.3489 53.5624 71.9108 54.9189 71.9108 56.3334ZM74.5775 51.3334C74.3123 51.3334 74.0579 51.4388 73.8704 51.6263C73.6828 51.8138 73.5775 52.0682 73.5775 52.3334C73.5775 52.5986 73.6828 52.853 73.8704 53.0405C74.0579 53.228 74.3123 53.3334 74.5775 53.3334H75.9108C76.176 53.3334 76.4304 53.228 76.6179 53.0405C76.8055 52.853 76.9108 52.5986 76.9108 52.3334C76.9108 52.0682 76.8055 51.8138 76.6179 51.6263C76.4304 51.4388 76.176 51.3334 75.9108 51.3334H74.5775Z" fill="white"/>
<path d="M28.1696 83.355V88.228C28.1696 88.8073 28.3199 89.2437 28.6206 89.537C28.9286 89.8303 29.3539 89.977 29.8966 89.977C30.4466 89.977 30.8719 89.8303 31.1726 89.537C31.4806 89.2437 31.6346 88.8073 31.6346 88.228V83.355H32.8886V88.206C32.8886 88.8293 32.7529 89.3573 32.4816 89.79C32.2102 90.2227 31.8472 90.5453 31.3926 90.758C30.9379 90.9707 30.4356 91.077 29.8856 91.077C29.3356 91.077 28.8332 90.9707 28.3786 90.758C27.9312 90.5453 27.5756 90.2227 27.3116 89.79C27.0476 89.3573 26.9156 88.8293 26.9156 88.206V83.355H28.1696ZM36.2753 85.83C36.488 85.5513 36.7776 85.3167 37.1443 85.126C37.511 84.9353 37.9253 84.84 38.3873 84.84C38.9153 84.84 39.3956 84.972 39.8283 85.236C40.2683 85.4927 40.613 85.8557 40.8623 86.325C41.1116 86.7943 41.2363 87.3333 41.2363 87.942C41.2363 88.5507 41.1116 89.097 40.8623 89.581C40.613 90.0577 40.2683 90.4317 39.8283 90.703C39.3956 90.967 38.9153 91.099 38.3873 91.099C37.9253 91.099 37.5146 91.0073 37.1553 90.824C36.796 90.6333 36.5026 90.3987 36.2753 90.12V93.882H35.0213V84.939H36.2753V85.83ZM39.9603 87.942C39.9603 87.524 39.8723 87.1647 39.6963 86.864C39.5276 86.556 39.3003 86.325 39.0143 86.171C38.7356 86.0097 38.435 85.929 38.1123 85.929C37.797 85.929 37.4963 86.0097 37.2103 86.171C36.9316 86.3323 36.7043 86.567 36.5283 86.875C36.3596 87.183 36.2753 87.546 36.2753 87.964C36.2753 88.382 36.3596 88.7487 36.5283 89.064C36.7043 89.372 36.9316 89.6067 37.2103 89.768C37.4963 89.9293 37.797 90.01 38.1123 90.01C38.435 90.01 38.7356 89.9293 39.0143 89.768C39.3003 89.5993 39.5276 89.3573 39.6963 89.042C39.8723 88.7267 39.9603 88.36 39.9603 87.942ZM44.2304 82.86V91H42.9764V82.86H44.2304ZM49.0058 91.099C48.4338 91.099 47.9168 90.9707 47.4548 90.714C46.9928 90.45 46.6298 90.0833 46.3658 89.614C46.1018 89.1373 45.9698 88.5873 45.9698 87.964C45.9698 87.348 46.1054 86.8017 46.3768 86.325C46.6481 85.8483 47.0184 85.4817 47.4878 85.225C47.9571 84.9683 48.4814 84.84 49.0608 84.84C49.6401 84.84 50.1644 84.9683 50.6338 85.225C51.1031 85.4817 51.4734 85.8483 51.7448 86.325C52.0161 86.8017 52.1518 87.348 52.1518 87.964C52.1518 88.58 52.0124 89.1263 51.7338 89.603C51.4551 90.0797 51.0738 90.45 50.5898 90.714C50.1131 90.9707 49.5851 91.099 49.0058 91.099ZM49.0058 90.01C49.3284 90.01 49.6291 89.933 49.9078 89.779C50.1938 89.625 50.4248 89.394 50.6008 89.086C50.7768 88.778 50.8648 88.404 50.8648 87.964C50.8648 87.524 50.7804 87.1537 50.6118 86.853C50.4431 86.545 50.2194 86.314 49.9408 86.16C49.6621 86.006 49.3614 85.929 49.0388 85.929C48.7161 85.929 48.4154 86.006 48.1368 86.16C47.8654 86.314 47.6491 86.545 47.4878 86.853C47.3264 87.1537 47.2458 87.524 47.2458 87.964C47.2458 88.6167 47.4108 89.1227 47.7408 89.482C48.0781 89.834 48.4998 90.01 49.0058 90.01ZM53.4734 87.942C53.4734 87.3333 53.5981 86.7943 53.8474 86.325C54.1041 85.8557 54.4487 85.4927 54.8814 85.236C55.3214 84.972 55.8054 84.84 56.3334 84.84C56.8101 84.84 57.2244 84.9353 57.5764 85.126C57.9357 85.3093 58.2217 85.5403 58.4344 85.819V84.939H59.6994V91H58.4344V90.098C58.2217 90.384 57.9321 90.6223 57.5654 90.813C57.1987 91.0037 56.7807 91.099 56.3114 91.099C55.7907 91.099 55.3141 90.967 54.8814 90.703C54.4487 90.4317 54.1041 90.0577 53.8474 89.581C53.5981 89.097 53.4734 88.5507 53.4734 87.942ZM58.4344 87.964C58.4344 87.546 58.3464 87.183 58.1704 86.875C58.0017 86.567 57.7781 86.3323 57.4994 86.171C57.2207 86.0097 56.9201 85.929 56.5974 85.929C56.2747 85.929 55.9741 86.0097 55.6954 86.171C55.4167 86.325 55.1894 86.556 55.0134 86.864C54.8447 87.1647 54.7604 87.524 54.7604 87.942C54.7604 88.36 54.8447 88.7267 55.0134 89.042C55.1894 89.3573 55.4167 89.5993 55.6954 89.768C55.9814 89.9293 56.2821 90.01 56.5974 90.01C56.9201 90.01 57.2207 89.9293 57.4994 89.768C57.7781 89.6067 58.0017 89.372 58.1704 89.064C58.3464 88.7487 58.4344 88.382 58.4344 87.964ZM61.4285 87.942C61.4285 87.3333 61.5532 86.7943 61.8025 86.325C62.0592 85.8557 62.4038 85.4927 62.8365 85.236C63.2765 84.972 63.7642 84.84 64.2995 84.84C64.6955 84.84 65.0842 84.928 65.4655 85.104C65.8542 85.2727 66.1622 85.5 66.3895 85.786V82.86H67.6545V91H66.3895V90.087C66.1842 90.3803 65.8982 90.6223 65.5315 90.813C65.1722 91.0037 64.7578 91.099 64.2885 91.099C63.7605 91.099 63.2765 90.967 62.8365 90.703C62.4038 90.4317 62.0592 90.0577 61.8025 89.581C61.5532 89.097 61.4285 88.5507 61.4285 87.942ZM66.3895 87.964C66.3895 87.546 66.3015 87.183 66.1255 86.875C65.9568 86.567 65.7332 86.3323 65.4545 86.171C65.1758 86.0097 64.8752 85.929 64.5525 85.929C64.2298 85.929 63.9292 86.0097 63.6505 86.171C63.3718 86.325 63.1445 86.556 62.9685 86.864C62.7998 87.1647 62.7155 87.524 62.7155 87.942C62.7155 88.36 62.7998 88.7267 62.9685 89.042C63.1445 89.3573 63.3718 89.5993 63.6505 89.768C63.9365 89.9293 64.2372 90.01 64.5525 90.01C64.8752 90.01 65.1758 89.9293 65.4545 89.768C65.7332 89.6067 65.9568 89.372 66.1255 89.064C66.3015 88.7487 66.3895 88.382 66.3895 87.964ZM74.413 85.83C74.6257 85.5513 74.9153 85.3167 75.282 85.126C75.6487 84.9353 76.063 84.84 76.525 84.84C77.053 84.84 77.5333 84.972 77.966 85.236C78.406 85.4927 78.7507 85.8557 79 86.325C79.2493 86.7943 79.374 87.3333 79.374 87.942C79.374 88.5507 79.2493 89.097 79 89.581C78.7507 90.0577 78.406 90.4317 77.966 90.703C77.5333 90.967 77.053 91.099 76.525 91.099C76.063 91.099 75.6523 91.0073 75.293 90.824C74.9337 90.6333 74.6403 90.3987 74.413 90.12V93.882H73.159V84.939H74.413V85.83ZM78.098 87.942C78.098 87.524 78.01 87.1647 77.834 86.864C77.6653 86.556 77.438 86.325 77.152 86.171C76.8733 86.0097 76.5727 85.929 76.25 85.929C75.9347 85.929 75.634 86.0097 75.348 86.171C75.0693 86.3323 74.842 86.567 74.666 86.875C74.4973 87.183 74.413 87.546 74.413 87.964C74.413 88.382 74.4973 88.7487 74.666 89.064C74.842 89.372 75.0693 89.6067 75.348 89.768C75.634 89.9293 75.9347 90.01 76.25 90.01C76.5727 90.01 76.8733 89.9293 77.152 89.768C77.438 89.5993 77.6653 89.3573 77.834 89.042C78.01 88.7267 78.098 88.36 78.098 87.942ZM84.2491 84.84C84.7111 84.84 85.1217 84.939 85.4811 85.137C85.8477 85.335 86.1337 85.6283 86.3391 86.017C86.5517 86.4057 86.6581 86.875 86.6581 87.425V91H85.4151V87.612C85.4151 87.0693 85.2794 86.655 85.0081 86.369C84.7367 86.0757 84.3664 85.929 83.8971 85.929C83.4277 85.929 83.0537 86.0757 82.7751 86.369C82.5037 86.655 82.3681 87.0693 82.3681 87.612V91H81.1141V82.86H82.3681V85.643C82.5807 85.3863 82.8484 85.1883 83.1711 85.049C83.5011 84.9097 83.8604 84.84 84.2491 84.84ZM91.3866 91.099C90.8146 91.099 90.2976 90.9707 89.8356 90.714C89.3736 90.45 89.0106 90.0833 88.7466 89.614C88.4826 89.1373 88.3506 88.5873 88.3506 87.964C88.3506 87.348 88.4863 86.8017 88.7576 86.325C89.029 85.8483 89.3993 85.4817 89.8686 85.225C90.338 84.9683 90.8623 84.84 91.4416 84.84C92.021 84.84 92.5453 84.9683 93.0146 85.225C93.484 85.4817 93.8543 85.8483 94.1256 86.325C94.397 86.8017 94.5326 87.348 94.5326 87.964C94.5326 88.58 94.3933 89.1263 94.1146 89.603C93.836 90.0797 93.4546 90.45 92.9706 90.714C92.494 90.9707 91.966 91.099 91.3866 91.099ZM91.3866 90.01C91.7093 90.01 92.01 89.933 92.2886 89.779C92.5746 89.625 92.8056 89.394 92.9816 89.086C93.1576 88.778 93.2456 88.404 93.2456 87.964C93.2456 87.524 93.1613 87.1537 92.9926 86.853C92.824 86.545 92.6003 86.314 92.3216 86.16C92.043 86.006 91.7423 85.929 91.4196 85.929C91.097 85.929 90.7963 86.006 90.5176 86.16C90.2463 86.314 90.03 86.545 89.8686 86.853C89.7073 87.1537 89.6266 87.524 89.6266 87.964C89.6266 88.6167 89.7916 89.1227 90.1216 89.482C90.459 89.834 90.8806 90.01 91.3866 90.01ZM97.7353 85.962V89.317C97.7353 89.5443 97.7866 89.7093 97.8893 89.812C97.9993 89.9073 98.1826 89.955 98.4393 89.955H99.2093V91H98.2193C97.6546 91 97.2219 90.868 96.9213 90.604C96.6206 90.34 96.4703 89.911 96.4703 89.317V85.962H95.7553V84.939H96.4703V83.432H97.7353V84.939H99.2093V85.962H97.7353ZM103.494 91.099C102.922 91.099 102.405 90.9707 101.943 90.714C101.481 90.45 101.118 90.0833 100.854 89.614C100.59 89.1373 100.458 88.5873 100.458 87.964C100.458 87.348 100.594 86.8017 100.865 86.325C101.136 85.8483 101.507 85.4817 101.976 85.225C102.445 84.9683 102.97 84.84 103.549 84.84C104.128 84.84 104.653 84.9683 105.122 85.225C105.591 85.4817 105.962 85.8483 106.233 86.325C106.504 86.8017 106.64 87.348 106.64 87.964C106.64 88.58 106.501 89.1263 106.222 89.603C105.943 90.0797 105.562 90.45 105.078 90.714C104.601 90.9707 104.073 91.099 103.494 91.099ZM103.494 90.01C103.817 90.01 104.117 89.933 104.396 89.779C104.682 89.625 104.913 89.394 105.089 89.086C105.265 88.778 105.353 88.404 105.353 87.964C105.353 87.524 105.269 87.1537 105.1 86.853C104.931 86.545 104.708 86.314 104.429 86.16C104.15 86.006 103.85 85.929 103.527 85.929C103.204 85.929 102.904 86.006 102.625 86.16C102.354 86.314 102.137 86.545 101.976 86.853C101.815 87.1537 101.734 87.524 101.734 87.964C101.734 88.6167 101.899 89.1227 102.229 89.482C102.566 89.834 102.988 90.01 103.494 90.01Z" fill="white"/>
</svg>
