<svg width="174" height="156" viewBox="0 0 174 156" fill="none" xmlns="http://www.w3.org/2000/svg">
<g clip-path="url(#clip0_1089_6511)">
<path d="M94.9019 150.479C94.7625 150.485 94.6245 150.448 94.5065 150.371C94.3886 150.295 94.2965 150.183 94.2427 150.051C94.1888 149.92 94.1759 149.774 94.2055 149.635C94.2352 149.495 94.3061 149.368 94.4086 149.271L94.4552 149.082C94.4491 149.066 94.4429 149.051 94.4367 149.036C94.2962 148.696 94.0609 148.407 93.7602 148.204C93.4595 148.001 93.1069 147.893 92.7467 147.895C92.3864 147.896 92.0346 148.006 91.7354 148.212C91.4362 148.417 91.203 148.708 91.065 149.049C90.5135 150.408 89.8114 151.769 89.6386 153.207C89.5624 153.842 89.5945 154.486 89.7335 155.11C88.4382 152.218 87.7657 149.076 87.7614 145.895C87.7611 145.097 87.8044 144.3 87.8911 143.506C87.9628 142.856 88.0623 142.21 88.1895 141.569C88.8837 138.091 90.3742 134.832 92.5386 132.058C93.5862 131.473 94.4334 130.573 94.966 129.48C95.1589 129.087 95.2953 128.668 95.3709 128.235C95.2527 128.251 94.9253 126.409 95.0144 126.296C94.8498 126.041 94.555 125.914 94.3751 125.664C93.4806 124.423 92.2482 124.64 91.6049 126.326C90.2305 127.036 90.2172 128.213 91.0605 129.346C91.597 130.066 91.6707 131.041 92.1415 131.812C92.093 131.875 92.0427 131.937 91.9942 132C91.1089 133.165 90.3373 134.416 89.6904 135.735C89.8477 134.257 89.66 132.763 89.1426 131.374C88.6183 130.079 87.6355 128.989 86.77 127.87C85.7304 126.526 83.5986 127.112 83.4155 128.816C83.4137 128.833 83.412 128.849 83.4103 128.866C83.5388 128.94 83.6647 129.019 83.7878 129.102C83.9425 129.208 84.0623 129.359 84.1317 129.536C84.201 129.712 84.2165 129.906 84.1763 130.092C84.1361 130.278 84.0419 130.447 83.9062 130.577C83.7704 130.707 83.5994 130.792 83.4156 130.821L83.3967 130.824C83.4425 131.299 83.5235 131.768 83.6389 132.23C82.5286 136.624 84.9257 138.225 88.3483 138.296C88.4239 138.336 88.4975 138.376 88.5731 138.413C87.9232 140.298 87.5155 142.261 87.3603 144.254C87.2725 145.429 87.2777 146.61 87.3758 147.784L87.37 147.743C87.122 146.437 86.4412 145.258 85.4425 144.406C83.9591 143.159 81.8634 142.7 80.2631 141.698C80.093 141.586 79.8952 141.526 79.6931 141.526C79.491 141.525 79.293 141.584 79.1224 141.695C78.9518 141.806 78.8157 141.964 78.7303 142.152C78.6448 142.339 78.6135 142.548 78.64 142.753C78.6422 142.767 78.6444 142.782 78.6466 142.797C78.8852 142.896 79.1174 143.011 79.3421 143.14C79.4706 143.214 79.5965 143.293 79.7196 143.376C79.8742 143.482 79.9941 143.633 80.0634 143.809C80.1327 143.986 80.1483 144.18 80.1081 144.366C80.0678 144.552 79.9737 144.721 79.8379 144.851C79.7022 144.981 79.5312 145.066 79.3473 145.095L79.3285 145.098C79.3149 145.1 79.3033 145.102 79.2898 145.104C79.6974 146.1 80.2694 147.017 80.981 147.814C81.6752 151.65 84.657 152.014 87.8466 150.897H87.8485C88.1985 152.453 88.7055 153.968 89.3615 155.417H94.7664C94.7858 155.356 94.8033 155.292 94.8207 155.231C94.3204 155.263 93.8181 155.232 93.3251 155.139C93.7261 154.636 94.1272 154.128 94.5282 153.625C94.5371 153.615 94.5455 153.606 94.5534 153.595C94.7568 153.337 94.9621 153.082 95.1655 152.824L95.1656 152.824C95.1765 152.034 95.0877 151.245 94.9019 150.479Z" fill="#F2F2F2"/>
<path d="M86.8968 63.0202C80.8068 63.0202 74.8537 61.1721 69.7901 57.7098C64.7264 54.2474 60.7799 49.3262 58.4493 43.5685C56.1188 37.8108 55.509 31.4751 56.6971 25.3628C57.8852 19.2504 60.8178 13.6359 65.1241 9.2291C69.4303 4.82234 74.9168 1.82129 80.8897 0.605472C86.8626 -0.610352 93.0537 0.0136523 98.6801 2.39858C104.306 4.7835 109.115 8.82223 112.499 14.004C115.882 19.1858 117.688 25.278 117.688 31.5101C117.679 39.8642 114.432 47.8734 108.659 53.7806C102.887 59.6879 95.0603 63.0107 86.8968 63.0202ZM86.8968 0.496236C80.9028 0.496236 75.0433 2.31517 70.0595 5.72301C65.0756 9.13086 61.1911 13.9746 58.8973 19.6416C56.6035 25.3086 56.0033 31.5445 57.1727 37.5606C58.3421 43.5767 61.2285 49.1028 65.4669 53.4402C69.7053 57.7776 75.1054 60.7314 80.9843 61.928C86.8632 63.1247 92.9568 62.5105 98.4946 60.1632C104.032 57.8158 108.766 53.8407 112.096 48.7405C115.426 43.6403 117.203 37.6441 117.203 31.5101C117.194 23.2876 113.998 15.4045 108.317 9.59025C102.635 3.77603 94.9318 0.505528 86.8968 0.496236Z" fill="#F2F2F2"/>
<path d="M90.2741 42.9215H83.7279C83.4064 42.9215 83.098 42.7908 82.8707 42.5582C82.6433 42.3255 82.5156 42.01 82.5156 41.681C82.5156 41.352 82.6433 41.0364 82.8707 40.8038C83.098 40.5711 83.4064 40.4404 83.7279 40.4404H90.2741C90.5956 40.4404 90.9039 40.5711 91.1313 40.8038C91.3586 41.0364 91.4863 41.352 91.4863 41.681C91.4863 42.01 91.3586 42.3255 91.1313 42.5582C90.9039 42.7908 90.5956 42.9215 90.2741 42.9215Z" fill="#E6E6E6"/>
<path d="M91.7763 78.9282H82.2224C81.7531 78.9282 81.3031 78.7375 80.9713 78.3979C80.6395 78.0584 80.4531 77.5979 80.4531 77.1177C80.4531 76.6375 80.6395 76.177 80.9713 75.8374C81.3031 75.4979 81.7531 75.3071 82.2224 75.3071H91.7763C92.2455 75.3071 92.6955 75.4979 93.0273 75.8374C93.3591 76.177 93.5455 76.6375 93.5455 77.1177C93.5455 77.5979 93.3591 78.0584 93.0273 78.3979C92.6955 78.7375 92.2455 78.9282 91.7763 78.9282Z" fill="#6C63FF"/>
<path d="M118.934 71.3393H55.0664C54.4973 71.3387 53.9517 71.107 53.5493 70.6952C53.1469 70.2834 52.9206 69.7251 52.9199 69.1428V49.6575C52.9206 49.0751 53.1469 48.5168 53.5493 48.105C53.9517 47.6933 54.4973 47.4616 55.0664 47.4609H118.934C119.503 47.4616 120.049 47.6933 120.451 48.105C120.853 48.5168 121.08 49.0751 121.08 49.6575V69.1428C121.08 69.7251 120.853 70.2834 120.451 70.6952C120.049 71.107 119.503 71.3387 118.934 71.3393Z" fill="#E6E6E6"/>
<path d="M112.728 69.8588H56.5136C55.9446 69.8581 55.399 69.6265 54.9966 69.2147C54.5942 68.8029 54.3678 68.2446 54.3672 67.6622V51.1414C54.3678 50.559 54.5942 50.0007 54.9966 49.5889C55.399 49.1771 55.9446 48.9455 56.5136 48.9448H117.485C118.054 48.9455 118.6 49.1771 119.002 49.5889C119.405 50.0007 119.631 50.559 119.632 51.1414V62.7935C119.63 64.6667 118.902 66.4625 117.607 67.7871C116.313 69.1116 114.558 69.8567 112.728 69.8588Z" fill="white"/>
<path d="M93.3387 54.8205H67.6688C67.522 54.8205 67.3812 54.7608 67.2774 54.6546C67.1736 54.5483 67.1152 54.4042 67.1152 54.254C67.1152 54.1038 67.1736 53.9597 67.2774 53.8534C67.3812 53.7472 67.522 53.6875 67.6688 53.6875H93.3387C93.4856 53.6875 93.6264 53.7472 93.7302 53.8534C93.834 53.9597 93.8923 54.1038 93.8923 54.254C93.8923 54.4042 93.834 54.5483 93.7302 54.6546C93.6264 54.7608 93.4856 54.8205 93.3387 54.8205Z" fill="#6C63FF"/>
<path d="M106.333 57.1349H67.6688C67.522 57.1349 67.3812 57.0753 67.2774 56.969C67.1736 56.8628 67.1152 56.7187 67.1152 56.5684C67.1152 56.4182 67.1736 56.2741 67.2774 56.1679C67.3812 56.0616 67.522 56.002 67.6688 56.002H106.333C106.48 56.002 106.621 56.0616 106.725 56.1679C106.829 56.2741 106.887 56.4182 106.887 56.5684C106.887 56.7187 106.829 56.8628 106.725 56.969C106.621 57.0753 106.48 57.1349 106.333 57.1349Z" fill="#E6E6E6"/>
<path d="M106.333 59.7961H67.668C67.5952 59.7962 67.5231 59.7817 67.4558 59.7533C67.3885 59.7249 67.3274 59.6832 67.2758 59.6306C67.2243 59.578 67.1834 59.5154 67.1555 59.4466C67.1276 59.3778 67.1133 59.3041 67.1133 59.2296C67.1133 59.1551 67.1276 59.0813 67.1555 59.0125C67.1834 58.9437 67.2243 58.8812 67.2758 58.8286C67.3274 58.776 67.3885 58.7343 67.4558 58.7059C67.5231 58.6775 67.5952 58.6629 67.668 58.6631H106.333C106.479 58.6634 106.62 58.7232 106.723 58.8294C106.827 58.9356 106.885 59.0795 106.885 59.2296C106.885 59.3796 106.827 59.5235 106.723 59.6297C106.62 59.7359 106.479 59.7958 106.333 59.7961Z" fill="#E6E6E6"/>
<path d="M106.333 62.4548H67.668C67.5952 62.4549 67.5231 62.4404 67.4558 62.412C67.3885 62.3836 67.3274 62.3419 67.2758 62.2893C67.2243 62.2366 67.1834 62.1741 67.1555 62.1053C67.1276 62.0365 67.1133 61.9628 67.1133 61.8883C67.1133 61.8138 67.1276 61.74 67.1555 61.6712C67.1834 61.6024 67.2243 61.5399 67.2758 61.4873C67.3274 61.4347 67.3885 61.393 67.4558 61.3646C67.5231 61.3362 67.5952 61.3216 67.668 61.3218H106.333C106.479 61.3221 106.62 61.3819 106.723 61.4881C106.827 61.5943 106.885 61.7382 106.885 61.8883C106.885 62.0383 106.827 62.1822 106.723 62.2884C106.62 62.3946 106.479 62.4545 106.333 62.4548Z" fill="#E6E6E6"/>
<path d="M106.333 65.1135H67.668C67.5952 65.1136 67.5231 65.0991 67.4558 65.0707C67.3885 65.0423 67.3274 65.0006 67.2758 64.948C67.2243 64.8953 67.1834 64.8328 67.1555 64.764C67.1276 64.6952 67.1133 64.6215 67.1133 64.547C67.1133 64.4725 67.1276 64.3987 67.1555 64.3299C67.1834 64.2611 67.2243 64.1986 67.2758 64.146C67.3274 64.0934 67.3885 64.0516 67.4558 64.0233C67.5231 63.9949 67.5952 63.9803 67.668 63.9805H106.333C106.479 63.9808 106.62 64.0406 106.723 64.1468C106.827 64.253 106.885 64.3969 106.885 64.547C106.885 64.697 106.827 64.8409 106.723 64.9471C106.62 65.0533 106.479 65.1131 106.333 65.1135Z" fill="#E6E6E6"/>
<path d="M140.305 152.796L137.711 152.795L136.477 142.554L140.306 142.554L140.305 152.796Z" fill="#A0616A"/>
<path d="M140.397 155.564L132.418 155.564V155.461C132.418 154.618 132.745 153.81 133.328 153.214C133.91 152.618 134.7 152.283 135.524 152.283L136.981 151.151L139.7 152.283L140.397 152.283L140.397 155.564Z" fill="#2F2E41"/>
<path d="M161.514 149.396L159.19 150.574L153.641 141.958L157.072 140.219L161.514 149.396Z" fill="#A0616A"/>
<path d="M162.8 151.836L155.651 155.46L155.606 155.368C155.24 154.613 155.183 153.74 155.446 152.941C155.709 152.142 156.272 151.484 157.01 151.109L157.825 149.433L160.753 149.212L161.377 148.896L162.8 151.836Z" fill="#2F2E41"/>
<path d="M132.62 97.7483C132.62 97.7483 129.667 101.962 131.798 109.241C133.93 116.52 132.734 123.028 133.332 124.333C133.93 125.638 135.135 126.877 134.14 127.867C133.144 128.856 132.62 129.66 133.406 129.929C134.192 130.197 136.813 148.969 136.813 148.969L141.268 149.237C141.268 149.237 142.882 140.517 141.158 133.48C141.158 133.48 141.536 128.371 140.747 126.87C139.958 125.37 140.112 126.723 140.166 124.84C140.196 123.478 140.39 122.124 140.744 120.811C141.006 119.738 141.158 108.927 141.158 108.927L145.494 123.274C145.668 123.768 145.734 124.296 145.685 124.819C145.578 125.558 145.577 126.662 145.709 127.048C145.84 127.435 145.987 127.516 145.913 128.28C145.84 129.044 154.569 145.146 154.569 145.146L158.905 142.169L154.632 128.051C154.208 127.57 153.855 127.028 153.584 126.442C153.06 125.37 153.04 125.311 153.312 124.536C153.584 123.761 153.584 122.251 153.584 121.799C153.584 121.347 153.856 100.833 150.445 97.8158C147.033 94.7985 132.62 97.7483 132.62 97.7483Z" fill="#2F2E41"/>
<path d="M148.638 65.1111L147.75 62.5251L145.326 60.044L140.854 59.4976L137.942 61.4563L135.246 64.1765L131.264 98.0049C131.264 98.0049 150.074 105.426 152.538 99.1981L148.638 65.1111Z" fill="#CCCCCC"/>
<path d="M150.161 65.1082L147.549 62.4346C147.549 62.4346 146.301 79.5224 146.832 80.7242C147.364 81.9261 147.99 81.6193 147.313 82.2689C146.637 82.9185 145.909 82.2738 146.637 83.4645C147.065 84.1322 147.276 84.9219 147.237 85.7198C147.237 85.7198 151.001 109.963 153.183 109.963C155.365 109.963 156.731 109.309 156.654 108.643C156.577 107.978 155.29 106.32 155.691 105.909C156.092 105.497 157.081 105.808 156.102 105.032C155.122 104.256 154.637 104.504 154.88 103.512C155.122 102.519 153.269 89.6536 153.269 89.6536L153.088 68.1639L150.161 65.1082Z" fill="#3F3D56"/>
<path d="M137.941 61.4541L134.557 61.944L130.535 63.5153C130.535 63.5153 132.372 84.7243 131.988 85.4345C131.605 86.1446 130.923 85.7011 131.507 86.4191C132.09 87.1371 132.614 86.8186 131.988 87.4741C131.362 88.1295 130.309 87.2992 130.957 88.4587C131.605 89.6182 128.482 105.582 129.323 106.438C130.164 107.295 132.33 106.762 132.331 106.13C132.265 105.448 132.013 104.799 131.605 104.257C131.488 104.119 131.423 103.943 131.423 103.76C131.423 103.578 131.488 103.402 131.605 103.264C131.948 102.926 132.184 102.49 132.282 102.012C132.332 101.527 132.703 100.932 132.881 100.485C133.06 100.039 137.555 69.8211 137.555 69.8211L137.941 61.4541Z" fill="#3F3D56"/>
<path d="M123.506 78.1532L125.032 77.3379C123.126 75.5792 118.399 72.7017 118.399 72.7017L110.251 67.0804C110.132 66.793 109.941 66.5429 109.697 66.3552C109.453 66.1675 109.165 66.0488 108.863 66.0111C108.56 65.9733 108.252 66.0179 107.972 66.1404C107.691 66.2628 107.447 66.4587 107.264 66.7084C107.081 66.9581 106.965 67.2527 106.928 67.5627C106.892 67.8727 106.936 68.187 107.056 68.4741C107.176 68.7611 107.368 69.0108 107.612 69.1979C107.856 69.385 108.144 69.503 108.447 69.54L117.578 77.9115L123.506 78.1532Z" fill="#A0616A"/>
<path d="M134.658 71.9542L134.675 65.0979L130.953 63.2764L121.566 73.4429L120.838 72.9467H119.141L115.02 77.9089C115.02 77.9089 117.215 79.2402 118.299 78.6986C119.384 78.157 119.282 78.9352 119.282 78.9352C119.443 79.1422 119.667 79.2878 119.918 79.3483C120.17 79.4089 120.434 79.381 120.668 79.2691C121.566 78.9013 123.263 79.8938 123.263 79.8938L134.658 71.9542Z" fill="#3F3D56"/>
<path d="M143.578 57.9245C146.576 57.9245 149.006 55.4378 149.006 52.3702C149.006 49.3027 146.576 46.8159 143.578 46.8159C140.58 46.8159 138.15 49.3027 138.15 52.3702C138.15 55.4378 140.58 57.9245 143.578 57.9245Z" fill="#A0616A"/>
<path d="M150.132 53.7756C149.619 54.8018 148.932 55.7258 148.101 56.5041C147.863 56.7814 147.559 56.9913 147.218 57.1136C147.047 57.1707 146.861 57.1646 146.694 57.0963C146.527 57.0279 146.388 56.9017 146.303 56.7397L146.202 56.599C146.493 56.508 146.767 56.3691 147.014 56.1878C147.137 56.0965 147.237 55.9765 147.305 55.8378C147.374 55.6991 147.409 55.5457 147.408 55.3904C147.399 55.2351 147.331 55.0894 147.22 54.9839C147.108 54.8784 146.961 54.8212 146.809 54.8244C146.47 54.8657 146.167 55.2709 145.863 55.1147C145.618 54.987 145.653 54.6215 145.723 54.3455C146.101 52.9052 145.943 50.6727 145.399 50.5947C144.859 50.4821 144.344 50.2664 143.881 49.9588C143.418 49.6508 142.901 49.4379 142.358 49.332C142.319 49.3267 142.28 49.3239 142.237 49.3204C142.222 49.0234 142.171 48.7295 142.087 48.4449C142.028 48.7454 141.938 49.0386 141.818 49.3195C141.348 49.3851 140.874 49.4097 140.4 49.3929C139.894 49.3329 138.442 50.5377 138.431 50.3719C138.416 50.075 138.365 49.781 138.281 49.4965C138.222 49.7969 138.132 50.0901 138.012 50.3711C138.007 50.3826 138.004 50.3923 137.999 50.4037C137.844 50.0185 137.8 49.5878 137.804 49.9095C137.48 47.8627 138.123 46.6304 139.764 45.4167C140.092 45.149 140.481 44.9709 140.894 44.899C141.101 44.8652 141.312 44.8865 141.509 44.9606C141.705 45.0348 141.879 45.1594 142.014 45.3225C142.645 44.9813 143.353 44.8188 144.065 44.8519C144.777 44.8849 145.468 45.1122 146.065 45.5103C147.246 46.3198 148.177 46.8583 148.02 48.3058C149.139 48.4161 150.085 49.3359 150.438 50.426C150.789 51.5178 150.607 52.7363 150.132 53.7756Z" fill="#2F2E41"/>
<path d="M157.059 82.7172L153.165 82.1465C151.848 84.4 151.38 90.3982 151.38 90.3982L147.57 99.6673C147.317 99.8427 147.114 100.083 146.982 100.364C146.849 100.645 146.791 100.957 146.813 101.269C146.836 101.58 146.938 101.88 147.11 102.138C147.282 102.396 147.517 102.603 147.792 102.739C148.066 102.874 148.371 102.933 148.675 102.91C148.98 102.886 149.273 102.781 149.525 102.605C149.776 102.429 149.979 102.188 150.111 101.907C150.243 101.625 150.3 101.313 150.277 101.002L156.534 90.2133L157.059 82.7172Z" fill="#A0616A"/>
<path d="M148.092 68.8989L149.742 66.5732L153.088 68.1643L155.87 79.1489C155.87 79.1489 157.902 80.5022 157.469 81.4568C157.035 82.4114 156.805 83.1817 157.253 83.7287C157.701 84.2757 159.006 84.3159 158.034 85.2078C157.062 86.0997 157.894 88.4301 157.894 88.4301L156.962 90.5579L151.144 90.3098L148.092 68.8989Z" fill="#3F3D56"/>
<path d="M13.5142 102.968C13.8815 102.673 14.1219 102.244 14.1841 101.77C14.2464 101.297 14.1256 100.817 13.8476 100.433C13.7899 100.356 13.726 100.284 13.6567 100.218L16.1413 94.3462L13.6736 92.0078L11.1197 100.427C10.8732 100.743 10.7358 101.133 10.7288 101.537C10.7218 101.941 10.8456 102.336 11.081 102.66C11.2166 102.843 11.3862 102.997 11.5801 103.113C11.7739 103.23 11.9882 103.305 12.2107 103.337C12.4332 103.368 12.6596 103.354 12.8769 103.296C13.0942 103.238 13.2981 103.137 13.4772 102.998C13.4897 102.988 13.502 102.978 13.5142 102.968Z" fill="#FFB6B6"/>
<path d="M27.9483 64.8799C27.9483 64.8799 26.1091 61.3018 21.8425 65.1659C17.5758 69.03 12.534 88.3715 12.6319 89.0986C12.7298 89.8257 13.7727 89.5381 12.4536 90.585C11.1346 91.632 10.4052 90.6913 11.1346 91.632C11.8639 92.5726 13.4948 93.5691 12.0507 93.709C10.6067 93.8489 15.9005 96.1797 15.9005 96.1797C15.9005 96.1797 16.7332 95.9751 16.9887 94.0089C17.1322 92.9046 16.6459 92.2776 17.5018 92.0935C18.3577 91.9095 17.5555 89.9125 17.6787 89.5982C17.8019 89.284 24.6359 75.5599 24.6359 75.5599L27.9483 64.8799Z" fill="#6C63FF"/>
<path d="M36.3484 152.265L39.4377 152.264L40.9077 140.069L36.3477 140.069L36.3484 152.265Z" fill="#FFB6B6"/>
<path d="M36.2404 155.566L45.7416 155.566V155.443C45.7415 154.439 45.3519 153.477 44.6583 152.767C43.9648 152.057 43.0242 151.658 42.0435 151.658H42.0432L40.3077 150.311L37.0696 151.659L36.2402 151.659L36.2404 155.566Z" fill="#2F2E41"/>
<path d="M14.6934 146.45L17.2207 148.269L25.2783 139.158L21.5477 136.474L14.6934 146.45Z" fill="#FFB6B6"/>
<path d="M12.75 149.085L20.5223 154.678L20.5914 154.577C21.1555 153.756 21.3778 152.739 21.2094 151.75C21.041 150.762 20.4957 149.882 19.6934 149.304L19.0309 147.181L15.6247 146.377L14.9462 145.889L12.75 149.085Z" fill="#2F2E41"/>
<path d="M24.0378 91.5932L23.7811 92.1544C22.0936 95.8437 21.6622 99.9677 22.3179 103.985C22.3667 104.142 22.3574 104.312 22.2918 104.462C21.8851 104.95 22.5232 107.071 22.8889 108.255L23.2186 110.35C23.2186 110.35 22.6719 112.295 23.5022 112.152C24.3325 112.009 23.0961 114.083 23.8881 114.603L25.9426 127.654L17.3711 142.111L20.5457 146.822L33.2443 130.091L33.403 114.984L35.3078 127.167L35.4665 146.335L41.242 145.706L43.358 127.123L41.3396 101.423L38.165 90.2803L24.0378 91.5932Z" fill="#2F2E41"/>
<path d="M28.0054 58.1367L32.6777 58.3644L34.912 62.3144C35.9028 62.6186 36.8142 63.1466 37.5789 63.8594C38.3436 64.5723 38.9421 65.4518 39.3302 66.433L40.7851 70.1114L39.13 91.379C39.13 91.379 38.7983 92.6653 39.4092 92.4775C40.02 92.2897 39.771 93.9018 39.771 93.9018L42.0224 102.763L21.5531 100.942L22.6897 91.5531C22.6897 91.5531 21.1094 91.6053 22.2206 90.4682C23.3317 89.3312 23.8721 89.6934 22.8047 88.3491C21.7373 87.0049 21.5786 86.0302 21.5786 86.0302L21.1024 79.3703L20.3173 69.9975C20.1927 68.5102 20.4314 67.0146 21.0117 65.6451C21.5921 64.2757 22.4959 63.0753 23.6421 62.152L28.0054 58.1367Z" fill="#6C63FF"/>
<path d="M30.4293 57.0395C33.7018 57.0395 36.3547 54.3247 36.3547 50.9758C36.3547 47.6269 33.7018 44.9121 30.4293 44.9121C27.1568 44.9121 24.5039 47.6269 24.5039 50.9758C24.5039 54.3247 27.1568 57.0395 30.4293 57.0395Z" fill="#FFB6B6"/>
<path d="M28.1384 56.5391C29.8387 56.4821 29.9932 56.0224 31.6935 55.9654C32.235 55.9472 32.8738 55.8712 33.1356 55.3859C33.2118 55.2041 33.2457 55.0066 33.2347 54.8091C33.2237 54.6116 33.1681 54.4194 33.0722 54.2476C32.8781 53.9066 32.7033 53.5545 32.5483 53.1931C32.455 52.9097 32.4305 52.6073 32.477 52.3121C32.5235 52.0168 32.6395 51.7376 32.8151 51.4985C32.9907 51.2595 33.2205 51.0677 33.4847 50.9399C33.7489 50.8121 34.0396 50.7521 34.3315 50.765C34.849 50.7879 35.335 51.0369 35.851 51.0824C36.5587 51.1448 38.1235 48.7537 37.7977 48.1078C37.4805 47.4791 36.8423 47.0047 36.742 46.3047C36.6763 45.8468 36.861 45.3918 36.8863 44.9298C36.9237 44.2447 35.2267 45.7894 35.5375 45.1814C36.2998 43.69 29.1156 41.8409 27.9328 43.7091C27.4908 44.4074 26.703 44.3597 26.0008 44.7791C25.5406 45.0539 24.3785 46.0021 24.1143 46.593C23.8716 47.196 23.7569 47.845 23.7778 48.4968C23.7672 51.5283 24.2185 54.3168 26.6079 56.1087" fill="#2F2E41"/>
<path d="M44.9632 102.709C44.6138 102.392 44.399 101.948 44.3644 101.472C44.3299 100.996 44.4784 100.524 44.7783 100.158C44.8405 100.085 44.9084 100.016 44.9815 99.9545L42.8438 93.9418L45.4435 91.7583L47.5017 100.319C47.7293 100.649 47.8438 101.047 47.8272 101.45C47.8106 101.854 47.664 102.241 47.4101 102.55C47.264 102.724 47.0857 102.868 46.8855 102.972C46.6852 103.076 46.4669 103.139 46.2429 103.156C46.019 103.174 45.7938 103.147 45.5803 103.075C45.3668 103.004 45.1691 102.89 44.9985 102.741C44.9866 102.73 44.9749 102.72 44.9632 102.709Z" fill="#FFB6B6"/>
<path d="M32.7734 63.8073C32.7734 63.8073 34.8181 60.3479 38.8517 64.4657C42.8854 68.5836 46.7899 88.1986 46.6498 88.9184C46.5096 89.6383 45.4854 89.2875 46.7411 90.4131C47.9967 91.5387 48.7796 90.6443 47.9967 91.5387C47.2138 92.4332 45.5276 93.3283 46.961 93.5561C48.3943 93.784 42.9739 95.7872 42.9739 95.7872C42.9739 95.7872 42.1547 95.5321 42.0144 93.5539C41.9356 92.4428 42.4575 91.8465 41.6138 91.6105C40.7702 91.3746 41.6875 89.4301 41.5829 89.1089C41.4782 88.7876 35.4569 74.6706 35.4569 74.6706L32.7734 63.8073Z" fill="#6C63FF"/>
<path d="M91.7317 30.8343C91.732 31.816 91.4477 32.7757 90.915 33.5921C90.3822 34.4084 89.6249 35.0448 88.7387 35.4207C87.8525 35.7966 86.8773 35.8951 85.9364 35.7039C84.9955 35.5126 84.1312 35.0401 83.4527 34.3461C82.7742 33.6521 82.3121 32.7678 82.1247 31.8051C81.9373 30.8423 82.0331 29.8443 82.4 28.9372C82.7669 28.0302 83.3883 27.2549 84.1858 26.7093C84.9833 26.1637 85.921 25.8723 86.8803 25.8721C87.5174 25.8712 88.1485 25.9989 88.7373 26.248C89.3261 26.497 89.8612 26.8625 90.3118 27.3234C90.7624 27.7843 91.1198 28.3317 91.3635 28.9341C91.6071 29.5366 91.7323 30.1823 91.7317 30.8343Z" fill="#6C63FF"/>
<path d="M86.9882 31.5502C87.9255 31.5502 88.6853 30.7726 88.6853 29.8134C88.6853 28.8542 87.9255 28.0767 86.9882 28.0767C86.0509 28.0767 85.291 28.8542 85.291 29.8134C85.291 30.7726 86.0509 31.5502 86.9882 31.5502Z" fill="white"/>
<path d="M88.8096 32.1724H85.1728C84.9478 32.1726 84.7321 32.2642 84.573 32.427C84.4139 32.5898 84.3245 32.8105 84.3242 33.0408C84.376 33.7845 84.4895 34.5224 84.6636 35.2465C85.393 35.6311 86.2058 35.8199 87.026 35.7951C87.8461 35.7704 88.6467 35.5329 89.3527 35.105C89.5083 34.4264 89.6105 33.7361 89.6581 33.0408C89.6579 32.8105 89.5684 32.5898 89.4093 32.427C89.2502 32.2642 89.0345 32.1726 88.8096 32.1724Z" fill="white"/>
<path d="M-0.00195185 155.705C-0.00206485 155.744 0.00532257 155.782 0.0197828 155.818C0.034243 155.854 0.0554892 155.887 0.0823046 155.914C0.10912 155.941 0.140975 155.963 0.176032 155.978C0.211089 155.993 0.248659 156 0.286581 156H173.71C173.786 156 173.859 155.969 173.914 155.914C173.968 155.858 173.998 155.783 173.998 155.705C173.998 155.627 173.968 155.552 173.914 155.496C173.859 155.441 173.786 155.41 173.71 155.41H0.286581C0.248659 155.41 0.211088 155.417 0.176032 155.432C0.140975 155.447 0.109123 155.468 0.0823082 155.496C0.0554932 155.523 0.0342435 155.556 0.0197828 155.592C0.00532211 155.628 -0.00206356 155.666 -0.00195185 155.705Z" fill="#CCCCCC"/>
</g>
<defs>
<clipPath id="clip0_1089_6511">
<rect width="174" height="156" fill="white"/>
</clipPath>
</defs>
</svg>
