<svg width="17" height="16" viewBox="0 0 17 16" fill="none" xmlns="http://www.w3.org/2000/svg">
<path d="M3.80208 3.33333H7.80208C8.16875 3.33333 8.46875 3.03333 8.46875 2.66667C8.46875 2.3 8.16875 2 7.80208 2H3.80208C3.06875 2 2.46875 2.6 2.46875 3.33333V12.6667C2.46875 13.4 3.06875 14 3.80208 14H7.80208C8.16875 14 8.46875 13.7 8.46875 13.3333C8.46875 12.9667 8.16875 12.6667 7.80208 12.6667H3.80208V3.33333Z" fill="#CB1E1E"/>
<path d="M14.2354 7.76667L12.3754 5.90667C12.1621 5.69333 11.8021 5.84 11.8021 6.14V7.33333H7.13542C6.76875 7.33333 6.46875 7.63333 6.46875 8C6.46875 8.36667 6.76875 8.66667 7.13542 8.66667H11.8021V9.86C11.8021 10.16 12.1621 10.3067 12.3688 10.0933L14.2288 8.23333C14.3621 8.10667 14.3621 7.89333 14.2354 7.76667Z" fill="#CB1E1E"/>
</svg>
