<svg width="20" height="20" viewBox="0 0 20 20" fill="none" xmlns="http://www.w3.org/2000/svg">
<path d="M7.91601 5.4165V7.9165H5.41601V5.4165H7.91601ZM9.16601 4.1665H4.16602V9.1665H9.16601V4.1665ZM7.91601 12.0832V14.5832H5.41601V12.0832H7.91601ZM9.16601 10.8332H4.16602V15.8332H9.16601V10.8332ZM14.5827 5.4165V7.9165H12.0827V5.4165H14.5827ZM15.8327 4.1665H10.8327V9.1665H15.8327V4.1665ZM10.8327 10.8332H12.0827V12.0832H10.8327V10.8332ZM12.0827 12.0832H13.3327V13.3332H12.0827V12.0832ZM13.3327 10.8332H14.5827V12.0832H13.3327V10.8332ZM10.8327 13.3332H12.0827V14.5832H10.8327V13.3332ZM12.0827 14.5832H13.3327V15.8332H12.0827V14.5832ZM13.3327 13.3332H14.5827V14.5832H13.3327V13.3332ZM14.5827 12.0832H15.8327V13.3332H14.5827V12.0832ZM14.5827 14.5832H15.8327V15.8332H14.5827V14.5832ZM17.4993 5.83317C17.041 5.83317 16.666 5.45817 16.666 4.99984V3.33317H14.9993C14.541 3.33317 14.166 2.95817 14.166 2.49984C14.166 2.0415 14.541 1.6665 14.9993 1.6665H17.4993C17.9577 1.6665 18.3327 2.0415 18.3327 2.49984V4.99984C18.3327 5.45817 17.9577 5.83317 17.4993 5.83317ZM18.3327 17.4998V14.9998C18.3327 14.5415 17.9577 14.1665 17.4993 14.1665C17.041 14.1665 16.666 14.5415 16.666 14.9998V16.6665H14.9993C14.541 16.6665 14.166 17.0415 14.166 17.4998C14.166 17.9582 14.541 18.3332 14.9993 18.3332H17.4993C17.9577 18.3332 18.3327 17.9582 18.3327 17.4998ZM2.49935 18.3332H4.99935C5.45768 18.3332 5.83268 17.9582 5.83268 17.4998C5.83268 17.0415 5.45768 16.6665 4.99935 16.6665H3.33268V14.9998C3.33268 14.5415 2.95768 14.1665 2.49935 14.1665C2.04102 14.1665 1.66602 14.5415 1.66602 14.9998V17.4998C1.66602 17.9582 2.04102 18.3332 2.49935 18.3332ZM1.66602 2.49984V4.99984C1.66602 5.45817 2.04102 5.83317 2.49935 5.83317C2.95768 5.83317 3.33268 5.45817 3.33268 4.99984V3.33317H4.99935C5.45768 3.33317 5.83268 2.95817 5.83268 2.49984C5.83268 2.0415 5.45768 1.6665 4.99935 1.6665H2.49935C2.04102 1.6665 1.66602 2.0415 1.66602 2.49984Z" fill="white"/>
</svg>
