<svg width="20" height="20" viewBox="0 0 20 20" fill="none" xmlns="http://www.w3.org/2000/svg">
<path d="M14.9993 3.33301H4.99935C3.15768 3.33301 1.66602 4.82467 1.66602 6.66634V13.333C1.66602 15.1747 3.15768 16.6663 4.99935 16.6663H14.9993C16.841 16.6663 18.3327 15.1747 18.3327 13.333V6.66634C18.3327 4.82467 16.841 3.33301 14.9993 3.33301ZM13.4493 11.4747C13.2493 11.6413 12.9743 11.708 12.716 11.6413L3.45768 9.37467C3.70768 8.76634 4.29935 8.33301 4.99935 8.33301H14.9993C15.5577 8.33301 16.0493 8.61634 16.3577 9.03301L13.4493 11.4747ZM4.99935 4.99967H14.9993C15.916 4.99967 16.666 5.74967 16.666 6.66634V7.12467C16.1743 6.84134 15.6077 6.66634 14.9993 6.66634H4.99935C4.39102 6.66634 3.82435 6.84134 3.33268 7.12467V6.66634C3.33268 5.74967 4.08268 4.99967 4.99935 4.99967Z" fill="white"/>
</svg>
