<svg width="16" height="16" viewBox="0 0 16 16" fill="none" xmlns="http://www.w3.org/2000/svg">
<path d="M8.40052 7.99987L5.80052 5.39987C5.6783 5.27765 5.61719 5.12209 5.61719 4.9332C5.61719 4.74431 5.6783 4.58876 5.80052 4.46654C5.92274 4.34431 6.0783 4.2832 6.26719 4.2832C6.45608 4.2832 6.61163 4.34431 6.73385 4.46654L9.80052 7.5332C9.86719 7.59987 9.91441 7.67209 9.94219 7.74987C9.96997 7.82765 9.98385 7.91098 9.98385 7.99987C9.98385 8.08876 9.96997 8.17209 9.94219 8.24987C9.91441 8.32765 9.86719 8.39987 9.80052 8.46654L6.73385 11.5332C6.61163 11.6554 6.45608 11.7165 6.26719 11.7165C6.0783 11.7165 5.92274 11.6554 5.80052 11.5332C5.6783 11.411 5.61719 11.2554 5.61719 11.0665C5.61719 10.8776 5.6783 10.7221 5.80052 10.5999L8.40052 7.99987Z" fill="#637381"/>
</svg>
