<svg width="20" height="21" viewBox="0 0 20 21" fill="none" xmlns="http://www.w3.org/2000/svg">
<path d="M13.3137 12.5598H12.6553L12.422 12.3348C13.422 11.1681 13.9387 9.57643 13.6553 7.88477C13.2637 5.5681 11.3303 3.7181 8.99701 3.43477C5.47201 3.00143 2.50534 5.9681 2.93867 9.4931C3.22201 11.8264 5.07201 13.7598 7.38867 14.1514C9.08034 14.4348 10.672 13.9181 11.8387 12.9181L12.0637 13.1514V13.8098L15.6053 17.3514C15.947 17.6931 16.5053 17.6931 16.847 17.3514C17.1887 17.0098 17.1887 16.4514 16.847 16.1098L13.3137 12.5598ZM8.31367 12.5598C6.23867 12.5598 4.56367 10.8848 4.56367 8.80977C4.56367 6.73477 6.23867 5.05977 8.31367 5.05977C10.3887 5.05977 12.0637 6.73477 12.0637 8.80977C12.0637 10.8848 10.3887 12.5598 8.31367 12.5598Z" fill="#919EAB"/>
</svg>
