<svg width="20" height="20" viewBox="0 0 20 20" fill="none" xmlns="http://www.w3.org/2000/svg">
<path d="M8.83268 11.4998L7.04102 9.70817C6.88824 9.55539 6.69379 9.479 6.45768 9.479C6.22157 9.479 6.02713 9.55539 5.87435 9.70817C5.72157 9.86095 5.64518 10.0554 5.64518 10.2915C5.64518 10.5276 5.72157 10.7221 5.87435 10.8748L8.24935 13.2498C8.41602 13.4165 8.61046 13.4998 8.83268 13.4998C9.0549 13.4998 9.24935 13.4165 9.41602 13.2498L14.1243 8.5415C14.2771 8.38873 14.3535 8.19428 14.3535 7.95817C14.3535 7.72206 14.2771 7.52761 14.1243 7.37484C13.9716 7.22206 13.7771 7.14567 13.541 7.14567C13.3049 7.14567 13.1105 7.22206 12.9577 7.37484L8.83268 11.4998ZM9.99935 18.3332C8.84657 18.3332 7.76324 18.1144 6.74935 17.6769C5.73546 17.2394 4.85352 16.6457 4.10352 15.8957C3.35352 15.1457 2.75977 14.2637 2.32227 13.2498C1.88477 12.2359 1.66602 11.1526 1.66602 9.99984C1.66602 8.84706 1.88477 7.76373 2.32227 6.74984C2.75977 5.73595 3.35352 4.854 4.10352 4.104C4.85352 3.354 5.73546 2.76025 6.74935 2.32275C7.76324 1.88525 8.84657 1.6665 9.99935 1.6665C11.1521 1.6665 12.2355 1.88525 13.2493 2.32275C14.2632 2.76025 15.1452 3.354 15.8952 4.104C16.6452 4.854 17.2389 5.73595 17.6764 6.74984C18.1139 7.76373 18.3327 8.84706 18.3327 9.99984C18.3327 11.1526 18.1139 12.2359 17.6764 13.2498C17.2389 14.2637 16.6452 15.1457 15.8952 15.8957C15.1452 16.6457 14.2632 17.2394 13.2493 17.6769C12.2355 18.1144 11.1521 18.3332 9.99935 18.3332Z" fill="#1D915F"/>
</svg>
