<svg width="64" height="64" viewBox="0 0 64 64" fill="none" xmlns="http://www.w3.org/2000/svg">
<ellipse cx="12.1081" cy="12.1081" rx="12.1081" ry="12.1081" transform="matrix(1 0 0 -1 39.7832 64)" fill="#443CC5"/>
<ellipse cx="12.1081" cy="12.1081" rx="12.1081" ry="12.1081" transform="matrix(-4.37114e-08 -1 -1 4.37114e-08 24.2168 24.2158)" fill="#443CC5"/>
<circle cx="4.49728" cy="4.49728" r="4.49728" transform="matrix(-0.707107 -0.707107 -0.707107 0.707107 30.1211 40.2393)" fill="#443CC5"/>
<path fill-rule="evenodd" clip-rule="evenodd" d="M30.0955 53.6071C28.4041 52.7187 27.7531 50.6273 28.6415 48.9358L32.0197 42.5042C32.9082 40.8127 34.9996 40.1617 36.6911 41.0502C38.3826 41.9386 39.0335 44.0301 38.1451 45.7215L34.7669 52.1531C33.8784 53.8446 31.787 54.4956 30.0955 53.6071Z" fill="#443CC5"/>
<path fill-rule="evenodd" clip-rule="evenodd" d="M22.8429 27.1037C21.9665 25.4059 19.8798 24.7401 18.182 25.6164L11.7265 28.9487C10.0287 29.8251 9.36287 31.9118 10.2392 33.6096C11.1156 35.3073 13.2023 35.9732 14.9001 35.0968L21.3556 31.7645C23.0534 30.8882 23.7193 28.8014 22.8429 27.1037Z" fill="#443CC5"/>
</svg>
