<svg width="40" height="40" viewBox="0 0 40 40" fill="none" xmlns="http://www.w3.org/2000/svg">
<path d="M34.4121 4.45605L21.9199 13.7341L24.23 8.2602L34.4121 4.45605Z" fill="#E2761B" stroke="#E2761B" stroke-width="0.125549" stroke-linecap="round" stroke-linejoin="round"/>
<path d="M5.57413 4.45605L17.9658 13.822L15.7687 8.2602L5.57413 4.45605ZM29.9181 25.9626L26.5911 31.0599L33.7097 33.0185L35.7562 26.0756L29.9181 25.9626ZM4.25586 26.0756L6.28976 33.0185L13.4084 31.0599L10.0813 25.9626L4.25586 26.0756Z" fill="#E4761B" stroke="#E4761B" stroke-width="0.125549" stroke-linecap="round" stroke-linejoin="round"/>
<path d="M13.0071 17.3501L11.0234 20.3507L18.0919 20.6646L17.8408 13.0688L13.0071 17.3501ZM26.9807 17.3501L22.0843 12.981L21.9211 20.6646L28.977 20.3507L26.9807 17.3501ZM13.4089 31.0601L17.6524 28.9885L13.9864 26.126L13.4089 31.0601ZM22.3354 28.9885L26.5915 31.0601L26.0015 26.126L22.3354 28.9885Z" fill="#E4761B" stroke="#E4761B" stroke-width="0.125549" stroke-linecap="round" stroke-linejoin="round"/>
<path d="M26.5909 31.0598L22.3348 28.9883L22.6737 31.7629L22.6361 32.9305L26.5909 31.0598ZM13.4082 31.0598L17.363 32.9305L17.3379 31.7629L17.6518 28.9883L13.4082 31.0598Z" fill="#D7C1B3" stroke="#D7C1B3" stroke-width="0.125549" stroke-linecap="round" stroke-linejoin="round"/>
<path d="M17.4253 24.2925L13.8848 23.2504L16.3832 22.1079L17.4253 24.2925ZM22.5602 24.2925L23.6023 22.1079L26.1133 23.2504L22.5602 24.2925Z" fill="#233447" stroke="#233447" stroke-width="0.125549" stroke-linecap="round" stroke-linejoin="round"/>
<path d="M13.4071 31.0599L14.0098 25.9626L10.0801 26.0756L13.4071 31.0599ZM25.9872 25.9626L26.5898 31.0599L29.9169 26.0756L25.9872 25.9626ZM28.9752 20.3506L21.9194 20.6645L22.5722 24.2928L23.6143 22.1083L26.1253 23.2508L28.9752 20.3506ZM13.8842 23.2508L16.3952 22.1083L17.4247 24.2928L18.0901 20.6645L11.0217 20.3506L13.8842 23.2508Z" fill="#CD6116" stroke="#CD6116" stroke-width="0.125549" stroke-linecap="round" stroke-linejoin="round"/>
<path d="M11.0234 20.3506L13.9864 26.1259L13.886 23.2508L11.0234 20.3506ZM26.127 23.2508L26.0015 26.1259L28.977 20.3506L26.127 23.2508ZM18.0919 20.6645L17.4264 24.2928L18.2551 28.5741L18.4434 22.9369L18.0919 20.6645ZM21.9211 20.6645L21.5821 22.9243L21.7328 28.5741L22.574 24.2928L21.9211 20.6645Z" fill="#E4751F" stroke="#E4751F" stroke-width="0.125549" stroke-linecap="round" stroke-linejoin="round"/>
<path d="M22.5728 24.2925L21.7316 28.5738L22.3342 28.9881L26.0003 26.1256L26.1258 23.2505L22.5728 24.2925ZM13.8848 23.2505L13.9852 26.1256L17.6512 28.9881L18.2539 28.5738L17.4253 24.2925L13.8848 23.2505Z" fill="#F6851B" stroke="#F6851B" stroke-width="0.125549" stroke-linecap="round" stroke-linejoin="round"/>
<path d="M22.6361 32.9307L22.6737 31.7631L22.3599 31.4869H17.6267L17.3379 31.7631L17.363 32.9307L13.4082 31.0601L14.7892 32.19L17.589 34.136H22.3975L25.2098 32.19L26.5909 31.0601L22.6361 32.9307Z" fill="#C0AD9E" stroke="#C0AD9E" stroke-width="0.125549" stroke-linecap="round" stroke-linejoin="round"/>
<path d="M22.3348 28.9885L21.7321 28.5742H18.2544L17.6518 28.9885L17.3379 31.7632L17.6267 31.487H22.3599L22.6737 31.7632L22.3348 28.9885Z" fill="#161616" stroke="#161616" stroke-width="0.125549" stroke-linecap="round" stroke-linejoin="round"/>
<path d="M34.9401 14.3368L36.0073 9.21437L34.4128 4.45605L22.3349 13.4203L26.9803 17.35L33.5465 19.2709L35.0029 17.576L34.3751 17.124L35.3795 16.2075L34.6011 15.6048L35.6055 14.839L34.9401 14.3368ZM3.99219 9.21437L5.05936 14.3368L4.38139 14.839L5.38578 15.6048L4.61993 16.2075L5.62433 17.124L4.99658 17.576L6.4404 19.2709L13.0066 17.35L17.6519 13.4203L5.57411 4.45605L3.99219 9.21437Z" fill="#763D16" stroke="#763D16" stroke-width="0.125549" stroke-linecap="round" stroke-linejoin="round"/>
<path d="M33.5465 19.2709L26.9803 17.35L28.9765 20.3506L26.001 26.1259L29.9181 26.0757H35.7562L33.5465 19.2709ZM13.0066 17.35L6.44042 19.2709L4.25586 26.0757H10.0813L13.9859 26.1259L11.023 20.3506L13.0066 17.35ZM21.9206 20.6645L22.335 13.4203L24.2433 8.26025H15.7687L17.652 13.4203L18.0914 20.6645L18.2421 22.9495L18.2546 28.5741H21.7323L21.7574 22.9495L21.9206 20.6645Z" fill="#F6851B" stroke="#F6851B" stroke-width="0.125549" stroke-linecap="round" stroke-linejoin="round"/>
</svg>
