<svg width="468" height="469" viewBox="0 0 468 469" fill="none" xmlns="http://www.w3.org/2000/svg">
<g filter="url(#filter0_dd_1089_5393)">
<g clip-path="url(#clip0_1089_5393)">
<path d="M429.999 18H37.999V410H429.999V18Z" fill="white"/>
<path d="M179.929 55.8491C182.169 55.8491 183.984 54.0336 183.984 51.7939C183.984 49.5543 182.169 47.7388 179.929 47.7388C177.69 47.7388 175.874 49.5543 175.874 51.7939C175.874 54.0336 177.69 55.8491 179.929 55.8491Z" fill="#292476"/>
<path d="M193.448 55.8491C195.687 55.8491 197.503 54.0336 197.503 51.7939C197.503 49.5543 195.687 47.7388 193.448 47.7388C191.208 47.7388 189.393 49.5543 189.393 51.7939C189.393 54.0336 191.208 55.8491 193.448 55.8491Z" fill="#292476"/>
<path d="M288.069 55.8491C290.308 55.8491 292.124 54.0336 292.124 51.7939C292.124 49.5543 290.308 47.7388 288.069 47.7388C285.829 47.7388 284.014 49.5543 284.014 51.7939C284.014 54.0336 285.829 55.8491 288.069 55.8491Z" fill="#292476"/>
<path d="M179.929 69.3662C182.169 69.3662 183.984 67.5506 183.984 65.311C183.984 63.0714 182.169 61.2559 179.929 61.2559C177.69 61.2559 175.874 63.0714 175.874 65.311C175.874 67.5506 177.69 69.3662 179.929 69.3662Z" fill="#292476"/>
<path d="M193.448 69.3662C195.687 69.3662 197.503 67.5506 197.503 65.311C197.503 63.0714 195.687 61.2559 193.448 61.2559C191.208 61.2559 189.393 63.0714 189.393 65.311C189.393 67.5506 191.208 69.3662 193.448 69.3662Z" fill="#292476"/>
<path d="M206.964 69.3662C209.204 69.3662 211.02 67.5506 211.02 65.311C211.02 63.0714 209.204 61.2559 206.964 61.2559C204.725 61.2559 202.909 63.0714 202.909 65.311C202.909 67.5506 204.725 69.3662 206.964 69.3662Z" fill="#292476"/>
<path d="M220.482 69.3662C222.722 69.3662 224.537 67.5506 224.537 65.311C224.537 63.0714 222.722 61.2559 220.482 61.2559C218.242 61.2559 216.427 63.0714 216.427 65.311C216.427 67.5506 218.242 69.3662 220.482 69.3662Z" fill="#292476"/>
<path d="M233.995 69.3662C236.234 69.3662 238.05 67.5506 238.05 65.311C238.05 63.0714 236.234 61.2559 233.995 61.2559C231.755 61.2559 229.939 63.0714 229.939 65.311C229.939 67.5506 231.755 69.3662 233.995 69.3662Z" fill="#292476"/>
<path d="M261.037 69.3662C263.276 69.3662 265.092 67.5506 265.092 65.311C265.092 63.0714 263.276 61.2559 261.037 61.2559C258.797 61.2559 256.981 63.0714 256.981 65.311C256.981 67.5506 258.797 69.3662 261.037 69.3662Z" fill="#292476"/>
<path d="M288.069 69.3662C290.308 69.3662 292.124 67.5506 292.124 65.311C292.124 63.0714 290.308 61.2559 288.069 61.2559C285.829 61.2559 284.014 63.0714 284.014 65.311C284.014 67.5506 285.829 69.3662 288.069 69.3662Z" fill="#292476"/>
<path d="M193.448 82.8838C195.687 82.8838 197.503 81.0682 197.503 78.8286C197.503 76.589 195.687 74.7734 193.448 74.7734C191.208 74.7734 189.393 76.589 189.393 78.8286C189.393 81.0682 191.208 82.8838 193.448 82.8838Z" fill="#292476"/>
<path d="M206.964 82.8838C209.204 82.8838 211.02 81.0682 211.02 78.8286C211.02 76.589 209.204 74.7734 206.964 74.7734C204.725 74.7734 202.909 76.589 202.909 78.8286C202.909 81.0682 204.725 82.8838 206.964 82.8838Z" fill="#292476"/>
<path d="M247.511 82.8838C249.751 82.8838 251.566 81.0682 251.566 78.8286C251.566 76.589 249.751 74.7734 247.511 74.7734C245.272 74.7734 243.456 76.589 243.456 78.8286C243.456 81.0682 245.272 82.8838 247.511 82.8838Z" fill="#292476"/>
<path d="M261.037 82.8838C263.276 82.8838 265.092 81.0682 265.092 78.8286C265.092 76.589 263.276 74.7734 261.037 74.7734C258.797 74.7734 256.981 76.589 256.981 78.8286C256.981 81.0682 258.797 82.8838 261.037 82.8838Z" fill="#292476"/>
<path d="M274.552 82.8838C276.792 82.8838 278.607 81.0682 278.607 78.8286C278.607 76.589 276.792 74.7734 274.552 74.7734C272.313 74.7734 270.497 76.589 270.497 78.8286C270.497 81.0682 272.313 82.8838 274.552 82.8838Z" fill="#292476"/>
<path d="M179.929 96.3994C182.169 96.3994 183.984 94.5838 183.984 92.3442C183.984 90.1046 182.169 88.2891 179.929 88.2891C177.69 88.2891 175.874 90.1046 175.874 92.3442C175.874 94.5838 177.69 96.3994 179.929 96.3994Z" fill="#292476"/>
<path d="M247.512 96.3994C249.752 96.3994 251.567 94.5838 251.567 92.3442C251.567 90.1046 249.752 88.2891 247.512 88.2891C245.273 88.2891 243.457 90.1046 243.457 92.3442C243.457 94.5838 245.273 96.3994 247.512 96.3994Z" fill="#292476"/>
<path d="M261.037 96.3994C263.276 96.3994 265.092 94.5838 265.092 92.3442C265.092 90.1046 263.276 88.2891 261.037 88.2891C258.797 88.2891 256.981 90.1046 256.981 92.3442C256.981 94.5838 258.797 96.3994 261.037 96.3994Z" fill="#292476"/>
<path d="M274.552 96.3994C276.792 96.3994 278.607 94.5838 278.607 92.3442C278.607 90.1046 276.792 88.2891 274.552 88.2891C272.313 88.2891 270.497 90.1046 270.497 92.3442C270.497 94.5838 272.313 96.3994 274.552 96.3994Z" fill="#292476"/>
<path d="M288.069 96.3994C290.308 96.3994 292.124 94.5838 292.124 92.3442C292.124 90.1046 290.308 88.2891 288.069 88.2891C285.829 88.2891 284.014 90.1046 284.014 92.3442C284.014 94.5838 285.829 96.3994 288.069 96.3994Z" fill="#292476"/>
<path d="M193.448 109.919C195.687 109.919 197.503 108.103 197.503 105.864C197.503 103.624 195.687 101.809 193.448 101.809C191.208 101.809 189.393 103.624 189.393 105.864C189.393 108.103 191.208 109.919 193.448 109.919Z" fill="#292476"/>
<path d="M206.964 109.919C209.204 109.919 211.02 108.103 211.02 105.864C211.02 103.624 209.204 101.809 206.964 101.809C204.725 101.809 202.909 103.624 202.909 105.864C202.909 108.103 204.725 109.919 206.964 109.919Z" fill="#292476"/>
<path d="M220.482 109.919C222.722 109.919 224.537 108.103 224.537 105.864C224.537 103.624 222.722 101.809 220.482 101.809C218.242 101.809 216.427 103.624 216.427 105.864C216.427 108.103 218.242 109.919 220.482 109.919Z" fill="#292476"/>
<path d="M274.552 109.919C276.792 109.919 278.607 108.103 278.607 105.864C278.607 103.624 276.792 101.809 274.552 101.809C272.313 101.809 270.497 103.624 270.497 105.864C270.497 108.103 272.313 109.919 274.552 109.919Z" fill="#292476"/>
<path d="M288.069 109.917C290.308 109.917 292.124 108.101 292.124 105.862C292.124 103.622 290.308 101.807 288.069 101.807C285.829 101.807 284.014 103.622 284.014 105.862C284.014 108.101 285.829 109.917 288.069 109.917Z" fill="#292476"/>
<path d="M233.996 123.433C236.235 123.433 238.051 121.617 238.051 119.377C238.051 117.138 236.235 115.322 233.996 115.322C231.756 115.322 229.94 117.138 229.94 119.377C229.94 121.617 231.756 123.433 233.996 123.433Z" fill="#292476"/>
<path d="M247.512 123.433C249.752 123.433 251.567 121.617 251.567 119.377C251.567 117.138 249.752 115.322 247.512 115.322C245.273 115.322 243.457 117.138 243.457 119.377C243.457 121.617 245.273 123.433 247.512 123.433Z" fill="#292476"/>
<path d="M179.929 136.95C182.169 136.95 183.984 135.135 183.984 132.895C183.984 130.655 182.169 128.84 179.929 128.84C177.69 128.84 175.874 130.655 175.874 132.895C175.874 135.135 177.69 136.95 179.929 136.95Z" fill="#292476"/>
<path d="M206.964 136.952C209.204 136.952 211.02 135.137 211.02 132.897C211.02 130.657 209.204 128.842 206.964 128.842C204.725 128.842 202.909 130.657 202.909 132.897C202.909 135.137 204.725 136.952 206.964 136.952Z" fill="#292476"/>
<path d="M233.996 136.952C236.235 136.952 238.051 135.137 238.051 132.897C238.051 130.657 236.235 128.842 233.996 128.842C231.756 128.842 229.94 130.657 229.94 132.897C229.94 135.137 231.756 136.952 233.996 136.952Z" fill="#292476"/>
<path d="M261.037 136.952C263.276 136.952 265.092 135.137 265.092 132.897C265.092 130.657 263.276 128.842 261.037 128.842C258.797 128.842 256.981 130.657 256.981 132.897C256.981 135.137 258.797 136.952 261.037 136.952Z" fill="#292476"/>
<path d="M288.069 136.952C290.308 136.952 292.124 135.137 292.124 132.897C292.124 130.657 290.308 128.842 288.069 128.842C285.829 128.842 284.014 130.657 284.014 132.897C284.014 135.137 285.829 136.952 288.069 136.952Z" fill="#292476"/>
<path d="M179.929 150.468C182.169 150.468 183.984 148.652 183.984 146.413C183.984 144.173 182.169 142.357 179.929 142.357C177.69 142.357 175.874 144.173 175.874 146.413C175.874 148.652 177.69 150.468 179.929 150.468Z" fill="#292476"/>
<path d="M193.448 150.467C195.687 150.467 197.503 148.651 197.503 146.412C197.503 144.172 195.687 142.356 193.448 142.356C191.208 142.356 189.393 144.172 189.393 146.412C189.393 148.651 191.208 150.467 193.448 150.467Z" fill="#292476"/>
<path d="M206.964 150.467C209.204 150.467 211.02 148.651 211.02 146.412C211.02 144.172 209.204 142.356 206.964 142.356C204.725 142.356 202.909 144.172 202.909 146.412C202.909 148.651 204.725 150.467 206.964 150.467Z" fill="#292476"/>
<path d="M233.996 150.467C236.235 150.467 238.051 148.651 238.051 146.412C238.051 144.172 236.235 142.356 233.996 142.356C231.756 142.356 229.94 144.172 229.94 146.412C229.94 148.651 231.756 150.467 233.996 150.467Z" fill="#292476"/>
<path d="M261.037 150.467C263.276 150.467 265.092 148.651 265.092 146.412C265.092 144.172 263.276 142.356 261.037 142.356C258.797 142.356 256.981 144.172 256.981 146.412C256.981 148.651 258.797 150.467 261.037 150.467Z" fill="#292476"/>
<path d="M274.552 150.467C276.792 150.467 278.607 148.651 278.607 146.412C278.607 144.172 276.792 142.356 274.552 142.356C272.313 142.356 270.497 144.172 270.497 146.412C270.497 148.651 272.313 150.467 274.552 150.467Z" fill="#292476"/>
<path d="M71.7935 163.985C74.0331 163.985 75.8486 162.17 75.8486 159.93C75.8486 157.691 74.0331 155.875 71.7935 155.875C69.5538 155.875 67.7383 157.691 67.7383 159.93C67.7383 162.17 69.5538 163.985 71.7935 163.985Z" fill="#292476"/>
<path d="M98.8257 163.985C101.065 163.985 102.881 162.17 102.881 159.93C102.881 157.691 101.065 155.875 98.8257 155.875C96.5861 155.875 94.7705 157.691 94.7705 159.93C94.7705 162.17 96.5861 163.985 98.8257 163.985Z" fill="#292476"/>
<path d="M112.35 163.986C114.59 163.986 116.405 162.171 116.405 159.931C116.405 157.692 114.59 155.876 112.35 155.876C110.11 155.876 108.295 157.692 108.295 159.931C108.295 162.171 110.11 163.986 112.35 163.986Z" fill="#292476"/>
<path d="M139.377 163.986C141.617 163.986 143.433 162.171 143.433 159.931C143.433 157.692 141.617 155.876 139.377 155.876C137.138 155.876 135.322 157.692 135.322 159.931C135.322 162.171 137.138 163.986 139.377 163.986Z" fill="#292476"/>
<path d="M152.9 163.985C155.14 163.985 156.955 162.17 156.955 159.93C156.955 157.691 155.14 155.875 152.9 155.875C150.66 155.875 148.845 157.691 148.845 159.93C148.845 162.17 150.66 163.985 152.9 163.985Z" fill="#292476"/>
<path d="M166.408 163.986C168.647 163.986 170.463 162.171 170.463 159.931C170.463 157.692 168.647 155.876 166.408 155.876C164.168 155.876 162.353 157.692 162.353 159.931C162.353 162.171 164.168 163.986 166.408 163.986Z" fill="#292476"/>
<path d="M315.109 163.986C317.348 163.986 319.164 162.171 319.164 159.931C319.164 157.692 317.348 155.876 315.109 155.876C312.869 155.876 311.054 157.692 311.054 159.931C311.054 162.171 312.869 163.986 315.109 163.986Z" fill="#292476"/>
<path d="M355.657 163.985C357.896 163.985 359.712 162.17 359.712 159.93C359.712 157.691 357.896 155.875 355.657 155.875C353.417 155.875 351.602 157.691 351.602 159.93C351.602 162.17 353.417 163.985 355.657 163.985Z" fill="#292476"/>
<path d="M382.688 163.985C384.928 163.985 386.743 162.17 386.743 159.93C386.743 157.691 384.928 155.875 382.688 155.875C380.448 155.875 378.633 157.691 378.633 159.93C378.633 162.17 380.448 163.985 382.688 163.985Z" fill="#292476"/>
<path d="M396.206 163.986C398.445 163.986 400.261 162.171 400.261 159.931C400.261 157.692 398.445 155.876 396.206 155.876C393.966 155.876 392.15 157.692 392.15 159.931C392.15 162.171 393.966 163.986 396.206 163.986Z" fill="#292476"/>
<path d="M98.8257 177.502C101.065 177.502 102.881 175.686 102.881 173.447C102.881 171.207 101.065 169.392 98.8257 169.392C96.5861 169.392 94.7705 171.207 94.7705 173.447C94.7705 175.686 96.5861 177.502 98.8257 177.502Z" fill="#292476"/>
<path d="M112.35 177.503C114.59 177.503 116.405 175.687 116.405 173.448C116.405 171.208 114.59 169.393 112.35 169.393C110.11 169.393 108.295 171.208 108.295 173.448C108.295 175.687 110.11 177.503 112.35 177.503Z" fill="#292476"/>
<path d="M125.859 177.502C128.098 177.502 129.914 175.686 129.914 173.447C129.914 171.207 128.098 169.392 125.859 169.392C123.619 169.392 121.804 171.207 121.804 173.447C121.804 175.686 123.619 177.502 125.859 177.502Z" fill="#292476"/>
<path d="M220.481 177.503C222.721 177.503 224.536 175.687 224.536 173.448C224.536 171.208 222.721 169.393 220.481 169.393C218.241 169.393 216.426 171.208 216.426 173.448C216.426 175.687 218.241 177.503 220.481 177.503Z" fill="#292476"/>
<path d="M247.512 177.503C249.752 177.503 251.567 175.687 251.567 173.448C251.567 171.208 249.752 169.393 247.512 169.393C245.273 169.393 243.457 171.208 243.457 173.448C243.457 175.687 245.273 177.503 247.512 177.503Z" fill="#292476"/>
<path d="M288.069 177.502C290.308 177.502 292.124 175.687 292.124 173.447C292.124 171.208 290.308 169.392 288.069 169.392C285.829 169.392 284.014 171.208 284.014 173.447C284.014 175.687 285.829 177.502 288.069 177.502Z" fill="#292476"/>
<path d="M301.585 177.503C303.825 177.503 305.641 175.687 305.641 173.448C305.641 171.208 303.825 169.393 301.585 169.393C299.346 169.393 297.53 171.208 297.53 173.448C297.53 175.687 299.346 177.503 301.585 177.503Z" fill="#292476"/>
<path d="M328.624 177.502C330.863 177.502 332.679 175.687 332.679 173.447C332.679 171.208 330.863 169.392 328.624 169.392C326.384 169.392 324.568 171.208 324.568 173.447C324.568 175.687 326.384 177.502 328.624 177.502Z" fill="#292476"/>
<path d="M382.688 177.502C384.928 177.502 386.743 175.686 386.743 173.447C386.743 171.207 384.928 169.392 382.688 169.392C380.448 169.392 378.633 171.207 378.633 173.447C378.633 175.686 380.448 177.502 382.688 177.502Z" fill="#292476"/>
<path d="M71.7935 191.019C74.0331 191.019 75.8486 189.203 75.8486 186.963C75.8486 184.724 74.0331 182.908 71.7935 182.908C69.5538 182.908 67.7383 184.724 67.7383 186.963C67.7383 189.203 69.5538 191.019 71.7935 191.019Z" fill="#292476"/>
<path d="M85.3159 191.021C87.5555 191.021 89.3711 189.206 89.3711 186.966C89.3711 184.727 87.5555 182.911 85.3159 182.911C83.0763 182.911 81.2607 184.727 81.2607 186.966C81.2607 189.206 83.0763 191.021 85.3159 191.021Z" fill="#292476"/>
<path d="M98.8257 191.021C101.065 191.021 102.881 189.205 102.881 186.965C102.881 184.726 101.065 182.91 98.8257 182.91C96.5861 182.91 94.7705 184.726 94.7705 186.965C94.7705 189.205 96.5861 191.021 98.8257 191.021Z" fill="#292476"/>
<path d="M139.377 191.021C141.617 191.021 143.433 189.206 143.433 186.966C143.433 184.727 141.617 182.911 139.377 182.911C137.138 182.911 135.322 184.727 135.322 186.966C135.322 189.206 137.138 191.021 139.377 191.021Z" fill="#292476"/>
<path d="M152.9 191.019C155.14 191.019 156.955 189.203 156.955 186.963C156.955 184.724 155.14 182.908 152.9 182.908C150.66 182.908 148.845 184.724 148.845 186.963C148.845 189.203 150.66 191.019 152.9 191.019Z" fill="#292476"/>
<path d="M179.929 191.019C182.169 191.019 183.984 189.203 183.984 186.963C183.984 184.724 182.169 182.908 179.929 182.908C177.69 182.908 175.874 184.724 175.874 186.963C175.874 189.203 177.69 191.019 179.929 191.019Z" fill="#292476"/>
<path d="M206.964 191.021C209.204 191.021 211.02 189.205 211.02 186.965C211.02 184.726 209.204 182.91 206.964 182.91C204.725 182.91 202.909 184.726 202.909 186.965C202.909 189.205 204.725 191.021 206.964 191.021Z" fill="#292476"/>
<path d="M220.481 191.021C222.721 191.021 224.536 189.206 224.536 186.966C224.536 184.727 222.721 182.911 220.481 182.911C218.241 182.911 216.426 184.727 216.426 186.966C216.426 189.206 218.241 191.021 220.481 191.021Z" fill="#292476"/>
<path d="M233.996 191.021C236.235 191.021 238.051 189.205 238.051 186.965C238.051 184.726 236.235 182.91 233.996 182.91C231.756 182.91 229.94 184.726 229.94 186.965C229.94 189.205 231.756 191.021 233.996 191.021Z" fill="#292476"/>
<path d="M247.512 191.021C249.752 191.021 251.567 189.206 251.567 186.966C251.567 184.727 249.752 182.911 247.512 182.911C245.273 182.911 243.457 184.727 243.457 186.966C243.457 189.206 245.273 191.021 247.512 191.021Z" fill="#292476"/>
<path d="M288.069 191.019C290.308 191.019 292.124 189.203 292.124 186.963C292.124 184.724 290.308 182.908 288.069 182.908C285.829 182.908 284.014 184.724 284.014 186.963C284.014 189.203 285.829 191.019 288.069 191.019Z" fill="#292476"/>
<path d="M301.585 191.021C303.825 191.021 305.641 189.205 305.641 186.965C305.641 184.726 303.825 182.91 301.585 182.91C299.346 182.91 297.53 184.726 297.53 186.965C297.53 189.205 299.346 191.021 301.585 191.021Z" fill="#292476"/>
<path d="M328.624 191.021C330.863 191.021 332.679 189.205 332.679 186.965C332.679 184.726 330.863 182.91 328.624 182.91C326.384 182.91 324.568 184.726 324.568 186.965C324.568 189.205 326.384 191.021 328.624 191.021Z" fill="#292476"/>
<path d="M342.137 191.021C344.377 191.021 346.192 189.205 346.192 186.965C346.192 184.726 344.377 182.91 342.137 182.91C339.898 182.91 338.082 184.726 338.082 186.965C338.082 189.205 339.898 191.021 342.137 191.021Z" fill="#292476"/>
<path d="M125.859 204.535C128.098 204.535 129.914 202.72 129.914 200.48C129.914 198.24 128.098 196.425 125.859 196.425C123.619 196.425 121.804 198.24 121.804 200.48C121.804 202.72 123.619 204.535 125.859 204.535Z" fill="#292476"/>
<path d="M166.408 204.539C168.647 204.539 170.463 202.723 170.463 200.483C170.463 198.244 168.647 196.428 166.408 196.428C164.168 196.428 162.353 198.244 162.353 200.483C162.353 202.723 164.168 204.539 166.408 204.539Z" fill="#292476"/>
<path d="M193.448 204.538C195.687 204.538 197.503 202.723 197.503 200.483C197.503 198.243 195.687 196.428 193.448 196.428C191.208 196.428 189.393 198.243 189.393 200.483C189.393 202.723 191.208 204.538 193.448 204.538Z" fill="#292476"/>
<path d="M206.964 204.535C209.204 204.535 211.02 202.72 211.02 200.48C211.02 198.24 209.204 196.425 206.964 196.425C204.725 196.425 202.909 198.24 202.909 200.48C202.909 202.72 204.725 204.535 206.964 204.535Z" fill="#292476"/>
<path d="M233.995 204.535C236.234 204.535 238.05 202.72 238.05 200.48C238.05 198.24 236.234 196.425 233.995 196.425C231.755 196.425 229.939 198.24 229.939 200.48C229.939 202.72 231.755 204.535 233.995 204.535Z" fill="#292476"/>
<path d="M247.512 204.538C249.752 204.538 251.567 202.723 251.567 200.483C251.567 198.243 249.752 196.428 247.512 196.428C245.273 196.428 243.457 198.243 243.457 200.483C243.457 202.723 245.273 204.538 247.512 204.538Z" fill="#292476"/>
<path d="M288.069 204.537C290.308 204.537 292.124 202.721 292.124 200.481C292.124 198.242 290.308 196.426 288.069 196.426C285.829 196.426 284.014 198.242 284.014 200.481C284.014 202.721 285.829 204.537 288.069 204.537Z" fill="#292476"/>
<path d="M328.624 204.535C330.863 204.535 332.679 202.72 332.679 200.48C332.679 198.24 330.863 196.425 328.624 196.425C326.384 196.425 324.568 198.24 324.568 200.48C324.568 202.72 326.384 204.535 328.624 204.535Z" fill="#292476"/>
<path d="M355.656 204.535C357.895 204.535 359.711 202.72 359.711 200.48C359.711 198.24 357.895 196.425 355.656 196.425C353.416 196.425 351.601 198.24 351.601 200.48C351.601 202.72 353.416 204.535 355.656 204.535Z" fill="#292476"/>
<path d="M369.171 204.538C371.411 204.538 373.227 202.723 373.227 200.483C373.227 198.243 371.411 196.428 369.171 196.428C366.932 196.428 365.116 198.243 365.116 200.483C365.116 202.723 366.932 204.538 369.171 204.538Z" fill="#292476"/>
<path d="M152.9 218.054C155.14 218.054 156.955 216.238 156.955 213.999C156.955 211.759 155.14 209.943 152.9 209.943C150.66 209.943 148.845 211.759 148.845 213.999C148.845 216.238 150.66 218.054 152.9 218.054Z" fill="#292476"/>
<path d="M193.448 218.055C195.687 218.055 197.503 216.239 197.503 214C197.503 211.76 195.687 209.944 193.448 209.944C191.208 209.944 189.393 211.76 189.393 214C189.393 216.239 191.208 218.055 193.448 218.055Z" fill="#292476"/>
<path d="M206.964 218.054C209.204 218.054 211.02 216.238 211.02 213.999C211.02 211.759 209.204 209.943 206.964 209.943C204.725 209.943 202.909 211.759 202.909 213.999C202.909 216.238 204.725 218.054 206.964 218.054Z" fill="#292476"/>
<path d="M247.511 218.055C249.751 218.055 251.566 216.239 251.566 214C251.566 211.76 249.751 209.944 247.511 209.944C245.272 209.944 243.456 211.76 243.456 214C243.456 216.239 245.272 218.055 247.511 218.055Z" fill="#292476"/>
<path d="M261.037 218.054C263.276 218.054 265.092 216.238 265.092 213.999C265.092 211.759 263.276 209.943 261.037 209.943C258.797 209.943 256.981 211.759 256.981 213.999C256.981 216.238 258.797 218.054 261.037 218.054Z" fill="#292476"/>
<path d="M301.584 218.055C303.824 218.055 305.64 216.239 305.64 214C305.64 211.76 303.824 209.944 301.584 209.944C299.345 209.944 297.529 211.76 297.529 214C297.529 216.239 299.345 218.055 301.584 218.055Z" fill="#292476"/>
<path d="M315.109 218.055C317.348 218.055 319.164 216.239 319.164 214C319.164 211.76 317.348 209.944 315.109 209.944C312.869 209.944 311.054 211.76 311.054 214C311.054 216.239 312.869 218.055 315.109 218.055Z" fill="#292476"/>
<path d="M342.137 218.055C344.377 218.055 346.192 216.239 346.192 214C346.192 211.76 344.377 209.944 342.137 209.944C339.898 209.944 338.082 211.76 338.082 214C338.082 216.239 339.898 218.055 342.137 218.055Z" fill="#292476"/>
<path d="M369.171 218.055C371.411 218.055 373.227 216.239 373.227 214C373.227 211.76 371.411 209.944 369.171 209.944C366.932 209.944 365.116 211.76 365.116 214C365.116 216.239 366.932 218.055 369.171 218.055Z" fill="#292476"/>
<path d="M382.688 218.053C384.928 218.053 386.743 216.237 386.743 213.998C386.743 211.758 384.928 209.942 382.688 209.942C380.448 209.942 378.633 211.758 378.633 213.998C378.633 216.237 380.448 218.053 382.688 218.053Z" fill="#292476"/>
<path d="M396.206 218.055C398.445 218.055 400.261 216.239 400.261 214C400.261 211.76 398.445 209.944 396.206 209.944C393.966 209.944 392.15 211.76 392.15 214C392.15 216.239 393.966 218.055 396.206 218.055Z" fill="#292476"/>
<path d="M98.8247 231.569C101.064 231.569 102.88 229.754 102.88 227.514C102.88 225.275 101.064 223.459 98.8247 223.459C96.5851 223.459 94.7695 225.275 94.7695 227.514C94.7695 229.754 96.5851 231.569 98.8247 231.569Z" fill="#292476"/>
<path d="M139.377 231.571C141.617 231.571 143.433 229.756 143.433 227.516C143.433 225.276 141.617 223.461 139.377 223.461C137.138 223.461 135.322 225.276 135.322 227.516C135.322 229.756 137.138 231.571 139.377 231.571Z" fill="#292476"/>
<path d="M166.408 231.571C168.647 231.571 170.463 229.756 170.463 227.516C170.463 225.276 168.647 223.461 166.408 223.461C164.168 223.461 162.353 225.276 162.353 227.516C162.353 229.756 164.168 231.571 166.408 231.571Z" fill="#292476"/>
<path d="M179.929 231.569C182.169 231.569 183.984 229.754 183.984 227.514C183.984 225.275 182.169 223.459 179.929 223.459C177.69 223.459 175.874 225.275 175.874 227.514C175.874 229.754 177.69 231.569 179.929 231.569Z" fill="#292476"/>
<path d="M220.482 231.571C222.722 231.571 224.537 229.756 224.537 227.516C224.537 225.276 222.722 223.461 220.482 223.461C218.242 223.461 216.427 225.276 216.427 227.516C216.427 229.756 218.242 231.571 220.482 231.571Z" fill="#292476"/>
<path d="M247.511 231.571C249.751 231.571 251.566 229.756 251.566 227.516C251.566 225.276 249.751 223.461 247.511 223.461C245.272 223.461 243.456 225.276 243.456 227.516C243.456 229.756 245.272 231.571 247.511 231.571Z" fill="#292476"/>
<path d="M261.037 231.569C263.276 231.569 265.092 229.754 265.092 227.514C265.092 225.275 263.276 223.459 261.037 223.459C258.797 223.459 256.981 225.275 256.981 227.514C256.981 229.754 258.797 231.569 261.037 231.569Z" fill="#292476"/>
<path d="M274.552 231.571C276.792 231.571 278.607 229.756 278.607 227.516C278.607 225.276 276.792 223.461 274.552 223.461C272.313 223.461 270.497 225.276 270.497 227.516C270.497 229.756 272.313 231.571 274.552 231.571Z" fill="#292476"/>
<path d="M288.069 231.569C290.308 231.569 292.124 229.754 292.124 227.514C292.124 225.275 290.308 223.459 288.069 223.459C285.829 223.459 284.014 225.275 284.014 227.514C284.014 229.754 285.829 231.569 288.069 231.569Z" fill="#292476"/>
<path d="M315.109 231.571C317.348 231.571 319.164 229.756 319.164 227.516C319.164 225.276 317.348 223.461 315.109 223.461C312.869 223.461 311.054 225.276 311.054 227.516C311.054 229.756 312.869 231.571 315.109 231.571Z" fill="#292476"/>
<path d="M328.624 231.569C330.863 231.569 332.679 229.754 332.679 227.514C332.679 225.275 330.863 223.459 328.624 223.459C326.384 223.459 324.568 225.275 324.568 227.514C324.568 229.754 326.384 231.569 328.624 231.569Z" fill="#292476"/>
<path d="M342.137 231.572C344.377 231.572 346.192 229.757 346.192 227.517C346.192 225.277 344.377 223.462 342.137 223.462C339.898 223.462 338.082 225.277 338.082 227.517C338.082 229.757 339.898 231.572 342.137 231.572Z" fill="#292476"/>
<path d="M396.206 231.573C398.445 231.573 400.261 229.757 400.261 227.518C400.261 225.278 398.445 223.462 396.206 223.462C393.966 223.462 392.15 225.278 392.15 227.518C392.15 229.757 393.966 231.573 396.206 231.573Z" fill="#292476"/>
<path d="M85.3149 245.09C87.5545 245.09 89.3701 243.274 89.3701 241.035C89.3701 238.795 87.5545 236.979 85.3149 236.979C83.0753 236.979 81.2598 238.795 81.2598 241.035C81.2598 243.274 83.0753 245.09 85.3149 245.09Z" fill="#292476"/>
<path d="M98.8247 245.09C101.064 245.09 102.88 243.274 102.88 241.035C102.88 238.795 101.064 236.979 98.8247 236.979C96.5851 236.979 94.7695 238.795 94.7695 241.035C94.7695 243.274 96.5851 245.09 98.8247 245.09Z" fill="#292476"/>
<path d="M112.35 245.09C114.59 245.09 116.405 243.274 116.405 241.035C116.405 238.795 114.59 236.979 112.35 236.979C110.11 236.979 108.295 238.795 108.295 241.035C108.295 243.274 110.11 245.09 112.35 245.09Z" fill="#292476"/>
<path d="M152.9 245.09C155.14 245.09 156.955 243.274 156.955 241.035C156.955 238.795 155.14 236.979 152.9 236.979C150.66 236.979 148.845 238.795 148.845 241.035C148.845 243.274 150.66 245.09 152.9 245.09Z" fill="#292476"/>
<path d="M233.995 245.09C236.234 245.09 238.05 243.274 238.05 241.035C238.05 238.795 236.234 236.979 233.995 236.979C231.755 236.979 229.939 238.795 229.939 241.035C229.939 243.274 231.755 245.09 233.995 245.09Z" fill="#292476"/>
<path d="M261.037 245.09C263.276 245.09 265.092 243.274 265.092 241.035C265.092 238.795 263.276 236.979 261.037 236.979C258.797 236.979 256.981 238.795 256.981 241.035C256.981 243.274 258.797 245.09 261.037 245.09Z" fill="#292476"/>
<path d="M288.069 245.09C290.308 245.09 292.124 243.274 292.124 241.035C292.124 238.795 290.308 236.979 288.069 236.979C285.829 236.979 284.014 238.795 284.014 241.035C284.014 243.274 285.829 245.09 288.069 245.09Z" fill="#292476"/>
<path d="M342.137 245.089C344.377 245.089 346.192 243.273 346.192 241.034C346.192 238.794 344.377 236.979 342.137 236.979C339.898 236.979 338.082 238.794 338.082 241.034C338.082 243.273 339.898 245.089 342.137 245.089Z" fill="#292476"/>
<path d="M369.17 245.09C371.41 245.09 373.226 243.274 373.226 241.035C373.226 238.795 371.41 236.979 369.17 236.979C366.931 236.979 365.115 238.795 365.115 241.035C365.115 243.274 366.931 245.09 369.17 245.09Z" fill="#292476"/>
<path d="M382.688 245.09C384.928 245.09 386.743 243.274 386.743 241.035C386.743 238.795 384.928 236.979 382.688 236.979C380.448 236.979 378.633 238.795 378.633 241.035C378.633 243.274 380.448 245.09 382.688 245.09Z" fill="#292476"/>
<path d="M71.7954 258.606C74.035 258.606 75.8506 256.791 75.8506 254.551C75.8506 252.312 74.035 250.496 71.7954 250.496C69.5558 250.496 67.7402 252.312 67.7402 254.551C67.7402 256.791 69.5558 258.606 71.7954 258.606Z" fill="#292476"/>
<path d="M98.8247 258.606C101.064 258.606 102.88 256.791 102.88 254.551C102.88 252.312 101.064 250.496 98.8247 250.496C96.5851 250.496 94.7695 252.312 94.7695 254.551C94.7695 256.791 96.5851 258.606 98.8247 258.606Z" fill="#292476"/>
<path d="M139.377 258.607C141.617 258.607 143.433 256.792 143.433 254.552C143.433 252.313 141.617 250.497 139.377 250.497C137.138 250.497 135.322 252.313 135.322 254.552C135.322 256.792 137.138 258.607 139.377 258.607Z" fill="#292476"/>
<path d="M166.408 258.607C168.647 258.607 170.463 256.792 170.463 254.552C170.463 252.313 168.647 250.497 166.408 250.497C164.168 250.497 162.353 252.313 162.353 254.552C162.353 256.792 164.168 258.607 166.408 258.607Z" fill="#292476"/>
<path d="M193.448 258.606C195.687 258.606 197.503 256.791 197.503 254.551C197.503 252.312 195.687 250.496 193.448 250.496C191.208 250.496 189.393 252.312 189.393 254.551C189.393 256.791 191.208 258.606 193.448 258.606Z" fill="#292476"/>
<path d="M233.995 258.606C236.234 258.606 238.05 256.791 238.05 254.551C238.05 252.312 236.234 250.496 233.995 250.496C231.755 250.496 229.939 252.312 229.939 254.551C229.939 256.791 231.755 258.606 233.995 258.606Z" fill="#292476"/>
<path d="M261.037 258.606C263.276 258.606 265.092 256.791 265.092 254.551C265.092 252.312 263.276 250.496 261.037 250.496C258.797 250.496 256.981 252.312 256.981 254.551C256.981 256.791 258.797 258.606 261.037 258.606Z" fill="#292476"/>
<path d="M288.069 258.607C290.308 258.607 292.124 256.792 292.124 254.552C292.124 252.313 290.308 250.497 288.069 250.497C285.829 250.497 284.014 252.313 284.014 254.552C284.014 256.792 285.829 258.607 288.069 258.607Z" fill="#292476"/>
<path d="M315.109 258.607C317.348 258.607 319.164 256.792 319.164 254.552C319.164 252.313 317.348 250.497 315.109 250.497C312.869 250.497 311.054 252.313 311.054 254.552C311.054 256.792 312.869 258.607 315.109 258.607Z" fill="#292476"/>
<path d="M328.624 258.606C330.863 258.606 332.679 256.791 332.679 254.551C332.679 252.312 330.863 250.496 328.624 250.496C326.384 250.496 324.568 252.312 324.568 254.551C324.568 256.791 326.384 258.606 328.624 258.606Z" fill="#292476"/>
<path d="M342.137 258.607C344.377 258.607 346.192 256.792 346.192 254.552C346.192 252.313 344.377 250.497 342.137 250.497C339.898 250.497 338.082 252.313 338.082 254.552C338.082 256.792 339.898 258.607 342.137 258.607Z" fill="#292476"/>
<path d="M396.206 258.606C398.445 258.606 400.261 256.791 400.261 254.551C400.261 252.312 398.445 250.496 396.206 250.496C393.966 250.496 392.15 252.312 392.15 254.551C392.15 256.791 393.966 258.606 396.206 258.606Z" fill="#292476"/>
<path d="M112.35 272.125C114.59 272.125 116.405 270.309 116.405 268.07C116.405 265.83 114.59 264.015 112.35 264.015C110.11 264.015 108.295 265.83 108.295 268.07C108.295 270.309 110.11 272.125 112.35 272.125Z" fill="#292476"/>
<path d="M139.377 272.125C141.617 272.125 143.433 270.309 143.433 268.07C143.433 265.83 141.617 264.015 139.377 264.015C137.138 264.015 135.322 265.83 135.322 268.07C135.322 270.309 137.138 272.125 139.377 272.125Z" fill="#292476"/>
<path d="M152.9 272.124C155.14 272.124 156.955 270.308 156.955 268.069C156.955 265.829 155.14 264.014 152.9 264.014C150.66 264.014 148.845 265.829 148.845 268.069C148.845 270.308 150.66 272.124 152.9 272.124Z" fill="#292476"/>
<path d="M179.929 272.124C182.169 272.124 183.984 270.308 183.984 268.069C183.984 265.829 182.169 264.014 179.929 264.014C177.69 264.014 175.874 265.829 175.874 268.069C175.874 270.308 177.69 272.124 179.929 272.124Z" fill="#292476"/>
<path d="M220.482 272.125C222.722 272.125 224.537 270.309 224.537 268.07C224.537 265.83 222.722 264.015 220.482 264.015C218.242 264.015 216.427 265.83 216.427 268.07C216.427 270.309 218.242 272.125 220.482 272.125Z" fill="#292476"/>
<path d="M247.511 272.125C249.751 272.125 251.566 270.309 251.566 268.07C251.566 265.83 249.751 264.015 247.511 264.015C245.272 264.015 243.456 265.83 243.456 268.07C243.456 270.309 245.272 272.125 247.511 272.125Z" fill="#292476"/>
<path d="M274.552 272.125C276.792 272.125 278.607 270.309 278.607 268.07C278.607 265.83 276.792 264.015 274.552 264.015C272.313 264.015 270.497 265.83 270.497 268.07C270.497 270.309 272.313 272.125 274.552 272.125Z" fill="#292476"/>
<path d="M288.069 272.124C290.308 272.124 292.124 270.308 292.124 268.069C292.124 265.829 290.308 264.014 288.069 264.014C285.829 264.014 284.014 265.829 284.014 268.069C284.014 270.308 285.829 272.124 288.069 272.124Z" fill="#292476"/>
<path d="M301.584 272.126C303.824 272.126 305.64 270.31 305.64 268.071C305.64 265.831 303.824 264.016 301.584 264.016C299.345 264.016 297.529 265.831 297.529 268.071C297.529 270.31 299.345 272.126 301.584 272.126Z" fill="#292476"/>
<path d="M315.109 272.125C317.348 272.125 319.164 270.309 319.164 268.07C319.164 265.83 317.348 264.015 315.109 264.015C312.869 264.015 311.054 265.83 311.054 268.07C311.054 270.309 312.869 272.125 315.109 272.125Z" fill="#292476"/>
<path d="M328.624 272.124C330.863 272.124 332.679 270.308 332.679 268.069C332.679 265.829 330.863 264.014 328.624 264.014C326.384 264.014 324.568 265.829 324.568 268.069C324.568 270.308 326.384 272.124 328.624 272.124Z" fill="#292476"/>
<path d="M342.137 272.125C344.377 272.125 346.192 270.309 346.192 268.07C346.192 265.83 344.377 264.015 342.137 264.015C339.898 264.015 338.082 265.83 338.082 268.07C338.082 270.309 339.898 272.125 342.137 272.125Z" fill="#292476"/>
<path d="M355.656 272.124C357.895 272.124 359.711 270.308 359.711 268.069C359.711 265.829 357.895 264.014 355.656 264.014C353.416 264.014 351.601 265.829 351.601 268.069C351.601 270.308 353.416 272.124 355.656 272.124Z" fill="#292476"/>
<path d="M369.17 272.125C371.41 272.125 373.226 270.309 373.226 268.07C373.226 265.83 371.41 264.015 369.17 264.015C366.931 264.015 365.115 265.83 365.115 268.07C365.115 270.309 366.931 272.125 369.17 272.125Z" fill="#292476"/>
<path d="M382.688 272.124C384.928 272.124 386.743 270.308 386.743 268.069C386.743 265.829 384.928 264.014 382.688 264.014C380.448 264.014 378.633 265.829 378.633 268.069C378.633 270.308 380.448 272.124 382.688 272.124Z" fill="#292476"/>
<path d="M396.206 272.125C398.445 272.125 400.261 270.309 400.261 268.07C400.261 265.83 398.445 264.015 396.206 264.015C393.966 264.015 392.15 265.83 392.15 268.07C392.15 270.309 393.966 272.125 396.206 272.125Z" fill="#292476"/>
<path d="M179.929 285.641C182.169 285.641 183.984 283.825 183.984 281.585C183.984 279.346 182.169 277.53 179.929 277.53C177.69 277.53 175.874 279.346 175.874 281.585C175.874 283.825 177.69 285.641 179.929 285.641Z" fill="#292476"/>
<path d="M206.964 285.643C209.204 285.643 211.02 283.827 211.02 281.587C211.02 279.348 209.204 277.532 206.964 277.532C204.725 277.532 202.909 279.348 202.909 281.587C202.909 283.827 204.725 285.643 206.964 285.643Z" fill="#292476"/>
<path d="M233.995 285.643C236.234 285.643 238.05 283.827 238.05 281.587C238.05 279.348 236.234 277.532 233.995 277.532C231.755 277.532 229.939 279.348 229.939 281.587C229.939 283.827 231.755 285.643 233.995 285.643Z" fill="#292476"/>
<path d="M247.511 285.643C249.751 285.643 251.566 283.827 251.566 281.587C251.566 279.348 249.751 277.532 247.511 277.532C245.272 277.532 243.456 279.348 243.456 281.587C243.456 283.827 245.272 285.643 247.511 285.643Z" fill="#292476"/>
<path d="M261.037 285.643C263.276 285.643 265.092 283.827 265.092 281.587C265.092 279.348 263.276 277.532 261.037 277.532C258.797 277.532 256.981 279.348 256.981 281.587C256.981 283.827 258.797 285.643 261.037 285.643Z" fill="#292476"/>
<path d="M288.069 285.641C290.308 285.641 292.124 283.825 292.124 281.585C292.124 279.346 290.308 277.53 288.069 277.53C285.829 277.53 284.014 279.346 284.014 281.585C284.014 283.825 285.829 285.641 288.069 285.641Z" fill="#292476"/>
<path d="M342.137 285.643C344.377 285.643 346.192 283.827 346.192 281.587C346.192 279.348 344.377 277.532 342.137 277.532C339.898 277.532 338.082 279.348 338.082 281.587C338.082 283.827 339.898 285.643 342.137 285.643Z" fill="#292476"/>
<path d="M369.171 285.643C371.411 285.643 373.227 283.827 373.227 281.587C373.227 279.348 371.411 277.532 369.171 277.532C366.932 277.532 365.116 279.348 365.116 281.587C365.116 283.827 366.932 285.643 369.171 285.643Z" fill="#292476"/>
<path d="M396.206 285.643C398.445 285.643 400.261 283.827 400.261 281.587C400.261 279.348 398.445 277.532 396.206 277.532C393.966 277.532 392.15 279.348 392.15 281.587C392.15 283.827 393.966 285.643 396.206 285.643Z" fill="#292476"/>
<path d="M179.929 299.16C182.169 299.16 183.984 297.345 183.984 295.105C183.984 292.865 182.169 291.05 179.929 291.05C177.69 291.05 175.874 292.865 175.874 295.105C175.874 297.345 177.69 299.16 179.929 299.16Z" fill="#292476"/>
<path d="M206.964 299.161C209.204 299.161 211.02 297.346 211.02 295.106C211.02 292.866 209.204 291.051 206.964 291.051C204.725 291.051 202.909 292.866 202.909 295.106C202.909 297.346 204.725 299.161 206.964 299.161Z" fill="#292476"/>
<path d="M220.482 299.161C222.722 299.161 224.537 297.346 224.537 295.106C224.537 292.866 222.722 291.051 220.482 291.051C218.242 291.051 216.427 292.866 216.427 295.106C216.427 297.346 218.242 299.161 220.482 299.161Z" fill="#292476"/>
<path d="M234.003 299.161C236.243 299.161 238.059 297.346 238.059 295.106C238.059 292.866 236.243 291.051 234.003 291.051C231.764 291.051 229.948 292.866 229.948 295.106C229.948 297.346 231.764 299.161 234.003 299.161Z" fill="#292476"/>
<path d="M247.511 299.161C249.751 299.161 251.566 297.346 251.566 295.106C251.566 292.866 249.751 291.051 247.511 291.051C245.272 291.051 243.456 292.866 243.456 295.106C243.456 297.346 245.272 299.161 247.511 299.161Z" fill="#292476"/>
<path d="M288.066 299.161C290.306 299.161 292.121 297.346 292.121 295.106C292.121 292.866 290.306 291.051 288.066 291.051C285.826 291.051 284.011 292.866 284.011 295.106C284.011 297.346 285.826 299.161 288.066 299.161Z" fill="#292476"/>
<path d="M315.109 299.161C317.348 299.161 319.164 297.346 319.164 295.106C319.164 292.866 317.348 291.051 315.109 291.051C312.869 291.051 311.054 292.866 311.054 295.106C311.054 297.346 312.869 299.161 315.109 299.161Z" fill="#292476"/>
<path d="M342.137 299.16C344.377 299.16 346.192 297.345 346.192 295.105C346.192 292.865 344.377 291.05 342.137 291.05C339.898 291.05 338.082 292.865 338.082 295.105C338.082 297.345 339.898 299.16 342.137 299.16Z" fill="#292476"/>
<path d="M369.171 299.161C371.411 299.161 373.227 297.346 373.227 295.106C373.227 292.866 371.411 291.051 369.171 291.051C366.932 291.051 365.116 292.866 365.116 295.106C365.116 297.346 366.932 299.161 369.171 299.161Z" fill="#292476"/>
<path d="M382.689 299.161C384.929 299.161 386.744 297.346 386.744 295.106C386.744 292.866 384.929 291.051 382.689 291.051C380.449 291.051 378.634 292.866 378.634 295.106C378.634 297.346 380.449 299.161 382.689 299.161Z" fill="#292476"/>
<path d="M396.206 299.161C398.445 299.161 400.261 297.346 400.261 295.106C400.261 292.866 398.445 291.051 396.206 291.051C393.966 291.051 392.15 292.866 392.15 295.106C392.15 297.346 393.966 299.161 396.206 299.161Z" fill="#292476"/>
<path d="M179.929 312.676C182.169 312.676 183.984 310.86 183.984 308.621C183.984 306.381 182.169 304.565 179.929 304.565C177.69 304.565 175.874 306.381 175.874 308.621C175.874 310.86 177.69 312.676 179.929 312.676Z" fill="#292476"/>
<path d="M233.996 312.676C236.235 312.676 238.051 310.86 238.051 308.621C238.051 306.381 236.235 304.565 233.996 304.565C231.756 304.565 229.94 306.381 229.94 308.621C229.94 310.86 231.756 312.676 233.996 312.676Z" fill="#292476"/>
<path d="M261.037 312.676C263.276 312.676 265.092 310.86 265.092 308.621C265.092 306.381 263.276 304.565 261.037 304.565C258.797 304.565 256.981 306.381 256.981 308.621C256.981 310.86 258.797 312.676 261.037 312.676Z" fill="#292476"/>
<path d="M274.552 312.676C276.792 312.676 278.607 310.86 278.607 308.621C278.607 306.381 276.792 304.565 274.552 304.565C272.313 304.565 270.497 306.381 270.497 308.621C270.497 310.86 272.313 312.676 274.552 312.676Z" fill="#292476"/>
<path d="M288.069 312.676C290.308 312.676 292.124 310.86 292.124 308.621C292.124 306.381 290.308 304.565 288.069 304.565C285.829 304.565 284.014 306.381 284.014 308.621C284.014 310.86 285.829 312.676 288.069 312.676Z" fill="#292476"/>
<path d="M342.137 312.676C344.377 312.676 346.192 310.86 346.192 308.621C346.192 306.381 344.377 304.565 342.137 304.565C339.898 304.565 338.082 306.381 338.082 308.621C338.082 310.86 339.898 312.676 342.137 312.676Z" fill="#292476"/>
<path d="M382.688 312.676C384.928 312.676 386.743 310.86 386.743 308.621C386.743 306.381 384.928 304.565 382.688 304.565C380.448 304.565 378.633 306.381 378.633 308.621C378.633 310.86 380.448 312.676 382.688 312.676Z" fill="#292476"/>
<path d="M193.448 326.191C195.687 326.191 197.503 324.375 197.503 322.136C197.503 319.896 195.687 318.081 193.448 318.081C191.208 318.081 189.393 319.896 189.393 322.136C189.393 324.375 191.208 326.191 193.448 326.191Z" fill="#292476"/>
<path d="M206.964 326.193C209.204 326.193 211.02 324.378 211.02 322.138C211.02 319.899 209.204 318.083 206.964 318.083C204.725 318.083 202.909 319.899 202.909 322.138C202.909 324.378 204.725 326.193 206.964 326.193Z" fill="#292476"/>
<path d="M220.481 326.191C222.721 326.191 224.536 324.376 224.536 322.136C224.536 319.897 222.721 318.081 220.481 318.081C218.241 318.081 216.426 319.897 216.426 322.136C216.426 324.376 218.241 326.191 220.481 326.191Z" fill="#292476"/>
<path d="M261.037 326.193C263.276 326.193 265.092 324.378 265.092 322.138C265.092 319.899 263.276 318.083 261.037 318.083C258.797 318.083 256.981 319.899 256.981 322.138C256.981 324.378 258.797 326.193 261.037 326.193Z" fill="#292476"/>
<path d="M288.069 326.193C290.308 326.193 292.124 324.378 292.124 322.138C292.124 319.899 290.308 318.083 288.069 318.083C285.829 318.083 284.014 319.899 284.014 322.138C284.014 324.378 285.829 326.193 288.069 326.193Z" fill="#292476"/>
<path d="M301.585 326.191C303.825 326.191 305.641 324.376 305.641 322.136C305.641 319.897 303.825 318.081 301.585 318.081C299.346 318.081 297.53 319.897 297.53 322.136C297.53 324.376 299.346 326.191 301.585 326.191Z" fill="#292476"/>
<path d="M315.109 326.192C317.348 326.192 319.164 324.377 319.164 322.137C319.164 319.898 317.348 318.082 315.109 318.082C312.869 318.082 311.054 319.898 311.054 322.137C311.054 324.377 312.869 326.192 315.109 326.192Z" fill="#292476"/>
<path d="M328.624 326.193C330.863 326.193 332.679 324.378 332.679 322.138C332.679 319.899 330.863 318.083 328.624 318.083C326.384 318.083 324.568 319.899 324.568 322.138C324.568 324.378 326.384 326.193 328.624 326.193Z" fill="#292476"/>
<path d="M342.137 326.19C344.377 326.19 346.192 324.375 346.192 322.135C346.192 319.896 344.377 318.08 342.137 318.08C339.898 318.08 338.082 319.896 338.082 322.135C338.082 324.375 339.898 326.19 342.137 326.19Z" fill="#292476"/>
<path d="M355.657 326.193C357.896 326.193 359.712 324.378 359.712 322.138C359.712 319.899 357.896 318.083 355.657 318.083C353.417 318.083 351.602 319.899 351.602 322.138C351.602 324.378 353.417 326.193 355.657 326.193Z" fill="#292476"/>
<path d="M396.206 326.191C398.445 326.191 400.261 324.375 400.261 322.136C400.261 319.896 398.445 318.081 396.206 318.081C393.966 318.081 392.15 319.896 392.15 322.136C392.15 324.375 393.966 326.191 396.206 326.191Z" fill="#292476"/>
<path d="M179.929 339.711C182.169 339.711 183.984 337.895 183.984 335.656C183.984 333.416 182.169 331.601 179.929 331.601C177.69 331.601 175.874 333.416 175.874 335.656C175.874 337.895 177.69 339.711 179.929 339.711Z" fill="#292476"/>
<path d="M233.996 339.709C236.235 339.709 238.051 337.893 238.051 335.654C238.051 333.414 236.235 331.599 233.996 331.599C231.756 331.599 229.94 333.414 229.94 335.654C229.94 337.893 231.756 339.709 233.996 339.709Z" fill="#292476"/>
<path d="M315.109 339.708C317.348 339.708 319.164 337.892 319.164 335.653C319.164 333.413 317.348 331.598 315.109 331.598C312.869 331.598 311.054 333.413 311.054 335.653C311.054 337.892 312.869 339.708 315.109 339.708Z" fill="#292476"/>
<path d="M342.137 339.708C344.377 339.708 346.192 337.892 346.192 335.653C346.192 333.413 344.377 331.598 342.137 331.598C339.898 331.598 338.082 333.413 338.082 335.653C338.082 337.892 339.898 339.708 342.137 339.708Z" fill="#292476"/>
<path d="M355.657 339.709C357.896 339.709 359.712 337.893 359.712 335.654C359.712 333.414 357.896 331.599 355.657 331.599C353.417 331.599 351.602 333.414 351.602 335.654C351.602 337.893 353.417 339.709 355.657 339.709Z" fill="#292476"/>
<path d="M369.171 339.708C371.411 339.708 373.227 337.892 373.227 335.653C373.227 333.413 371.411 331.598 369.171 331.598C366.932 331.598 365.116 333.413 365.116 335.653C365.116 337.892 366.932 339.708 369.171 339.708Z" fill="#292476"/>
<path d="M382.688 339.711C384.928 339.711 386.743 337.895 386.743 335.656C386.743 333.416 384.928 331.601 382.688 331.601C380.448 331.601 378.633 333.416 378.633 335.656C378.633 337.895 380.448 339.711 382.688 339.711Z" fill="#292476"/>
<path d="M396.206 339.708C398.445 339.708 400.261 337.892 400.261 335.653C400.261 333.413 398.445 331.598 396.206 331.598C393.966 331.598 392.15 333.413 392.15 335.653C392.15 337.892 393.966 339.708 396.206 339.708Z" fill="#292476"/>
<path d="M179.929 353.227C182.169 353.227 183.984 351.411 183.984 349.172C183.984 346.932 182.169 345.117 179.929 345.117C177.69 345.117 175.874 346.932 175.874 349.172C175.874 351.411 177.69 353.227 179.929 353.227Z" fill="#292476"/>
<path d="M193.448 353.226C195.687 353.226 197.503 351.41 197.503 349.17C197.503 346.931 195.687 345.115 193.448 345.115C191.208 345.115 189.393 346.931 189.393 349.17C189.393 351.41 191.208 353.226 193.448 353.226Z" fill="#292476"/>
<path d="M206.964 353.229C209.204 353.229 211.02 351.413 211.02 349.173C211.02 346.934 209.204 345.118 206.964 345.118C204.725 345.118 202.909 346.934 202.909 349.173C202.909 351.413 204.725 353.229 206.964 353.229Z" fill="#292476"/>
<path d="M220.481 353.225C222.721 353.225 224.536 351.41 224.536 349.17C224.536 346.93 222.721 345.115 220.481 345.115C218.241 345.115 216.426 346.93 216.426 349.17C216.426 351.41 218.241 353.225 220.481 353.225Z" fill="#292476"/>
<path d="M233.996 353.228C236.235 353.228 238.051 351.412 238.051 349.172C238.051 346.933 236.235 345.117 233.996 345.117C231.756 345.117 229.94 346.933 229.94 349.172C229.94 351.412 231.756 353.228 233.996 353.228Z" fill="#292476"/>
<path d="M247.512 353.225C249.752 353.225 251.567 351.409 251.567 349.169C251.567 346.93 249.752 345.114 247.512 345.114C245.273 345.114 243.457 346.93 243.457 349.169C243.457 351.409 245.273 353.225 247.512 353.225Z" fill="#292476"/>
<path d="M274.552 353.225C276.792 353.225 278.607 351.41 278.607 349.17C278.607 346.93 276.792 345.115 274.552 345.115C272.313 345.115 270.497 346.93 270.497 349.17C270.497 351.41 272.313 353.225 274.552 353.225Z" fill="#292476"/>
<path d="M301.585 353.226C303.825 353.226 305.641 351.41 305.641 349.17C305.641 346.931 303.825 345.115 301.585 345.115C299.346 345.115 297.53 346.931 297.53 349.17C297.53 351.41 299.346 353.226 301.585 353.226Z" fill="#292476"/>
<path d="M315.109 353.224C317.348 353.224 319.164 351.408 319.164 349.168C319.164 346.929 317.348 345.113 315.109 345.113C312.869 345.113 311.054 346.929 311.054 349.168C311.054 351.408 312.869 353.224 315.109 353.224Z" fill="#292476"/>
<path d="M342.137 353.224C344.377 353.224 346.192 351.408 346.192 349.168C346.192 346.929 344.377 345.113 342.137 345.113C339.898 345.113 338.082 346.929 338.082 349.168C338.082 351.408 339.898 353.224 342.137 353.224Z" fill="#292476"/>
<path d="M369.171 353.226C371.411 353.226 373.227 351.41 373.227 349.17C373.227 346.931 371.411 345.115 369.171 345.115C366.932 345.115 365.116 346.931 365.116 349.17C365.116 351.41 366.932 353.226 369.171 353.226Z" fill="#292476"/>
<path d="M382.688 353.227C384.928 353.227 386.743 351.411 386.743 349.172C386.743 346.932 384.928 345.117 382.688 345.117C380.448 345.117 378.633 346.932 378.633 349.172C378.633 351.411 380.448 353.227 382.688 353.227Z" fill="#292476"/>
<path d="M206.964 366.743C209.204 366.743 211.02 364.928 211.02 362.688C211.02 360.448 209.204 358.633 206.964 358.633C204.725 358.633 202.909 360.448 202.909 362.688C202.909 364.928 204.725 366.743 206.964 366.743Z" fill="#292476"/>
<path d="M220.481 366.743C222.721 366.743 224.536 364.928 224.536 362.688C224.536 360.448 222.721 358.633 220.481 358.633C218.241 358.633 216.426 360.448 216.426 362.688C216.426 364.928 218.241 366.743 220.481 366.743Z" fill="#292476"/>
<path d="M233.996 366.743C236.235 366.743 238.051 364.928 238.051 362.688C238.051 360.448 236.235 358.633 233.996 358.633C231.756 358.633 229.94 360.448 229.94 362.688C229.94 364.928 231.756 366.743 233.996 366.743Z" fill="#292476"/>
<path d="M247.512 366.743C249.752 366.743 251.567 364.928 251.567 362.688C251.567 360.448 249.752 358.633 247.512 358.633C245.273 358.633 243.457 360.448 243.457 362.688C243.457 364.928 245.273 366.743 247.512 366.743Z" fill="#292476"/>
<path d="M261.037 366.743C263.276 366.743 265.092 364.928 265.092 362.688C265.092 360.448 263.276 358.633 261.037 358.633C258.797 358.633 256.981 360.448 256.981 362.688C256.981 364.928 258.797 366.743 261.037 366.743Z" fill="#292476"/>
<path d="M274.552 366.743C276.792 366.743 278.607 364.928 278.607 362.688C278.607 360.448 276.792 358.633 274.552 358.633C272.313 358.633 270.497 360.448 270.497 362.688C270.497 364.928 272.313 366.743 274.552 366.743Z" fill="#292476"/>
<path d="M301.585 366.743C303.825 366.743 305.641 364.928 305.641 362.688C305.641 360.448 303.825 358.633 301.585 358.633C299.346 358.633 297.53 360.448 297.53 362.688C297.53 364.928 299.346 366.743 301.585 366.743Z" fill="#292476"/>
<path d="M315.109 366.743C317.348 366.743 319.164 364.928 319.164 362.688C319.164 360.448 317.348 358.633 315.109 358.633C312.869 358.633 311.054 360.448 311.054 362.688C311.054 364.928 312.869 366.743 315.109 366.743Z" fill="#292476"/>
<path d="M342.137 366.744C344.377 366.744 346.192 364.929 346.192 362.689C346.192 360.449 344.377 358.634 342.137 358.634C339.898 358.634 338.082 360.449 338.082 362.689C338.082 364.929 339.898 366.744 342.137 366.744Z" fill="#292476"/>
<path d="M369.171 366.744C371.411 366.744 373.227 364.929 373.227 362.689C373.227 360.449 371.411 358.634 369.171 358.634C366.932 358.634 365.116 360.449 365.116 362.689C365.116 364.929 366.932 366.744 369.171 366.744Z" fill="#292476"/>
<path d="M179.929 380.26C182.169 380.26 183.984 378.444 183.984 376.205C183.984 373.965 182.169 372.149 179.929 372.149C177.69 372.149 175.874 373.965 175.874 376.205C175.874 378.444 177.69 380.26 179.929 380.26Z" fill="#292476"/>
<path d="M193.448 380.259C195.687 380.259 197.503 378.443 197.503 376.204C197.503 373.964 195.687 372.148 193.448 372.148C191.208 372.148 189.393 373.964 189.393 376.204C189.393 378.443 191.208 380.259 193.448 380.259Z" fill="#292476"/>
<path d="M206.964 380.26C209.204 380.26 211.02 378.444 211.02 376.205C211.02 373.965 209.204 372.149 206.964 372.149C204.725 372.149 202.909 373.965 202.909 376.205C202.909 378.444 204.725 380.26 206.964 380.26Z" fill="#292476"/>
<path d="M220.482 380.259C222.722 380.259 224.537 378.443 224.537 376.204C224.537 373.964 222.722 372.148 220.482 372.148C218.242 372.148 216.427 373.964 216.427 376.204C216.427 378.443 218.242 380.259 220.482 380.259Z" fill="#292476"/>
<path d="M233.996 380.261C236.235 380.261 238.051 378.445 238.051 376.206C238.051 373.966 236.235 372.15 233.996 372.15C231.756 372.15 229.94 373.966 229.94 376.206C229.94 378.445 231.756 380.261 233.996 380.261Z" fill="#292476"/>
<path d="M247.511 380.259C249.751 380.259 251.566 378.443 251.566 376.204C251.566 373.964 249.751 372.148 247.511 372.148C245.272 372.148 243.456 373.964 243.456 376.204C243.456 378.443 245.272 380.259 247.511 380.259Z" fill="#292476"/>
<path d="M328.624 380.261C330.863 380.261 332.679 378.446 332.679 376.206C332.679 373.966 330.863 372.151 328.624 372.151C326.384 372.151 324.568 373.966 324.568 376.206C324.568 378.446 326.384 380.261 328.624 380.261Z" fill="#292476"/>
<path d="M342.137 380.26C344.377 380.26 346.192 378.444 346.192 376.205C346.192 373.965 344.377 372.149 342.137 372.149C339.898 372.149 338.082 373.965 338.082 376.205C338.082 378.444 339.898 380.26 342.137 380.26Z" fill="#292476"/>
<path d="M355.657 380.261C357.896 380.261 359.712 378.445 359.712 376.206C359.712 373.966 357.896 372.15 355.657 372.15C353.417 372.15 351.602 373.966 351.602 376.206C351.602 378.445 353.417 380.261 355.657 380.261Z" fill="#292476"/>
<path d="M369.171 380.259C371.411 380.259 373.227 378.443 373.227 376.204C373.227 373.964 371.411 372.148 369.171 372.148C366.932 372.148 365.116 373.964 365.116 376.204C365.116 378.443 366.932 380.259 369.171 380.259Z" fill="#292476"/>
<path d="M382.688 380.26C384.928 380.26 386.743 378.444 386.743 376.205C386.743 373.965 384.928 372.149 382.688 372.149C380.448 372.149 378.633 373.965 378.633 376.205C378.633 378.444 380.448 380.26 382.688 380.26Z" fill="#292476"/>
<path d="M396.206 380.259C398.445 380.259 400.261 378.443 400.261 376.204C400.261 373.964 398.445 372.148 396.206 372.148C393.966 372.148 392.15 373.964 392.15 376.204C392.15 378.443 393.966 380.259 396.206 380.259Z" fill="#292476"/>
<path d="M127.723 139.654H97C79.3816 139.654 65.056 125.158 65.056 107.351L65.0371 45.0336H127.723C145.332 45.0336 159.658 59.5295 159.658 77.3371V107.351V139.654H127.723ZM145.465 77.3371C145.465 67.3508 137.506 59.2267 127.723 59.2267H79.234L79.2491 107.346C79.2491 117.337 87.2124 125.461 97 125.461H145.465V77.3371Z" fill="#292476"/>
<path d="M371.034 45.0342H340.311C322.692 45.0342 308.367 59.5301 308.367 77.3377L308.348 139.655H371.034C388.643 139.655 402.968 125.159 402.968 107.351V77.3377V45.0342H371.034ZM388.775 107.351C388.775 117.338 380.817 125.462 371.034 125.462H322.545L322.56 77.3424C322.56 67.3514 330.523 59.2273 340.311 59.2273H388.775V107.351Z" fill="#292476"/>
<path d="M127.723 288.347H97C79.3816 288.347 65.056 302.843 65.056 320.65L65.0371 382.967H127.723C145.332 382.967 159.658 368.471 159.658 350.664V320.65V288.347H127.723ZM145.465 350.664C145.465 360.65 137.506 368.774 127.723 368.774H79.234L79.2491 320.655C79.2491 310.664 87.2124 302.54 97 302.54H145.465V350.664Z" fill="#292476"/>
<path d="M100.773 112.62C98.0761 112.62 95.5149 109.832 95.1122 107.257L92.0684 72.0684L127.805 74.3551C130.324 74.7322 132.306 77.1219 132.309 79.978L132.618 112.62H100.773Z" fill="#292476"/>
<path d="M367.225 112.619C369.922 112.619 372.483 109.831 372.886 107.256L375.93 72.0674L340.193 74.3541C337.674 74.7312 335.692 77.1209 335.689 79.977L335.38 112.619H367.225Z" fill="#292476"/>
<path d="M100.773 315.38C98.0761 315.38 95.5149 318.168 95.1122 320.743L92.0684 355.932L127.805 353.645C130.324 353.268 132.306 350.878 132.309 348.022L132.618 315.38H100.773Z" fill="#292476"/>
</g>
<rect x="38.4302" y="18.4302" width="391.14" height="391.14" rx="21.1344" stroke="#919EAB" stroke-opacity="0.24" stroke-width="0.860417" shape-rendering="crispEdges"/>
</g>
<defs>
<filter id="filter0_dd_1089_5393" x="0.141667" y="0.791667" width="467.717" height="467.717" filterUnits="userSpaceOnUse" color-interpolation-filters="sRGB">
<feFlood flood-opacity="0" result="BackgroundImageFix"/>
<feColorMatrix in="SourceAlpha" type="matrix" values="0 0 0 0 0 0 0 0 0 0 0 0 0 0 0 0 0 0 127 0" result="hardAlpha"/>
<feMorphology radius="3.44167" operator="erode" in="SourceAlpha" result="effect1_dropShadow_1089_5393"/>
<feOffset dy="20.65"/>
<feGaussianBlur stdDeviation="20.65"/>
<feComposite in2="hardAlpha" operator="out"/>
<feColorMatrix type="matrix" values="0 0 0 0 0.568627 0 0 0 0 0.619608 0 0 0 0 0.670588 0 0 0 0.1 0"/>
<feBlend mode="normal" in2="BackgroundImageFix" result="effect1_dropShadow_1089_5393"/>
<feColorMatrix in="SourceAlpha" type="matrix" values="0 0 0 0 0 0 0 0 0 0 0 0 0 0 0 0 0 0 127 0" result="hardAlpha"/>
<feOffset/>
<feGaussianBlur stdDeviation="1.72083"/>
<feComposite in2="hardAlpha" operator="out"/>
<feColorMatrix type="matrix" values="0 0 0 0 0.568627 0 0 0 0 0.619608 0 0 0 0 0.670588 0 0 0 0.16 0"/>
<feBlend mode="normal" in2="effect1_dropShadow_1089_5393" result="effect2_dropShadow_1089_5393"/>
<feBlend mode="normal" in="SourceGraphic" in2="effect2_dropShadow_1089_5393" result="shape"/>
</filter>
<clipPath id="clip0_1089_5393">
<rect x="38" y="18" width="392" height="392" rx="21.5646" fill="white"/>
</clipPath>
</defs>
</svg>
