<svg width="38" height="32" viewBox="0 0 38 32" fill="none" xmlns="http://www.w3.org/2000/svg">
<g clip-path="url(#clip0_1089_6412)">
<path d="M37.1316 18.2934C38.5976 15.0699 31.3507 6.06419 24.4273 2.31222C20.0634 -0.594388 15.5161 -0.195075 14.5953 1.08115C12.5741 3.88196 21.2878 6.25519 27.1153 9.02456C25.8626 9.56019 24.682 10.5212 23.9879 11.7503C21.8154 9.41569 17.0469 7.40506 11.4516 9.02456C7.68111 10.1159 4.54753 12.6888 3.33639 16.5749C3.04211 16.4462 2.71629 16.3747 2.3735 16.3747C1.06265 16.3747 0 17.4207 0 18.7109C0 20.0013 1.06265 21.0473 2.3735 21.0473C2.61647 21.0473 3.37616 20.8868 3.37616 20.8868L15.5161 20.9734C10.6611 28.5548 6.82423 29.6631 6.82423 30.9766C6.82423 32.2899 10.4955 31.9341 11.8739 31.4444C18.4727 29.1008 25.5602 21.7964 26.7764 19.6938C31.8837 20.3211 36.1759 20.3952 37.1316 18.2934Z" fill="url(#paint0_linear_1089_6412)"/>
<path fill-rule="evenodd" clip-rule="evenodd" d="M27.1127 9.02509C27.1131 9.02521 27.1135 9.02546 27.1137 9.02559C27.3838 8.92084 27.3401 8.52809 27.266 8.21971C27.0955 7.51096 24.1542 4.65196 21.392 3.37135C17.6282 1.62641 14.8568 1.71636 14.4473 2.52062C15.2139 4.06732 18.7682 5.51946 22.4803 7.03609C24.064 7.68321 25.6764 8.34196 27.1133 9.02484C27.1133 9.02484 27.1129 9.02509 27.1127 9.02509Z" fill="url(#paint1_linear_1089_6412)"/>
<path fill-rule="evenodd" clip-rule="evenodd" d="M22.3352 24.592C21.574 24.3056 20.7142 24.043 19.7366 23.8046C20.7789 21.9689 20.9977 19.2511 20.0133 17.5329C18.6318 15.1214 16.8977 13.8379 12.8681 13.8379C10.6516 13.8379 4.6843 14.5728 4.57842 19.4761C4.56721 19.9906 4.57804 20.4621 4.61588 20.8958L15.5128 20.9734C14.0438 23.2675 12.6679 24.9689 11.4633 26.2625C12.9096 26.6273 14.103 26.9335 15.1987 27.2148C16.2384 27.4815 17.1899 27.7256 18.186 27.9759C19.6885 26.8984 21.1009 25.7234 22.3352 24.592Z" fill="url(#paint2_linear_1089_6412)"/>
<path d="M3.19103 20.3926C3.63617 24.1175 5.78683 25.5772 10.1813 26.0092C14.576 26.4412 17.0968 26.1515 20.4527 26.452C23.2556 26.703 25.7584 28.109 26.6869 27.6231C27.5223 27.1859 27.055 25.6061 25.9369 24.5925C24.4875 23.2787 22.4817 22.3652 18.9522 22.0411C19.6557 20.1455 19.4586 17.4875 18.3661 16.0414C16.7867 13.9505 13.8712 13.0051 10.1813 13.4182C6.32631 13.8497 2.63236 15.718 3.19103 20.3926Z" fill="url(#paint3_linear_1089_6412)"/>
</g>
<defs>
<linearGradient id="paint0_linear_1089_6412" x1="11.0126" y1="15.4389" x2="36.7545" y2="22.8551" gradientUnits="userSpaceOnUse">
<stop stop-color="#8697FF"/>
<stop offset="1" stop-color="#ABB7FF"/>
</linearGradient>
<linearGradient id="paint1_linear_1089_6412" x1="32.4691" y1="14.9562" x2="14.1454" y2="-3.70465" gradientUnits="userSpaceOnUse">
<stop stop-color="#8697FF"/>
<stop offset="1" stop-color="#5156D8" stop-opacity="0"/>
</linearGradient>
<linearGradient id="paint2_linear_1089_6412" x1="22.8531" y1="25.232" x2="5.10965" y2="14.8684" gradientUnits="userSpaceOnUse">
<stop stop-color="#465EED"/>
<stop offset="1" stop-color="#8697FF" stop-opacity="0"/>
</linearGradient>
<linearGradient id="paint3_linear_1089_6412" x1="12.5531" y1="15.2501" x2="24.4073" y2="30.5516" gradientUnits="userSpaceOnUse">
<stop stop-color="#8898FF"/>
<stop offset="0.983895" stop-color="#6277F1"/>
</linearGradient>
<clipPath id="clip0_1089_6412">
<rect width="37.3333" height="32" fill="white"/>
</clipPath>
</defs>
</svg>
