<svg width="504" height="374" viewBox="0 0 504 374" fill="none" xmlns="http://www.w3.org/2000/svg">
<path d="M199.648 258.991H69.7646C66.6341 258.987 63.6329 257.743 61.4193 255.532C59.2057 253.321 57.9605 250.322 57.957 247.195V198.987C57.9606 195.86 59.2057 192.862 61.4193 190.65C63.6329 188.439 66.6342 187.195 69.7646 187.191H199.648C202.779 187.195 205.78 188.439 207.993 190.65C210.207 192.862 211.452 195.86 211.456 198.987V247.195C211.452 250.322 210.207 253.321 207.994 255.532C205.78 257.743 202.779 258.987 199.648 258.991Z" fill="white"/>
<path d="M199.648 258.991H69.7646C66.6341 258.987 63.6329 257.743 61.4193 255.532C59.2057 253.321 57.9605 250.322 57.957 247.195V198.987C57.9606 195.86 59.2057 192.862 61.4193 190.65C63.6329 188.439 66.6342 187.195 69.7646 187.191H199.648C202.779 187.195 205.78 188.439 207.993 190.65C210.207 192.862 211.452 195.86 211.456 198.987V247.195C211.452 250.322 210.207 253.321 207.994 255.532C205.78 257.743 202.779 258.987 199.648 258.991ZM69.7646 188.217C66.9064 188.22 64.1661 189.356 62.145 191.375C60.1239 193.394 58.987 196.132 58.9838 198.987V247.195C58.987 250.051 60.1239 252.788 62.145 254.807C64.1661 256.826 66.9064 257.962 69.7646 257.965H199.648C202.506 257.962 205.247 256.826 207.268 254.807C209.289 252.788 210.426 250.051 210.429 247.195V198.987C210.426 196.132 209.289 193.394 207.268 191.375C205.247 189.356 202.506 188.22 199.648 188.217H69.7646Z" fill="#3F3D56"/>
<path d="M248.796 265.552H179.711C179.275 265.547 178.841 265.492 178.418 265.388C177.154 265.084 176.029 264.364 175.226 263.343C174.423 262.322 173.988 261.06 173.992 259.761V236.303C173.995 234.769 174.606 233.298 175.693 232.214C176.779 231.129 178.252 230.52 179.788 230.519H248.796C249.726 230.516 250.643 230.74 251.467 231.172C251.795 231.342 252.105 231.544 252.393 231.775C253.081 232.313 253.636 233 254.017 233.785C254.398 234.57 254.595 235.431 254.592 236.303V259.761C254.59 261.297 253.979 262.768 252.892 263.854C251.806 264.939 250.333 265.55 248.796 265.552Z" fill="white"/>
<path d="M244.164 265.039C247.301 257.423 250.605 249.882 254.077 242.417V255.074C251.71 258.672 248.97 262.012 245.904 265.039H244.164Z" fill="#E6E6E6"/>
<path d="M252.07 232.175C245.863 243.299 239.369 254.254 232.587 265.039H231.406C238.301 254.084 244.908 242.947 251.228 231.626C251.526 231.781 251.808 231.965 252.07 232.175Z" fill="#E6E6E6"/>
<path d="M206.525 244.32C202.469 251.484 197.993 258.402 193.12 265.039H186.082C190.692 259.428 195.306 253.818 199.923 248.207C201.247 246.592 202.685 244.899 204.671 244.243L206.525 244.32Z" fill="#E6E6E6"/>
<path d="M197.172 243.171C196.437 243.935 195.734 244.73 195.072 245.556C193.614 247.31 192.177 249.079 190.734 250.843C189.836 251.941 188.937 253.038 188.049 254.136C187.767 253.955 187.499 253.752 187.248 253.531C185.83 252.301 184.95 250.564 184.797 248.694C184.645 246.824 185.231 244.969 186.432 243.525C187.632 242.082 189.351 241.166 191.219 240.973C193.087 240.78 194.957 241.326 196.427 242.494C196.692 242.7 196.941 242.927 197.172 243.171Z" fill="#443CC5"/>
<path d="M236.869 248.156L223.377 243.227L216.678 240.781C214.496 239.986 212.319 239.078 210.065 238.504C208.105 237.944 206.024 237.971 204.079 238.581C202.345 239.222 200.758 240.206 199.413 241.473C198.817 242.022 198.241 242.588 197.683 243.171C196.949 243.935 196.245 244.73 195.583 245.556C194.125 247.31 192.688 249.079 191.245 250.843C190.347 251.941 189.448 253.038 188.56 254.136C185.593 257.762 182.643 261.396 179.71 265.039C179.315 265.034 178.922 264.984 178.539 264.89C181.599 261.095 184.672 257.309 187.759 253.531C188.113 253.089 188.478 252.643 188.837 252.202C190.342 250.361 191.847 248.522 193.355 246.684C194.52 245.263 195.675 243.832 196.938 242.494C197.051 242.371 197.164 242.253 197.282 242.13C199.844 239.483 203.042 237.145 206.872 237.083C209.126 237.047 211.303 237.76 213.397 238.514C215.651 239.33 217.899 240.16 220.153 240.986L233.737 245.951L237.136 247.192C237.736 247.407 237.48 248.381 236.869 248.156Z" fill="#E6E6E6"/>
<path d="M248.796 265.552H179.711C179.275 265.547 178.841 265.492 178.418 265.388C177.154 265.084 176.029 264.364 175.226 263.343C174.423 262.322 173.988 261.06 173.992 259.761V236.303C173.995 234.769 174.606 233.298 175.693 232.214C176.779 231.129 178.252 230.52 179.788 230.519H248.796C249.726 230.516 250.643 230.74 251.467 231.172C251.795 231.342 252.105 231.544 252.393 231.775C253.081 232.313 253.636 233 254.017 233.785C254.398 234.57 254.595 235.431 254.592 236.303V259.761C254.59 261.297 253.979 262.768 252.892 263.854C251.806 264.939 250.333 265.55 248.796 265.552ZM179.788 231.544C178.524 231.545 177.313 232.047 176.419 232.939C175.524 233.831 175.021 235.041 175.019 236.303V259.761C175.016 260.83 175.374 261.869 176.035 262.709C176.696 263.549 177.621 264.142 178.661 264.392C179.007 264.476 179.361 264.521 179.718 264.526H248.796C250.06 264.524 251.273 264.022 252.167 263.129C253.061 262.236 253.564 261.025 253.565 259.761V236.303C253.567 235.586 253.405 234.877 253.091 234.231C252.778 233.586 252.32 233.02 251.754 232.578C251.518 232.388 251.263 232.222 250.994 232.082C250.316 231.727 249.561 231.542 248.796 231.544H179.788Z" fill="#3F3D56"/>
<path d="M111.402 287.961H11.8076C8.67711 287.957 5.67584 286.713 3.46225 284.502C1.24866 282.291 0.00351655 279.293 0 276.165V258.728C0.00355859 255.601 1.24871 252.603 3.4623 250.391C5.67588 248.18 8.67712 246.936 11.8076 246.933H111.402C114.533 246.936 117.534 248.18 119.747 250.391C121.961 252.603 123.206 255.601 123.21 258.728V276.165C123.206 279.293 121.961 282.291 119.747 284.502C117.534 286.713 114.533 287.957 111.402 287.961Z" fill="white"/>
<path d="M111.402 287.961H11.8076C8.67711 287.957 5.67584 286.713 3.46225 284.502C1.24866 282.291 0.00351655 279.293 0 276.165V258.728C0.00355859 255.601 1.24871 252.603 3.4623 250.391C5.67588 248.18 8.67712 246.936 11.8076 246.933H111.402C114.533 246.936 117.534 248.18 119.747 250.391C121.961 252.603 123.206 255.601 123.21 258.728V276.165C123.206 279.293 121.961 282.291 119.747 284.502C117.534 286.713 114.533 287.957 111.402 287.961ZM11.8076 247.958C8.94932 247.962 6.20903 249.097 4.18793 251.116C2.16682 253.135 1.02995 255.873 1.02675 258.728V276.165C1.03 279.021 2.16688 281.758 4.18797 283.777C6.20907 285.796 8.94934 286.932 11.8076 286.935H111.402C114.26 286.932 117.001 285.796 119.022 283.777C121.043 281.758 122.18 279.021 122.183 276.165V258.728C122.18 255.873 121.043 253.135 119.022 251.116C117.001 249.097 114.26 247.962 111.402 247.958H11.8076Z" fill="#3F3D56"/>
<path d="M41.0518 278.153H25.0406C24.1847 278.152 23.3642 277.812 22.759 277.207C22.1539 276.603 21.8135 275.783 21.8125 274.928V259.965C21.8135 259.11 22.1539 258.29 22.759 257.686C23.3642 257.081 24.1847 256.741 25.0406 256.74H41.0518C41.9077 256.741 42.7282 257.081 43.3334 257.686C43.9386 258.29 44.279 259.11 44.28 259.965V274.928C44.279 275.783 43.9386 276.603 43.3334 277.207C42.7282 277.812 41.9077 278.152 41.0518 278.153Z" fill="#443CC5"/>
<path d="M69.6105 278.153H53.5992C52.7433 278.152 51.9228 277.812 51.3176 277.207C50.7124 276.603 50.372 275.783 50.3711 274.928V259.965C50.372 259.11 50.7124 258.29 51.3176 257.686C51.9228 257.081 52.7433 256.741 53.5992 256.74H69.6105C70.4663 256.741 71.2868 257.081 71.892 257.686C72.4972 258.29 72.8376 259.11 72.8385 259.965V274.928C72.8376 275.783 72.4972 276.603 71.892 277.207C71.2868 277.812 70.4663 278.152 69.6105 278.153Z" fill="#E6E6E6"/>
<path d="M98.171 278.153H82.1597C81.3039 278.152 80.4834 277.812 79.8782 277.207C79.273 276.603 78.9326 275.783 78.9316 274.928V259.965C78.9326 259.11 79.273 258.29 79.8782 257.686C80.4834 257.081 81.3039 256.741 82.1597 256.74H98.171C99.0269 256.741 99.8474 257.081 100.453 257.686C101.058 258.29 101.398 259.11 101.399 259.965V274.928C101.398 275.783 101.058 276.603 100.453 277.207C99.8474 277.812 99.0269 278.152 98.171 278.153Z" fill="#E6E6E6"/>
<path d="M141.038 215.649H120.503C119.958 215.649 119.436 215.433 119.051 215.048C118.666 214.663 118.449 214.141 118.449 213.597C118.449 213.053 118.666 212.531 119.051 212.147C119.436 211.762 119.958 211.546 120.503 211.546H141.038C141.582 211.546 142.105 211.762 142.49 212.147C142.875 212.531 143.091 213.053 143.091 213.597C143.091 214.141 142.875 214.663 142.49 215.048C142.105 215.433 141.582 215.649 141.038 215.649Z" fill="#CCCCCC"/>
<path d="M185.188 226.931H119.989C119.444 226.931 118.922 226.715 118.537 226.331C118.152 225.946 117.936 225.424 117.936 224.88C117.936 224.336 118.152 223.814 118.537 223.429C118.922 223.045 119.444 222.829 119.989 222.829H185.188C185.732 222.829 186.254 223.045 186.64 223.429C187.025 223.814 187.241 224.336 187.241 224.88C187.241 225.424 187.025 225.946 186.64 226.331C186.254 226.715 185.732 226.931 185.188 226.931Z" fill="#CCCCCC"/>
<path d="M96.1158 232.993C103.72 232.993 109.884 226.835 109.884 219.239C109.884 211.642 103.72 205.484 96.1158 205.484C88.5119 205.484 82.3477 211.642 82.3477 219.239C82.3477 226.835 88.5119 232.993 96.1158 232.993Z" fill="#443CC5"/>
<path d="M245.906 347.965H116.022C112.892 347.961 109.891 346.718 107.677 344.506C105.464 342.295 104.218 339.297 104.215 336.169V287.961C104.218 284.834 105.464 281.836 107.677 279.624C109.891 277.413 112.892 276.169 116.022 276.166H245.906C249.036 276.169 252.038 277.413 254.251 279.624C256.465 281.836 257.71 284.834 257.714 287.961V336.169C257.71 339.297 256.465 342.295 254.251 344.506C252.038 346.718 249.037 347.961 245.906 347.965Z" fill="white"/>
<path d="M245.906 347.965H116.022C112.892 347.961 109.891 346.718 107.677 344.506C105.464 342.295 104.218 339.297 104.215 336.169V287.961C104.218 284.834 105.464 281.836 107.677 279.624C109.891 277.413 112.892 276.169 116.022 276.166H245.906C249.036 276.169 252.038 277.413 254.251 279.624C256.465 281.836 257.71 284.834 257.714 287.961V336.169C257.71 339.297 256.465 342.295 254.251 344.506C252.038 346.718 249.037 347.961 245.906 347.965ZM116.022 277.191C113.164 277.194 110.424 278.33 108.403 280.349C106.382 282.368 105.245 285.106 105.242 287.961V336.169C105.245 339.025 106.382 341.762 108.403 343.781C110.424 345.8 113.164 346.936 116.022 346.939H245.906C248.764 346.936 251.505 345.8 253.526 343.781C255.547 341.762 256.684 339.025 256.687 336.169V287.961C256.684 285.106 255.547 282.368 253.526 280.349C251.505 278.33 248.764 277.194 245.906 277.191H116.022Z" fill="#3F3D56"/>
<path d="M166.61 295.266H144.794C144.52 295.266 144.249 295.213 143.995 295.108C143.742 295.004 143.512 294.85 143.318 294.657C143.125 294.464 142.971 294.234 142.866 293.982C142.761 293.729 142.707 293.458 142.707 293.184C142.707 292.911 142.761 292.64 142.866 292.387C142.971 292.134 143.125 291.905 143.318 291.711C143.512 291.518 143.742 291.365 143.995 291.261C144.249 291.156 144.52 291.103 144.794 291.103H166.61C167.162 291.104 167.691 291.324 168.081 291.714C168.471 292.104 168.691 292.633 168.691 293.184C168.691 293.736 168.471 294.265 168.081 294.655C167.691 295.045 167.162 295.265 166.61 295.266Z" fill="#443CC5"/>
<path d="M215.517 303.778H144.794C144.242 303.778 143.712 303.559 143.321 303.169C142.93 302.778 142.711 302.249 142.711 301.697C142.711 301.145 142.93 300.616 143.321 300.225C143.712 299.835 144.242 299.616 144.794 299.616H215.517C216.069 299.616 216.599 299.835 216.99 300.225C217.381 300.616 217.6 301.145 217.6 301.697C217.6 302.249 217.381 302.778 216.99 303.169C216.599 303.559 216.069 303.778 215.517 303.778Z" fill="#E6E6E6"/>
<path d="M215.517 313.55H144.794C144.521 313.55 144.25 313.496 143.997 313.391C143.744 313.287 143.515 313.133 143.321 312.94C143.128 312.747 142.974 312.517 142.87 312.265C142.765 312.012 142.711 311.742 142.711 311.468C142.711 311.195 142.765 310.925 142.87 310.672C142.974 310.42 143.128 310.19 143.321 309.997C143.515 309.804 143.744 309.65 143.997 309.546C144.25 309.441 144.521 309.387 144.794 309.387H215.517C216.069 309.387 216.599 309.606 216.99 309.997C217.381 310.387 217.6 310.917 217.6 311.468C217.6 312.02 217.381 312.55 216.99 312.94C216.599 313.33 216.069 313.55 215.517 313.55Z" fill="#E6E6E6"/>
<path d="M215.516 323.321H144.794C144.52 323.321 144.249 323.268 143.995 323.163C143.742 323.059 143.512 322.906 143.318 322.712C143.125 322.519 142.971 322.289 142.866 322.037C142.761 321.784 142.707 321.513 142.707 321.239C142.707 320.966 142.761 320.695 142.866 320.442C142.971 320.19 143.125 319.96 143.318 319.767C143.512 319.573 143.742 319.42 143.995 319.316C144.249 319.211 144.52 319.158 144.794 319.158H215.516C216.068 319.159 216.597 319.379 216.987 319.769C217.377 320.159 217.596 320.688 217.596 321.239C217.596 321.791 217.377 322.32 216.987 322.71C216.597 323.1 216.068 323.32 215.516 323.321Z" fill="#E6E6E6"/>
<path d="M215.517 333.092H144.794C144.242 333.092 143.712 332.872 143.321 332.482C142.93 332.092 142.711 331.562 142.711 331.01C142.711 330.458 142.93 329.929 143.321 329.539C143.712 329.148 144.242 328.929 144.794 328.929H215.517C216.069 328.929 216.599 329.148 216.99 329.539C217.381 329.929 217.6 330.458 217.6 331.01C217.6 331.562 217.381 332.092 216.99 332.482C216.599 332.872 216.069 333.092 215.517 333.092Z" fill="#E6E6E6"/>
<path d="M169.514 104.998C173.797 102.071 179.311 108.522 176.311 112.538C173.28 116.598 166.652 115.447 164.37 111.302C161.458 106.013 164.357 99.721 169.05 96.6505C174.381 93.1625 180.915 92.9662 187.07 93.2931C193.288 93.6232 199.355 94.0615 205.548 93.1712C210.792 92.4043 215.914 90.969 220.792 88.9004C230.821 84.6919 239.626 78.0276 246.397 69.5227C249.556 65.5185 252.509 61.0181 254.317 56.2246C255.71 52.5323 256.37 47.6765 254.396 44.0624C253.967 43.2493 253.362 42.5419 252.625 41.9916C251.888 41.4412 251.037 41.0618 250.135 40.8807C249.233 40.6997 248.301 40.7216 247.409 40.9449C246.516 41.1682 245.684 41.5873 244.974 42.1717C241.685 44.8639 240.796 49.863 243.311 53.3465C246.01 57.0844 251.103 58.3657 255.487 57.6851C261.581 56.7393 266.516 52.4416 271.181 48.7416L305.731 21.3394C311.428 16.8209 317.067 12.2148 322.837 7.79026C327.53 4.19213 333.256 0.703324 339.368 2.62518C341.832 3.39989 344.315 5.23454 344.93 7.87039C345.161 9.07737 345.057 10.3242 344.63 11.4765C344.203 12.6287 343.469 13.6427 342.508 14.4091C342.069 14.7817 341.557 15.059 341.005 15.2234C340.452 15.3878 339.872 15.4357 339.301 15.3641C338.729 15.2925 338.178 15.1029 337.684 14.8074C337.19 14.512 336.762 14.117 336.429 13.6477C335.141 11.8531 335.035 9.29457 335.777 7.2668C337.759 1.84756 345.034 1.28058 349.888 1.72132C355.616 2.30118 361.149 4.12047 366.103 7.05269C376.362 13.0055 383.949 22.6893 388.4 33.5755C393.331 45.6375 394.85 58.9848 394.648 71.9334C394.607 74.5744 394.424 77.4956 392.936 79.7728C391.479 82.0029 388.936 82.6779 386.656 81.1865C385.913 80.7008 384.958 79.7546 385.152 78.7566C385.395 77.5036 387.895 77.494 388.896 77.5419C391.636 77.6731 394.227 79.053 396.19 80.9133C400.854 85.3345 401.217 92.0994 400.609 98.1145C399.941 104.718 398.036 111.285 398.792 117.97C400.032 128.922 409.027 135.007 417.862 140.042C422.387 142.62 427.01 145.085 431.079 148.366C435.226 151.722 438.856 155.669 441.854 160.08C447.776 168.784 451.268 178.909 451.968 189.411C452.321 194.658 451.906 199.928 450.737 205.055C449.575 210.071 447.744 216.393 442.92 219.087C441.771 219.743 440.447 220.032 439.128 219.914C437.809 219.796 436.559 219.276 435.545 218.425C433.59 216.859 432.635 214.077 434.654 212.12C436.327 210.498 439.004 210.839 441.022 211.499C443.452 212.293 445.343 213.774 447.155 215.525C450.607 218.861 454.649 222.956 459.902 221.891C460.873 221.694 460.462 220.211 459.493 220.407C453.151 221.694 449.328 214.331 444.652 211.496C441.266 209.444 435.483 207.918 432.837 211.92C429.982 216.24 434.573 220.9 438.839 221.456C444.386 222.179 448.231 216.761 450.094 212.289C454.413 201.917 454.547 189.755 451.905 178.955C449.264 167.987 443.554 157.996 435.441 150.148C431.347 146.25 426.652 143.261 421.755 140.479C416.812 137.67 411.659 134.976 407.43 131.121C405.087 129.057 403.223 126.507 401.968 123.65C400.713 120.792 400.097 117.695 400.163 114.575C400.208 107.389 402.521 100.416 402.376 93.216C402.257 87.2465 400.226 81.4173 395.028 78.0565C392.886 76.6047 390.328 75.8914 387.743 76.025C386.691 76.1113 385.214 76.2883 384.348 76.9459C383.65 77.4755 383.518 78.7153 383.659 79.5168C383.993 81.4205 385.795 82.7426 387.546 83.2724C388.61 83.6142 389.753 83.6279 390.825 83.3119C391.897 82.9958 392.849 82.3646 393.557 81.5005C395.24 79.5583 395.825 76.9681 396.063 74.4741C396.386 71.0951 396.207 67.6242 396.058 64.2396C395.452 50.4849 392.731 36.401 385.576 24.4552C379.494 14.3008 370.034 5.78654 358.692 2.01973C353.347 0.244747 347.007 -0.819005 341.492 0.795312C336.747 2.18424 333.111 6.08544 333.895 11.2523C334.558 15.6261 339.094 18.6513 343.092 15.8907C344.035 15.2393 344.827 14.3922 345.412 13.4073C345.998 12.4224 346.363 11.3229 346.485 10.1838C346.606 9.04473 346.48 7.89295 346.114 6.8071C345.749 5.72125 345.154 4.72692 344.369 3.89198C340.504 -0.151079 334.202 -0.121982 329.38 1.93273C326.476 3.17008 323.905 5.02399 321.425 6.94992C318.264 9.40489 315.148 11.9187 312.012 14.4057L274.238 44.3654C271.256 46.73 268.323 49.181 265.242 51.4162C262.367 53.502 259.195 55.4339 255.656 56.1036C250.672 57.0466 242.783 54.5735 243.387 48.2586C243.622 45.8063 245.248 43.0976 247.733 42.3943C250.17 41.705 252.47 43.2707 253.375 45.4871C255.372 50.3735 253.027 55.9629 250.695 60.2525C244.92 70.8735 235.812 79.5232 225.139 85.1514C219.797 87.9751 214.071 90.0051 208.142 91.1772C201.482 92.4843 194.947 92.2285 188.213 91.8205C181.686 91.425 174.832 91.4654 169.014 94.8634C164.244 97.6497 161.062 102.703 161.826 108.333C162.49 113.223 166.416 116.96 171.478 116.547C175.728 116.2 179.997 112.575 178.49 107.971C177.241 104.158 172.422 101.151 168.736 103.67C167.923 104.225 168.693 105.559 169.514 104.998Z" fill="#3F3D56"/>
<path d="M495.896 216.08H458.582C457.999 216.081 457.44 216.312 457.028 216.724C456.615 217.136 456.383 217.694 456.383 218.277V241.485C456.383 242.068 456.615 242.626 457.028 243.038C457.44 243.45 457.999 243.681 458.582 243.682H495.896C496.479 243.681 497.038 243.45 497.451 243.038C497.863 242.626 498.095 242.068 498.095 241.485V218.277C498.095 217.694 497.863 217.136 497.451 216.724C497.038 216.312 496.479 216.081 495.896 216.08Z" fill="#F2F2F2"/>
<path d="M495.896 216.08H458.582C457.999 216.081 457.44 216.312 457.028 216.724C456.615 217.136 456.383 217.694 456.383 218.277V241.485C456.383 242.068 456.615 242.626 457.028 243.038C457.44 243.45 457.999 243.681 458.582 243.682H495.896C496.479 243.681 497.038 243.45 497.451 243.038C497.863 242.626 498.095 242.068 498.095 241.485V218.277C498.095 217.694 497.863 217.136 497.451 216.724C497.038 216.312 496.479 216.081 495.896 216.08ZM496.618 232.751C496.609 235.114 495.674 237.379 494.012 239.06C492.351 240.742 490.096 241.706 487.731 241.746C483.945 241.795 489.826 241.814 485.259 241.814C474.817 241.814 463.929 241.715 459.866 241.65C459.332 241.639 458.823 241.42 458.448 241.039C458.073 240.658 457.862 240.146 457.86 239.612V218.278C457.86 218.087 457.936 217.904 458.072 217.768C458.207 217.633 458.39 217.557 458.582 217.556H495.895C496.086 217.556 496.27 217.632 496.405 217.767C496.541 217.902 496.617 218.085 496.618 218.277L496.618 232.751Z" fill="#E6E6E6"/>
<path d="M491.304 202.716H462.874C462.622 202.716 462.377 202.794 462.171 202.939C461.966 203.084 461.81 203.288 461.725 203.525L457.334 215.831C457.269 216.015 457.248 216.212 457.275 216.405C457.301 216.598 457.374 216.782 457.486 216.941C457.598 217.101 457.747 217.231 457.921 217.321C458.094 217.411 458.286 217.458 458.481 217.458L496.611 217.526H496.612C496.814 217.526 497.013 217.476 497.19 217.38C497.368 217.285 497.519 217.147 497.63 216.978C497.741 216.81 497.809 216.617 497.827 216.416C497.845 216.215 497.812 216.013 497.733 215.828L492.425 203.454C492.331 203.235 492.174 203.048 491.975 202.917C491.776 202.786 491.542 202.716 491.304 202.716Z" fill="#E6E6E6"/>
<path d="M497.833 216.095C497.833 216.26 497.8 216.423 497.735 216.575L492.427 226.1C492.332 226.319 492.176 226.505 491.976 226.636C491.777 226.767 491.544 226.837 491.306 226.837H462.876C462.624 226.837 462.379 226.759 462.173 226.615C461.968 226.47 461.812 226.265 461.726 226.029L457.336 216.572C457.283 216.421 457.259 216.261 457.267 216.102C457.275 215.942 457.315 215.785 457.383 215.641C457.452 215.496 457.549 215.367 457.667 215.259C457.786 215.152 457.925 215.069 458.076 215.016C458.206 214.969 458.344 214.944 458.483 214.944L463.14 214.936L465.041 214.932L490.056 214.889L491.958 214.885L496.613 214.876H496.614C496.937 214.877 497.247 215.005 497.476 215.233C497.705 215.462 497.833 215.772 497.833 216.095Z" fill="#E6E6E6"/>
<path d="M461.38 233.489C461.944 233.489 469.686 233.961 469.686 234.525C469.686 235.088 461.944 235.528 461.38 235.528C461.109 235.528 460.85 235.421 460.658 235.23C460.467 235.038 460.359 234.779 460.359 234.509C460.359 234.238 460.467 233.979 460.658 233.787C460.85 233.596 461.109 233.489 461.38 233.489Z" fill="#E6E6E6"/>
<path d="M489.533 195.229H465.562C464.919 195.23 464.303 195.486 463.849 195.939C463.395 196.393 463.139 197.008 463.139 197.65V226.838H491.304C491.535 226.838 491.762 226.773 491.956 226.648V197.65C491.956 197.008 491.7 196.393 491.246 195.939C490.792 195.486 490.176 195.23 489.533 195.229Z" fill="#F2F2F2"/>
<path d="M480.385 197.192H467.248C466.663 197.192 466.102 197.425 465.688 197.838C465.275 198.251 465.042 198.811 465.041 199.396V226.837H490.056V206.853C490.053 204.291 489.033 201.836 487.22 200.025C485.407 198.214 482.949 197.195 480.385 197.192Z" fill="white"/>
<path d="M485.795 224.4H469.303C469.161 224.4 469.024 224.457 468.923 224.558C468.822 224.658 468.766 224.795 468.766 224.937C468.766 225.08 468.822 225.216 468.923 225.317C469.024 225.418 469.161 225.474 469.303 225.474H485.795C485.937 225.474 486.074 225.418 486.175 225.317C486.275 225.216 486.332 225.08 486.332 224.937C486.332 224.795 486.275 224.658 486.175 224.558C486.074 224.457 485.937 224.4 485.795 224.4Z" fill="#E4E4E4"/>
<path d="M485.793 222.276H469.302C469.159 222.276 469.022 222.333 468.921 222.434C468.82 222.535 468.764 222.671 468.764 222.814C468.764 222.956 468.82 223.093 468.921 223.194C469.022 223.295 469.159 223.351 469.302 223.351H485.793C485.864 223.351 485.934 223.337 485.999 223.31C486.064 223.283 486.124 223.244 486.174 223.194C486.224 223.144 486.263 223.085 486.29 223.02C486.317 222.954 486.331 222.884 486.331 222.814C486.331 222.743 486.317 222.673 486.29 222.608C486.263 222.543 486.224 222.484 486.174 222.434C486.124 222.384 486.064 222.344 485.999 222.317C485.934 222.29 485.864 222.276 485.793 222.276Z" fill="#E4E4E4"/>
<path d="M476.452 220.154H469.303C469.161 220.154 469.024 220.21 468.923 220.311C468.822 220.412 468.766 220.548 468.766 220.691C468.766 220.833 468.822 220.97 468.923 221.07C469.024 221.171 469.161 221.228 469.303 221.228H476.452C476.594 221.228 476.731 221.171 476.832 221.07C476.933 220.97 476.989 220.833 476.989 220.691C476.989 220.548 476.933 220.412 476.832 220.311C476.731 220.21 476.594 220.154 476.452 220.154Z" fill="#E4E4E4"/>
<path d="M485.793 215.707H469.302C469.16 215.707 469.023 215.764 468.923 215.865C468.822 215.966 468.766 216.102 468.766 216.245C468.766 216.387 468.822 216.523 468.923 216.624C469.023 216.725 469.16 216.782 469.302 216.782H485.793C485.864 216.782 485.934 216.769 486 216.742C486.065 216.715 486.125 216.675 486.175 216.625C486.225 216.575 486.265 216.516 486.292 216.451C486.319 216.385 486.333 216.315 486.333 216.245C486.333 216.174 486.319 216.104 486.292 216.038C486.265 215.973 486.225 215.914 486.175 215.864C486.125 215.814 486.065 215.774 486 215.747C485.934 215.721 485.864 215.707 485.793 215.707Z" fill="#E4E4E4"/>
<path d="M485.795 213.584H469.303C469.161 213.584 469.024 213.641 468.923 213.742C468.822 213.842 468.766 213.979 468.766 214.121C468.766 214.264 468.822 214.4 468.923 214.501C469.024 214.602 469.161 214.658 469.303 214.658H485.795C485.937 214.658 486.074 214.602 486.175 214.501C486.275 214.4 486.332 214.264 486.332 214.121C486.332 213.979 486.275 213.842 486.175 213.742C486.074 213.641 485.937 213.584 485.795 213.584Z" fill="#E4E4E4"/>
<path d="M476.45 211.461H469.302C469.159 211.461 469.022 211.518 468.921 211.618C468.82 211.719 468.764 211.856 468.764 211.998C468.764 212.141 468.82 212.278 468.921 212.379C469.022 212.479 469.159 212.536 469.302 212.536H476.45C476.593 212.536 476.73 212.479 476.831 212.379C476.932 212.278 476.989 212.141 476.989 211.998C476.989 211.856 476.932 211.719 476.831 211.618C476.73 211.518 476.593 211.461 476.45 211.461Z" fill="#E4E4E4"/>
<path d="M485.793 207.014H469.302C469.16 207.014 469.023 207.071 468.923 207.172C468.822 207.272 468.766 207.409 468.766 207.551C468.766 207.693 468.822 207.83 468.923 207.931C469.023 208.031 469.16 208.088 469.302 208.089H485.793C485.864 208.089 485.934 208.075 486 208.048C486.065 208.021 486.125 207.982 486.175 207.932C486.225 207.882 486.265 207.823 486.292 207.757C486.319 207.692 486.333 207.622 486.333 207.551C486.333 207.48 486.319 207.41 486.292 207.345C486.265 207.28 486.225 207.22 486.175 207.171C486.125 207.121 486.065 207.081 486 207.054C485.934 207.027 485.864 207.013 485.793 207.014Z" fill="#E4E4E4"/>
<path d="M485.793 204.891H469.302C469.16 204.892 469.023 204.948 468.923 205.049C468.822 205.15 468.766 205.286 468.766 205.429C468.766 205.571 468.822 205.707 468.923 205.808C469.023 205.909 469.16 205.966 469.302 205.966H485.793C485.864 205.966 485.934 205.953 486 205.926C486.065 205.899 486.125 205.859 486.175 205.809C486.225 205.759 486.265 205.7 486.292 205.635C486.319 205.569 486.333 205.499 486.333 205.429C486.333 205.358 486.319 205.288 486.292 205.223C486.265 205.157 486.225 205.098 486.175 205.048C486.125 204.998 486.065 204.958 486 204.932C485.934 204.905 485.864 204.891 485.793 204.891Z" fill="#E4E4E4"/>
<path d="M476.45 202.768H469.302C469.159 202.768 469.022 202.824 468.921 202.925C468.82 203.026 468.764 203.163 468.764 203.305C468.764 203.448 468.82 203.584 468.921 203.685C469.022 203.786 469.159 203.843 469.302 203.843H476.45C476.521 203.843 476.591 203.829 476.656 203.802C476.722 203.775 476.781 203.735 476.831 203.685C476.881 203.635 476.921 203.576 476.948 203.511C476.975 203.446 476.989 203.376 476.989 203.305C476.989 203.234 476.975 203.165 476.948 203.099C476.921 203.034 476.881 202.975 476.831 202.925C476.781 202.875 476.722 202.836 476.656 202.808C476.591 202.781 476.521 202.768 476.45 202.768Z" fill="#E4E4E4"/>
<path d="M298.847 102.123C307.636 102.123 314.76 95.0055 314.76 86.2258C314.76 77.446 307.636 70.3286 298.847 70.3286C290.058 70.3286 282.934 77.446 282.934 86.2258C282.934 95.0055 290.058 102.123 298.847 102.123Z" fill="#FFB6B6"/>
<path d="M317.013 77.1234C315.339 74.5363 312.198 72.8121 309.153 73.2966C308.869 71.3552 308.058 69.5287 306.807 68.0159C305.557 66.5032 303.915 65.3622 302.06 64.7172C300.205 64.0721 298.209 63.9478 296.288 64.3578C294.368 64.7677 292.596 65.6962 291.167 67.0422C290.697 66.7116 290.15 66.5079 289.578 66.4508C289.006 66.3936 288.429 66.4849 287.903 66.7158C286.855 67.1919 285.943 67.923 285.251 68.8423C283.504 71.0192 282.38 73.6286 282 76.3929C281.619 79.1572 281.996 81.9729 283.09 84.5402C282.718 83.1887 284.074 81.9171 285.444 81.6138C286.813 81.3105 288.251 81.5975 289.64 81.4C291.42 81.1469 293.021 80.115 294.804 79.8828C296.303 79.6876 297.81 80.0715 299.272 80.4563C300.733 80.8411 302.237 81.2334 303.737 81.0554C305.238 80.8774 307.172 86.5597 307.146 90.562C307.141 91.3205 307.297 92.2943 308.039 92.4552C308.953 92.6534 309.482 91.3936 310.352 91.0503C310.753 90.9355 311.183 90.9807 311.551 91.1763C311.919 91.3718 312.197 91.7025 312.326 92.0987C312.435 92.5014 312.447 92.9245 312.36 93.3327C312.273 93.7409 312.089 94.1223 311.825 94.4454C311.29 95.0858 310.656 95.6358 309.946 96.0741L310.304 96.3717C310.9 97.158 312.135 97.1921 312.994 96.7056C313.815 96.15 314.48 95.3935 314.926 94.5083C316.515 91.8683 317.908 89.0555 318.469 86.0265C319.03 82.9975 318.687 79.7104 317.013 77.1234Z" fill="#2F2E41"/>
<path d="M317.514 364.613L308.921 364.612L304.832 331.496L317.516 331.496L317.514 364.613Z" fill="#FFB6B6"/>
<path d="M317.817 373.569L291.389 373.568V373.234C291.389 370.509 292.473 367.895 294.402 365.968C296.331 364.041 298.947 362.958 301.675 362.958H301.676L306.504 359.299L315.511 362.959L317.818 362.959L317.817 373.569Z" fill="#2F2E41"/>
<path d="M333.012 349.453L326.27 354.777L302.504 331.332L312.455 323.473L333.012 349.453Z" fill="#FFB6B6"/>
<path d="M338.809 356.292L318.076 372.664L317.869 372.402C316.177 370.264 315.405 367.543 315.722 364.836C316.039 362.129 317.419 359.658 319.559 357.968L319.56 357.968L321.076 352.107L330.413 349.397L332.223 347.968L338.809 356.292Z" fill="#2F2E41"/>
<path d="M273.073 209.384L272.549 219.048L275.101 222.128L274.808 231.794L277.284 238.12L279.026 258.248L303.414 342.23L325.391 335.188L301.392 256.901L330.266 256.181L331.243 212.037L326.127 202.156L273.073 209.384Z" fill="#2F2E41"/>
<path d="M327.488 249.526L330.265 256.181L319.527 349.889L304.463 350.988L297.957 246.225L327.488 249.526Z" fill="#2F2E41"/>
<path d="M312.724 111.432L307.777 104.591L291.804 105.231L291.498 110.498L280.887 210.619L291.307 210.386L304.243 213.403L329.122 204.704L312.724 111.432Z" fill="#443CC5"/>
<path d="M284.985 212.47H260.488L266.879 167.404L269.471 149.137C269.471 149.137 267.637 136.082 266.748 129.261C266.666 128.533 266.792 127.796 267.112 127.138C267.403 126.52 267.782 125.949 268.238 125.441C271.218 122.008 277.92 119.032 282.122 117.403C284.287 116.569 285.791 116.089 285.791 116.089L291.498 110.5C299.689 120.724 284.985 212.47 284.985 212.47Z" fill="#3F3D56"/>
<path d="M309.62 107.709L317.392 112.159C317.392 112.159 340.407 115.935 342.645 124.57L334.173 150.118V203.81L313.635 212.037C313.635 212.037 295.919 125.294 309.62 107.709Z" fill="#3F3D56"/>
<path opacity="0.4" d="M301.754 244.056L297.957 287.991L304.422 339.125" fill="black"/>
<path d="M210.083 162.208C210.716 161.753 211.441 161.443 212.207 161.299C212.973 161.154 213.762 161.18 214.517 161.373C215.272 161.566 215.976 161.922 216.578 162.416C217.181 162.91 217.668 163.53 218.004 164.233L236.833 162.105L232.37 170.874L215.174 171.55C213.956 172.037 212.601 172.06 211.366 171.616C210.131 171.171 209.102 170.29 208.475 169.138C207.847 167.986 207.664 166.645 207.961 165.368C208.257 164.09 209.012 162.966 210.083 162.208Z" fill="#FFB6B6"/>
<path d="M289.112 123.813L294.5 127.029L264.322 169.498L227.488 172.625L226.021 162.119L253.16 153.985L266.575 128.01L289.112 123.813Z" fill="#3F3D56"/>
<path d="M398.94 158.618C398.307 158.163 397.582 157.853 396.816 157.709C396.05 157.565 395.261 157.59 394.506 157.783C393.751 157.976 393.047 158.332 392.445 158.826C391.842 159.32 391.355 159.94 391.019 160.643L372.189 158.516L376.652 167.284L393.849 167.96C395.067 168.447 396.422 168.47 397.657 168.026C398.892 167.581 399.92 166.7 400.548 165.548C401.175 164.397 401.358 163.055 401.062 161.778C400.766 160.501 400.01 159.376 398.94 158.618Z" fill="#FFB6B6"/>
<path d="M319.911 120.223L314.523 123.439L344.701 165.909L381.535 169.035L383.001 158.529L355.863 150.395L342.448 124.42L319.911 120.223Z" fill="#3F3D56"/>
<path d="M328.378 32.5433C328.304 32.5736 328.222 32.5735 328.148 32.5431C328.075 32.5127 328.017 32.4544 327.986 32.381L327.206 30.4982C327.176 30.4248 327.176 30.3423 327.206 30.2689C327.237 30.1955 327.295 30.1371 327.369 30.1068C327.442 30.0764 327.525 30.0764 327.598 30.1068C327.672 30.1373 327.73 30.1956 327.761 30.2691L328.54 32.1518C328.571 32.2253 328.571 32.3077 328.54 32.3811C328.51 32.4545 328.451 32.5128 328.378 32.5433Z" fill="#3F3D56"/>
<path d="M344.108 18.5958L341.78 12.9759C341.603 12.5487 341.344 12.1606 341.017 11.8336C340.69 11.5066 340.301 11.2472 339.874 11.0702C339.446 10.8931 338.988 10.8019 338.526 10.8018C338.063 10.8016 337.605 10.8925 337.177 11.0693L325.258 15.9965C324.831 16.1733 324.442 16.4324 324.115 16.7592C323.788 17.086 323.528 17.474 323.351 17.901C323.173 18.328 323.082 18.7857 323.082 19.248C323.082 19.7103 323.173 20.168 323.35 20.5952L336.122 51.4264C336.299 51.8535 336.558 52.2417 336.885 52.5686C337.212 52.8956 337.601 53.155 338.028 53.3321C338.455 53.5091 338.914 53.6003 339.376 53.6005C339.839 53.6006 340.297 53.5097 340.725 53.333L352.644 48.4057C353.071 48.229 353.46 47.9698 353.787 47.643C354.114 47.3163 354.374 46.9283 354.551 46.5013C354.728 46.0742 354.82 45.6165 354.82 45.1543C354.82 44.692 354.729 44.2342 354.552 43.8071L345.765 22.5961C345.792 22.585 345.817 22.5686 345.838 22.548C345.858 22.5274 345.875 22.5029 345.886 22.476C345.897 22.4491 345.903 22.4202 345.903 22.3911C345.903 22.3619 345.897 22.333 345.886 22.3061L344.399 18.716C344.388 18.6891 344.371 18.6646 344.351 18.644C344.33 18.6234 344.305 18.607 344.278 18.5958C344.251 18.5847 344.223 18.5789 344.193 18.5789C344.164 18.5789 344.135 18.5846 344.108 18.5958Z" fill="#3F3D56"/>
<path d="M341.098 13.2841L353.851 44.0709C354.116 44.7104 354.118 45.4285 353.856 46.0693C353.595 46.7101 353.09 47.2218 352.453 47.4932C352.445 47.4982 352.436 47.5024 352.427 47.5058L340.451 52.457C339.806 52.7235 339.081 52.7232 338.436 52.4561C337.791 52.189 337.279 51.677 337.012 51.0326L324.258 20.2457C324.126 19.9267 324.058 19.5848 324.059 19.2396C324.059 18.8943 324.127 18.5525 324.26 18.2337C324.392 17.9148 324.586 17.6251 324.831 17.3812C325.075 17.1372 325.365 16.9438 325.685 16.8119L327.137 16.2115C327.138 16.4165 327.19 16.6182 327.287 16.7986C327.385 16.9791 327.525 17.1328 327.696 17.2463C327.867 17.3597 328.063 17.4294 328.267 17.4492C328.472 17.4689 328.678 17.4382 328.867 17.3596L335.695 14.5367C335.844 14.475 335.98 14.3843 336.093 14.2699C336.21 14.1549 336.303 14.0179 336.367 13.8668C336.431 13.7157 336.465 13.5535 336.466 13.3895C336.467 13.2255 336.435 13.0629 336.373 12.911C336.311 12.7592 336.22 12.6211 336.104 12.5046L337.661 11.8607C338.306 11.5943 339.03 11.5946 339.675 11.8615C340.319 12.1284 340.831 12.6401 341.098 13.2841Z" fill="#443CC5"/>
<path d="M327.046 29.3314C326.972 29.3617 326.89 29.3616 326.816 29.3312C326.743 29.3007 326.685 29.2424 326.654 29.1691L325.874 27.2863C325.844 27.2129 325.844 27.1304 325.874 27.057C325.905 26.9835 325.963 26.9252 326.037 26.8948C326.11 26.8645 326.193 26.8645 326.266 26.8949C326.34 26.9254 326.398 26.9837 326.429 27.0571L327.208 28.9399C327.239 29.0134 327.238 29.0958 327.208 29.1692C327.178 29.2426 327.119 29.3009 327.046 29.3314Z" fill="#3F3D56"/>
<path d="M325.478 25.6997C325.404 25.73 325.322 25.7299 325.248 25.6995C325.175 25.6691 325.117 25.6108 325.086 25.5374L324.306 23.6547C324.291 23.6183 324.283 23.5792 324.283 23.5398C324.283 23.5004 324.291 23.4613 324.306 23.4248C324.321 23.3884 324.343 23.3553 324.371 23.3274C324.399 23.2995 324.432 23.2773 324.468 23.2623C324.505 23.2472 324.544 23.2395 324.583 23.2395C324.623 23.2395 324.662 23.2474 324.698 23.2625C324.735 23.2777 324.768 23.2999 324.796 23.3279C324.824 23.3558 324.846 23.389 324.861 23.4255L325.64 25.3083C325.671 25.3817 325.671 25.4642 325.64 25.5376C325.61 25.6109 325.551 25.6693 325.478 25.6997Z" fill="#3F3D56"/>
<path d="M329.868 15.4531C329.838 15.3797 329.838 15.2972 329.869 15.2239C329.899 15.1505 329.957 15.0922 330.031 15.0617L331.916 14.2825C331.989 14.2521 332.072 14.2522 332.145 14.2826C332.219 14.313 332.277 14.3714 332.307 14.4448C332.338 14.5183 332.338 14.6008 332.307 14.6742C332.277 14.7476 332.218 14.8059 332.145 14.8363L330.26 15.6154C330.187 15.6457 330.104 15.6457 330.031 15.6152C329.957 15.5848 329.899 15.5265 329.868 15.4531Z" fill="white"/>
<path d="M333.083 14.4238C333.249 14.4238 333.383 14.2896 333.383 14.1241C333.383 13.9586 333.249 13.8245 333.083 13.8245C332.917 13.8245 332.783 13.9586 332.783 14.1241C332.783 14.2896 332.917 14.4238 333.083 14.4238Z" fill="white"/>
<path d="M398.137 147.383C398.099 147.383 398.061 147.383 398.023 147.381C397.578 147.365 397.143 147.242 396.755 147.022C396.368 146.801 396.04 146.491 395.798 146.117C393.988 143.415 391.768 141.012 389.216 138.995C387.672 137.762 386.058 136.615 384.497 135.506C380.471 132.646 376.678 129.952 374.573 126.23C369.984 118.113 375.389 106.808 383.11 101.738C391.771 96.0523 403.162 95.1603 414.182 95.0435C415.327 95.0314 416.473 95.0253 417.62 95.0254C437.476 95.033 457.29 96.8429 476.817 100.433C483.311 101.63 490.108 103.096 495.57 106.654C500.999 110.191 504.3 115.76 503.978 120.844C503.508 128.265 495.633 133.81 488.462 135.26C481.627 136.64 474.527 135.707 467.01 134.719C465.351 134.501 463.635 134.276 461.938 134.08C443.498 131.95 408.856 138.513 407.391 138.794L405.937 139.072L400.295 146.325C400.041 146.655 399.714 146.923 399.34 147.106C398.966 147.29 398.554 147.385 398.137 147.383Z" fill="#443CC5"/>
<path d="M480.254 111.181H402.313C401.863 111.181 401.432 111.003 401.114 110.685C400.796 110.367 400.617 109.936 400.617 109.487C400.617 109.038 400.796 108.607 401.114 108.289C401.432 107.971 401.863 107.793 402.313 107.793H480.254C480.704 107.793 481.135 107.971 481.453 108.289C481.771 108.607 481.95 109.038 481.95 109.487C481.95 109.936 481.771 110.367 481.453 110.685C481.135 111.003 480.704 111.181 480.254 111.181Z" fill="white"/>
<path d="M480.254 121.58H402.312C401.863 121.579 401.432 121.401 401.114 121.084C400.796 120.767 400.618 120.336 400.617 119.887C400.617 119.438 400.795 119.008 401.112 118.69C401.429 118.372 401.86 118.192 402.309 118.191H480.254C480.703 118.192 481.133 118.371 481.451 118.689C481.768 119.006 481.946 119.437 481.946 119.886C481.946 120.334 481.768 120.765 481.451 121.082C481.133 121.4 480.703 121.579 480.254 121.58Z" fill="white"/>
<path d="M411.397 131.978H402.314C401.865 131.977 401.434 131.798 401.117 131.481C400.799 131.163 400.621 130.733 400.621 130.284C400.621 129.835 400.799 129.405 401.117 129.087C401.434 128.769 401.865 128.591 402.314 128.59H411.397C411.846 128.591 412.277 128.769 412.594 129.087C412.911 129.405 413.09 129.835 413.09 130.284C413.09 130.733 412.911 131.163 412.594 131.481C412.277 131.798 411.846 131.977 411.397 131.978Z" fill="white"/>
<path d="M399.101 159.194C403.653 159.194 407.344 155.507 407.344 150.959C407.344 146.411 403.653 142.725 399.101 142.725C394.548 142.725 390.857 146.411 390.857 150.959C390.857 155.507 394.548 159.194 399.101 159.194Z" fill="white"/>
<path d="M399.102 159.295C397.451 159.295 395.838 158.806 394.466 157.89C393.094 156.974 392.024 155.672 391.393 154.149C390.761 152.626 390.596 150.95 390.918 149.333C391.24 147.716 392.035 146.231 393.202 145.065C394.369 143.9 395.855 143.106 397.474 142.784C399.092 142.463 400.77 142.628 402.295 143.259C403.819 143.889 405.122 144.958 406.039 146.328C406.956 147.699 407.445 149.311 407.445 150.959C407.443 153.169 406.563 155.288 404.999 156.851C403.435 158.413 401.314 159.292 399.102 159.295Z" fill="#3F3D56"/>
<path d="M398.484 154.251C398.466 154.251 398.449 154.25 398.431 154.249C398.276 154.242 398.124 154.201 397.986 154.129C397.848 154.058 397.728 153.957 397.632 153.834L396.255 152.065C396.168 151.953 396.104 151.826 396.066 151.689C396.028 151.553 396.018 151.41 396.036 151.27C396.053 151.13 396.098 150.994 396.168 150.871C396.238 150.748 396.332 150.64 396.444 150.553L396.493 150.515C396.605 150.428 396.733 150.364 396.87 150.326C397.006 150.288 397.149 150.278 397.289 150.296C397.43 150.313 397.566 150.358 397.689 150.428C397.812 150.498 397.92 150.592 398.007 150.704C398.077 150.793 398.165 150.866 398.265 150.918C398.366 150.97 398.476 151 398.589 151.006C398.703 151.011 398.816 150.992 398.921 150.95C399.026 150.908 399.121 150.844 399.198 150.761L401.995 147.812C402.192 147.604 402.463 147.484 402.749 147.476C403.035 147.468 403.312 147.574 403.52 147.77L403.566 147.814C403.669 147.911 403.752 148.028 403.809 148.157C403.867 148.286 403.899 148.426 403.903 148.567C403.906 148.708 403.882 148.849 403.832 148.981C403.781 149.113 403.705 149.234 403.607 149.337L399.267 153.914C399.166 154.02 399.045 154.105 398.91 154.163C398.776 154.221 398.631 154.251 398.484 154.251Z" fill="white"/>
<path d="M245.184 44.512L240.141 14.2149C240.039 13.6015 240.186 12.9731 240.548 12.4674C240.909 11.9617 241.457 11.62 242.071 11.5173L264.975 7.71252C265.589 7.61125 266.218 7.7574 266.725 8.1189C267.231 8.48041 267.573 9.02775 267.676 9.64085L272.719 39.9379C272.82 40.5513 272.674 41.1797 272.312 41.6854C271.95 42.1911 271.402 42.5328 270.788 42.6355L247.884 46.4403C247.27 46.5416 246.641 46.3954 246.135 46.0339C245.629 45.6724 245.287 45.1251 245.184 44.512Z" fill="#3F3D56"/>
<path d="M245.416 35.0692L242.174 15.5915C242.079 15.0171 242.216 14.4285 242.555 13.9549C242.894 13.4813 243.407 13.1613 243.982 13.0652L263.666 9.79526C264.241 9.70039 264.83 9.83725 265.304 10.1758C265.778 10.5144 266.099 11.027 266.195 11.6012L270.683 38.5615C270.778 39.1359 270.641 39.7244 270.302 40.1981C269.963 40.6717 269.45 40.9916 268.875 41.0878L256.681 43.1134C254.12 43.5359 251.495 42.9263 249.383 41.4182C247.272 39.9102 245.845 37.6269 245.416 35.0692Z" fill="white"/>
<path d="M246.267 20.4966C246.174 19.9353 246.308 19.3601 246.639 18.8973C246.97 18.4345 247.472 18.1218 248.034 18.0279L261.689 15.7595C261.967 15.7133 262.251 15.7223 262.526 15.786C262.801 15.8496 263.06 15.9667 263.29 16.1306C263.519 16.2945 263.714 16.5019 263.864 16.741C264.013 16.9802 264.113 17.2463 264.16 17.5243C264.206 17.8022 264.197 18.0866 264.133 18.3611C264.07 18.6356 263.952 18.8949 263.788 19.1241C263.624 19.3534 263.417 19.5481 263.177 19.6972C262.938 19.8462 262.671 19.9468 262.393 19.993L248.738 22.2613C248.176 22.354 247.601 22.2203 247.137 21.8894C246.674 21.5586 246.361 21.0577 246.267 20.4966Z" fill="#443CC5"/>
<path d="M247.363 27.082C247.27 26.5207 247.404 25.9456 247.735 25.4828C248.066 25.02 248.568 24.7073 249.129 24.6133L262.784 22.345C263.346 22.2516 263.922 22.3851 264.386 22.7161C264.849 23.047 265.162 23.5483 265.255 24.1097C265.349 24.6711 265.215 25.2466 264.884 25.7096C264.553 26.1726 264.051 26.4851 263.489 26.5784L249.834 28.8468C249.272 28.9395 248.696 28.8058 248.233 28.4749C247.77 28.1441 247.457 27.6431 247.363 27.082Z" fill="#443CC5"/>
<path d="M248.458 33.6675C248.366 33.1062 248.5 32.531 248.831 32.0682C249.162 31.6054 249.663 31.2927 250.225 31.1988L263.88 28.9304C264.158 28.8842 264.443 28.8932 264.718 28.9569C264.992 29.0205 265.252 29.1376 265.481 29.3015C265.711 29.4654 265.906 29.6728 266.055 29.9119C266.204 30.1511 266.305 30.4172 266.351 30.6952C266.397 30.9731 266.388 31.2575 266.325 31.532C266.261 31.8065 266.144 32.0658 265.98 32.295C265.816 32.5243 265.608 32.719 265.369 32.8681C265.129 33.0171 264.863 33.1177 264.585 33.1639L250.93 35.4322C250.368 35.5249 249.792 35.3912 249.329 35.0604C248.865 34.7295 248.552 34.2286 248.458 33.6675Z" fill="#443CC5"/>
<path d="M215.485 158.104C211.678 158.029 191.233 157.442 187.88 157.587C187.691 156.923 181.335 165.06 181.18 165.111C181.077 165.219 181.002 165.351 180.961 165.495C180.92 165.639 180.915 165.791 180.945 165.937C180.976 166.084 181.041 166.221 181.136 166.336C181.231 166.452 181.353 166.543 181.491 166.602C181.864 166.828 214.825 166.219 215.224 166.299C215.397 166.296 215.565 166.245 215.71 166.15C215.855 166.056 215.97 165.923 216.042 165.766L216.263 165.273C216.286 164.43 216.562 160.12 216.314 159.383C216.375 159.245 216.4 159.094 216.388 158.943C216.376 158.793 216.327 158.647 216.244 158.52C216.162 158.394 216.05 158.289 215.917 158.217C215.784 158.144 215.636 158.105 215.485 158.104Z" fill="#3F3D56"/>
<path opacity="0.17" d="M216.264 165.272C216.071 165.737 215.823 166.32 215.226 166.299L181.84 166.673C181.682 166.671 181.528 166.629 181.391 166.55C181.254 166.472 181.14 166.359 181.059 166.223C180.978 166.088 180.934 165.934 180.93 165.776C180.926 165.618 180.963 165.462 181.037 165.323L216.264 165.272Z" fill="black"/>
<path d="M188.037 157.487C187.677 156.866 178.752 112.746 178.007 112.377L171.913 104.93L171.368 104.521C170.611 104.105 168.794 104.387 168.958 105.542C170.389 112.399 179.598 151.452 179.799 157.54L180.908 165.297C180.928 165.429 180.975 165.555 181.047 165.668C181.118 165.781 181.213 165.877 181.324 165.951C181.435 166.025 181.561 166.075 181.692 166.097C181.824 166.12 181.959 166.114 182.088 166.082C182.406 166.047 182.71 165.931 182.969 165.744C183.228 165.557 183.433 165.306 183.566 165.015C183.649 164.742 188.454 157.646 188.037 157.487Z" fill="#3F3D56"/>
<path opacity="0.17" d="M171.912 104.93L183.568 165.017C183.178 166.002 181.354 166.693 180.929 165.4C180.922 165.398 168.972 105.579 168.96 105.543C168.833 104.104 171.214 104.058 171.912 104.93Z" fill="black"/>
<path d="M172.262 107.387L178.181 115.63L184.826 147.152L181.737 149.844L172.262 107.387Z" fill="#443CC5"/>
<path d="M211.664 162.355L213.302 162.421C213.327 161.942 213.407 161.467 213.538 161.006C213.784 159.837 214.005 158.447 212.983 158.452C212.29 158.385 212.054 159.262 211.931 160.216C211.899 160.935 211.81 161.65 211.664 162.355Z" fill="#2F2E41"/>
<path d="M202.27 160.154L203.373 160.195L203.907 160.216C203.896 159.631 204.169 158.426 203.506 158.129C203.401 158.083 203.287 158.061 203.173 158.062C202.552 158.026 202.367 158.498 202.311 159.042C202.275 159.37 202.29 159.718 202.28 159.99C202.28 160.047 202.275 160.103 202.27 160.154Z" fill="#2F2E41"/>
<path d="M199 160.021L200.109 160.067L200.637 160.088C200.627 159.416 200.981 157.949 199.903 157.929C198.908 157.872 199.036 159.139 199.01 159.857C199.01 159.913 199.005 159.97 199 160.021Z" fill="#2F2E41"/>
<path d="M195.73 159.893L196.834 159.934L197.368 159.954C197.357 159.288 197.712 157.821 196.634 157.801C195.638 157.739 195.766 159.006 195.741 159.729C195.741 159.785 195.736 159.842 195.73 159.893Z" fill="#2F2E41"/>
<path d="M192.459 159.76L193.568 159.806L194.096 159.826C194.086 159.154 194.44 157.693 193.362 157.667C192.367 157.611 192.495 158.877 192.469 159.595C192.469 159.652 192.464 159.708 192.459 159.76Z" fill="#2F2E41"/>
<path d="M189.189 159.631L190.293 159.672L190.827 159.693C190.816 159.077 191.114 157.79 190.324 157.57H190.319C190.245 157.548 190.169 157.538 190.093 157.539C190 157.531 189.906 157.539 189.816 157.565H189.81C189.123 157.744 189.22 158.821 189.2 159.467C189.2 159.524 189.195 159.58 189.189 159.631Z" fill="#2F2E41"/>
<path d="M208.363 159.283L210.001 159.349C210.001 159.288 210.001 159.221 210.006 159.144C210.046 158.754 210.053 158.361 210.026 157.97C209.97 157.539 209.785 157.2 209.267 157.19C208.738 157.159 208.528 157.498 208.445 157.934C208.426 158.008 208.413 158.083 208.404 158.159V158.165C208.363 158.565 208.389 158.995 208.363 159.283Z" fill="#2F2E41"/>
<path d="M205.094 159.149L206.731 159.216C206.766 158.776 206.776 158.334 206.762 157.893C206.716 157.441 206.536 157.072 205.997 157.062C205.453 157.026 205.243 157.395 205.16 157.852C205.083 158.293 205.125 158.821 205.094 159.149Z" fill="#2F2E41"/>
<path d="M201.824 159.021L202.312 159.041L203.461 159.088C203.456 158.841 203.502 158.482 203.508 158.129C203.512 158.022 203.509 157.916 203.497 157.811C203.456 157.334 203.287 156.939 202.728 156.928C202.158 156.898 201.958 157.293 201.886 157.775C201.814 158.205 201.855 158.703 201.824 159.021Z" fill="#2F2E41"/>
<path d="M208.395 162.226L210.032 162.288C210.027 161.621 210.376 160.155 209.298 160.134C208.22 160.067 208.456 161.555 208.395 162.226Z" fill="#2F2E41"/>
<path d="M205.123 162.093L206.76 162.16C206.755 161.488 207.104 160.021 206.026 160.001C204.949 159.939 205.185 161.427 205.123 162.093Z" fill="#2F2E41"/>
<path d="M201.854 161.965L203.491 162.026C203.486 161.549 203.665 160.667 203.373 160.195C203.309 160.091 203.218 160.006 203.109 159.949C203.001 159.892 202.879 159.865 202.757 159.872C202.589 159.854 202.42 159.896 202.279 159.99C201.756 160.334 201.905 161.421 201.854 161.965Z" fill="#2F2E41"/>
<path d="M198.584 161.832L200.221 161.898C200.216 161.421 200.391 160.544 200.108 160.067C200.045 159.961 199.953 159.875 199.844 159.817C199.734 159.759 199.611 159.732 199.487 159.739C199.319 159.721 199.15 159.762 199.01 159.857C198.486 160.211 198.635 161.293 198.584 161.832Z" fill="#2F2E41"/>
<path d="M195.312 161.703L196.95 161.765C196.945 161.288 197.124 160.406 196.832 159.934C196.768 159.83 196.677 159.744 196.568 159.687C196.46 159.631 196.338 159.604 196.216 159.611C196.048 159.593 195.879 159.635 195.738 159.729C195.215 160.072 195.364 161.16 195.312 161.703Z" fill="#2F2E41"/>
<path d="M192.043 161.57L193.68 161.637C193.675 161.16 193.85 160.283 193.567 159.806C193.504 159.699 193.413 159.612 193.303 159.554C193.193 159.496 193.07 159.47 192.946 159.477C192.778 159.459 192.609 159.501 192.469 159.595C191.945 159.949 192.094 161.031 192.043 161.57Z" fill="#2F2E41"/>
<path d="M188.773 161.442L190.411 161.503C190.406 161.026 190.58 160.149 190.293 159.672C190.229 159.567 190.138 159.482 190.03 159.425C189.921 159.368 189.799 159.342 189.677 159.349C189.509 159.331 189.34 159.373 189.199 159.467C188.676 159.816 188.825 160.898 188.773 161.442Z" fill="#2F2E41"/>
</svg>
