<svg width="40" height="40" viewBox="0 0 40 40" fill="none" xmlns="http://www.w3.org/2000/svg">
<path d="M20.5477 1.99884C19.643 0.717334 18.102 0.0271709 16.5565 0.295382C7.15169 1.92749 0 10.1286 0 20C0 29.8715 7.15165 38.0725 16.5564 39.7047C18.1019 39.9729 19.643 39.2827 20.5476 38.0012C24.1398 32.9124 26.25 26.7026 26.25 20C26.25 13.2974 24.1399 7.08765 20.5477 1.99884Z" fill="#443CC5"/>
<path opacity="0.8" d="M28.1544 2.41821C30.8457 7.69498 32.3633 13.6703 32.3633 20C32.3633 26.3298 30.8456 32.3051 28.1543 37.5819C34.3845 34.1939 38.6133 27.5908 38.6133 20.0001C38.6133 12.4093 34.3846 5.80628 28.1544 2.41821Z" fill="#443CC5" fill-opacity="0.48"/>
</svg>
