<svg width="18" height="18" viewBox="0 0 18 18" fill="none" xmlns="http://www.w3.org/2000/svg">
<path d="M5.75139 5.28C5.15139 5.025 4.89639 4.2825 5.25639 3.7425C5.98389 2.6625 7.19889 1.875 8.80389 1.875C10.5664 1.875 11.7739 2.6775 12.3889 3.6825C12.9139 4.545 13.2214 6.1575 12.4114 7.3575C11.5114 8.685 10.6489 9.09 10.1839 9.945C10.0714 10.1475 10.0039 10.3125 9.95889 10.65C9.89139 11.1975 9.44139 11.625 8.88639 11.625C8.23389 11.625 7.70139 11.0625 7.77639 10.41C7.82139 10.0275 7.91139 9.63 8.12139 9.255C8.69889 8.2125 9.80889 7.5975 10.4539 6.675C11.1364 5.7075 10.7539 3.9 8.81889 3.9C7.94139 3.9 7.37139 4.3575 7.01889 4.905C6.75639 5.3325 6.20889 5.4675 5.75139 5.28ZM10.3114 14.625C10.3114 15.45 9.63639 16.125 8.81139 16.125C7.98639 16.125 7.31139 15.45 7.31139 14.625C7.31139 13.8 7.98639 13.125 8.81139 13.125C9.63639 13.125 10.3114 13.8 10.3114 14.625Z" fill="#919EAB" fill-opacity="0.72"/>
</svg>
