<svg width="36" height="36" viewBox="0 0 36 36" fill="none" xmlns="http://www.w3.org/2000/svg">
<path opacity="0.32" fill-rule="evenodd" clip-rule="evenodd" d="M19.8994 9.79341C19.5911 9.66675 19.1994 9.66675 18.4169 9.66675C17.6344 9.66675 17.2428 9.66675 16.9344 9.79341C16.524 9.96192 16.1972 10.2866 16.0261 10.6959C15.9478 10.8817 15.9178 11.0992 15.9053 11.4151C15.8997 11.6439 15.8359 11.8676 15.7198 12.0648C15.6037 12.2621 15.4393 12.4266 15.2419 12.5426C15.0409 12.6543 14.8149 12.7135 14.5849 12.7147C14.3549 12.7159 14.1283 12.659 13.9261 12.5492C13.6444 12.4009 13.4403 12.3192 13.2386 12.2926C12.7974 12.2347 12.3512 12.3532 11.9969 12.6226C11.7319 12.8242 11.5361 13.1609 11.1453 13.8334C10.7536 14.5059 10.5586 14.8417 10.5144 15.1709C10.4561 15.6092 10.5761 16.0526 10.8478 16.4034C10.9711 16.5634 11.1453 16.6976 11.4144 16.8659C11.8119 17.1134 12.0669 17.5351 12.0669 18.0001C12.0669 18.4651 11.8119 18.8867 11.4153 19.1334C11.1453 19.3026 10.9711 19.4367 10.8469 19.5967C10.7128 19.77 10.6144 19.9682 10.5573 20.1797C10.5003 20.3913 10.4857 20.612 10.5144 20.8292C10.5586 21.1576 10.7536 21.4942 11.1453 22.1667L11.1499 22.1748C11.5385 22.8419 11.733 23.1759 11.9969 23.3776C12.3503 23.6467 12.7969 23.7651 13.2386 23.7076C13.4403 23.6809 13.6444 23.5992 13.9261 23.4509C14.1284 23.3411 14.3551 23.2841 14.5853 23.2852C14.8155 23.2864 15.0416 23.3457 15.2428 23.4576C15.6478 23.6909 15.8878 24.1201 15.9053 24.5851C15.9178 24.9017 15.9478 25.1184 16.0261 25.3042C16.1961 25.7126 16.5228 26.0376 16.9344 26.2067C17.2428 26.3334 17.6344 26.3334 18.4169 26.3334C19.1994 26.3334 19.5911 26.3334 19.8994 26.2067C20.3099 26.0382 20.6366 25.7136 20.8078 25.3042C20.8861 25.1184 20.9161 24.9017 20.9286 24.5851C20.9453 24.1201 21.1861 23.6901 21.5919 23.4576C21.793 23.3458 22.019 23.2866 22.249 23.2855C22.479 23.2843 22.7056 23.3412 22.9078 23.4509C23.1894 23.5992 23.3936 23.6809 23.5953 23.7076C24.0369 23.7659 24.4836 23.6467 24.8369 23.3776C25.1019 23.1759 25.2978 22.8392 25.6886 22.1667C26.0803 21.4942 26.2753 21.1584 26.3194 20.8292C26.3481 20.612 26.3333 20.3912 26.2761 20.1796C26.2189 19.9681 26.1203 19.77 25.9861 19.5967C25.8628 19.4367 25.6886 19.3026 25.4194 19.1342C25.0219 18.8867 24.7669 18.4651 24.7669 18.0001C24.7669 17.5351 25.0219 17.1134 25.4186 16.8667C25.6886 16.6976 25.8628 16.5634 25.9869 16.4034C26.121 16.2301 26.2195 16.032 26.2765 15.8204C26.3336 15.6089 26.3482 15.3881 26.3194 15.1709C26.2753 14.8426 26.0803 14.5059 25.6886 13.8334L25.6839 13.8254C25.2954 13.1582 25.1009 12.8243 24.8369 12.6226C24.4827 12.3532 24.0365 12.2347 23.5953 12.2926C23.3936 12.3192 23.1894 12.4009 22.9078 12.5492C22.7055 12.6591 22.4787 12.7161 22.2486 12.7149C22.0184 12.7138 21.7922 12.6545 21.5911 12.5426C21.3939 12.4265 21.2296 12.262 21.1137 12.0647C20.9978 11.8674 20.9341 11.6438 20.9286 11.4151C20.9161 11.0984 20.8861 10.8817 20.8078 10.6959C20.7231 10.4932 20.5992 10.3092 20.4434 10.1543C20.2875 9.99944 20.1027 9.87681 19.8994 9.79341ZM20.9355 18.0001C20.9355 19.3809 19.8071 20.5001 18.4163 20.5001C17.0246 20.5001 15.8971 19.3809 15.8971 18.0001C15.8971 16.6192 17.0246 15.5001 18.4163 15.5001C19.808 15.5001 20.9355 16.6192 20.9355 18.0001Z" fill="#637381"/>
<path d="M20.9358 18C20.9358 19.3808 19.8075 20.5 18.4166 20.5C17.025 20.5 15.8975 19.3808 15.8975 18C15.8975 16.6192 17.025 15.5 18.4166 15.5C19.8083 15.5 20.9358 16.6192 20.9358 18Z" fill="#637381"/>
</svg>
