<svg width="188" height="124" viewBox="0 0 188 124" fill="none" xmlns="http://www.w3.org/2000/svg">
<g clip-path="url(#clip0_1088_2995)">
<path d="M67.4363 71.3636C73.8791 60.1152 86.1688 51.4783 99.1786 52.3103C89.5822 62.6675 83.9864 76.0597 83.3811 90.1175C83.1675 95.5398 83.4988 101.593 79.8712 105.653C77.6141 108.179 74.1641 109.403 70.772 109.66C67.3797 109.916 63.9882 109.308 60.6412 108.702L59.8294 108.95C59.5203 96.0144 60.9935 82.612 67.4363 71.3636Z" fill="#F0F0F0"/>
<path d="M99.1981 52.5812C89.5776 57.1777 81.3744 64.8544 76.3386 74.2167C75.2499 76.2408 74.323 78.3882 73.9186 80.6586C73.5141 82.93 73.7967 85.0922 74.5784 87.2496C75.293 89.2219 76.2541 91.1572 76.4733 93.2675C76.7042 95.492 75.8796 97.5718 74.3952 99.2225C72.5789 101.242 70.1398 102.494 67.7117 103.635C65.0158 104.903 62.1953 106.177 60.2858 108.543C60.0544 108.829 59.6198 108.456 59.8508 108.17C63.173 104.054 68.8598 103.281 72.8033 99.965C74.6433 98.4178 76.0248 96.311 75.9376 93.8423C75.8614 91.6836 74.872 89.6871 74.131 87.6963C73.353 85.606 72.965 83.5042 73.244 81.2756C73.5294 78.9958 74.3737 76.808 75.4055 74.7651C77.7325 70.158 80.917 65.9283 84.565 62.272C88.7577 58.0691 93.6438 54.6091 99.0121 52.0416C99.3444 51.8828 99.5283 52.4235 99.1981 52.5812Z" fill="white"/>
<path d="M77.8125 71.0868C76.3376 70.0165 75.2941 68.4607 74.8683 66.6973C74.4426 64.9339 74.6622 63.0777 75.4881 61.4602C75.6563 61.1335 76.1758 61.3776 76.0073 61.7047C75.2355 63.2095 75.031 64.9386 75.4309 66.5799C75.8308 68.2212 76.8086 69.6665 78.1879 70.6551C78.4874 70.8703 78.1102 71.3007 77.8125 71.0868Z" fill="white"/>
<path d="M74.0822 86.296C77.7779 85.7601 81.1342 83.8614 83.482 80.9785C83.7144 80.6927 84.1491 81.0656 83.917 81.3511C81.4682 84.3466 77.9713 86.3154 74.1243 86.8648C73.7576 86.9169 73.7175 86.3478 74.0822 86.296Z" fill="white"/>
<path d="M89.0396 58.7709C89.5233 59.303 90.1326 59.7076 90.8128 59.9482C91.493 60.1889 92.2228 60.2582 92.9366 60.1497C93.3024 60.093 93.3421 60.6621 92.9786 60.7185C92.1894 60.8346 91.3836 60.7572 90.6315 60.4929C89.8794 60.2287 89.204 59.7856 88.6642 59.2025C88.6087 59.1518 88.5747 59.082 88.5692 59.0073C88.5636 58.9326 88.587 58.8586 88.6344 58.8004C88.6844 58.7435 88.755 58.7084 88.8309 58.7029C88.9068 58.6974 88.9818 58.7218 89.0396 58.7709Z" fill="white"/>
<path d="M125.064 87.7937C124.836 87.8355 124.609 87.8774 124.379 87.9236C121.325 88.5019 118.322 89.3257 115.402 90.3866C115.175 90.4651 114.946 90.548 114.721 90.6328C107.713 93.2632 101.257 97.1622 95.683 102.132C93.4666 104.111 91.4052 106.255 89.5166 108.545C86.9086 111.707 84.3343 115.342 80.9263 117.404C80.5732 117.623 80.2067 117.82 79.829 117.995L60.1961 109.912C60.1608 109.872 60.1234 109.835 60.0878 109.795L59.2891 109.508C59.3782 109.383 59.4733 109.255 59.5624 109.13C59.6137 109.058 59.6695 108.987 59.7209 108.914C59.7565 108.866 59.7924 108.819 59.8218 108.773C59.8336 108.757 59.8456 108.742 59.8555 108.73C59.8849 108.685 59.9171 108.646 59.9446 108.605C60.4743 107.891 61.0099 107.178 61.5515 106.469C61.5533 106.464 61.5533 106.464 61.5596 106.462C65.7002 101.064 70.3312 95.9624 75.5952 91.7205C75.7536 91.5929 75.9137 91.4608 76.0811 91.3369C78.4645 89.438 81.0004 87.7355 83.6633 86.2465C85.1241 85.4359 86.6253 84.6991 88.1611 84.0392C92.1328 82.3414 96.3488 81.2742 100.655 80.8767C109.238 80.0857 117.981 82.028 124.565 87.3799C124.733 87.5169 124.897 87.6522 125.064 87.7937Z" fill="#F0F0F0"/>
<path d="M124.915 88.0238C114.445 85.9452 103.238 87.1728 93.5379 91.639C91.4407 92.6046 89.398 93.7652 87.6979 95.3364C85.997 96.9083 84.9109 98.8036 84.2263 100.993C83.6005 102.995 83.1939 105.115 82.0886 106.93C80.9237 108.845 79.0035 110.012 76.8169 110.443C74.1416 110.971 71.4349 110.513 68.8036 109.973C65.8821 109.374 62.8572 108.706 59.8974 109.454C59.5388 109.545 59.4181 108.987 59.7762 108.897C64.9256 107.596 69.9355 110.376 75.0955 110.085C77.5032 109.949 79.8843 109.093 81.3123 107.069C82.5609 105.3 82.9821 103.115 83.5982 101.083C84.245 98.9486 85.2102 97.0386 86.7849 95.4259C88.3958 93.7762 90.3971 92.5339 92.4602 91.5193C97.113 89.2312 102.221 87.7569 107.352 87.0174C113.249 86.167 119.25 86.324 125.093 87.4818C125.455 87.5536 125.274 88.0951 124.915 88.0238Z" fill="white"/>
<path d="M96.6142 90.0223C96.0859 88.2864 96.1965 86.4207 96.9263 84.7583C97.656 83.0959 98.9575 81.745 100.598 80.947C100.931 80.7867 101.197 81.292 100.864 81.4526C99.3352 82.1929 98.123 83.4513 97.4466 85.0007C96.7703 86.5501 96.6742 88.2884 97.1758 89.9019C97.2844 90.2527 96.7222 90.371 96.6142 90.0223Z" fill="white"/>
<path d="M84.4111 99.9359C87.687 101.716 91.5186 102.206 95.142 101.307C95.501 101.218 95.6218 101.775 95.2633 101.864C91.4909 102.793 87.5045 102.275 84.0997 100.415C83.7753 100.238 84.0884 99.7594 84.4111 99.9359Z" fill="white"/>
<path d="M113.051 86.8966C113.114 87.6105 113.355 88.2976 113.752 88.8962C114.149 89.4948 114.69 89.9862 115.326 90.3261C115.652 90.4995 115.339 90.9776 115.014 90.8054C114.314 90.4265 113.717 89.8832 113.277 89.2228C112.837 88.5624 112.566 87.805 112.489 87.0169C112.476 86.9432 112.491 86.8672 112.532 86.8042C112.573 86.7413 112.636 86.6962 112.709 86.678C112.784 86.6625 112.861 86.6767 112.925 86.7176C112.989 86.7585 113.034 86.8228 113.051 86.8966Z" fill="white"/>
<path d="M87.664 101.13C84.9145 87.9351 81.4775 83.536 81.4775 83.536L80.1645 82.5254L78.5856 81.3081L78.5932 81.1516L78.2187 81.0253L78.1307 80.9575L77.9865 80.8476L77.9634 80.8723L77.9144 80.9226L70.7693 78.5122L61.7046 75.4563L57.5071 70.0413C56.8234 69.1594 55.9433 68.4466 54.9357 67.9588C53.928 67.471 52.8202 67.2215 51.6992 67.2297L38.2936 67.3281C36.481 67.3415 34.7389 68.0272 33.41 69.2507L24.5987 77.3624L10.869 83.8703L10.8458 83.8473L10.7017 83.9495L8.58029 84.9562L8.66783 85.4085L7.35484 86.3488C7.35484 86.3488 3.91792 90.4421 1.16837 102.719C0.468919 105.843 0.124622 112.545 0.000349232 120.802C-0.00589297 121.22 0.0716011 121.635 0.228323 122.023C0.385046 122.41 0.617871 122.763 0.913261 123.061C1.20865 123.359 1.56071 123.595 1.94897 123.756C2.33724 123.918 2.75395 124.001 3.17489 124.001H76.5079L85.6608 124.001C86.0814 124.001 86.4978 123.918 86.8858 123.757C87.2739 123.595 87.6257 123.359 87.9211 123.062C88.2164 122.765 88.4493 122.412 88.6063 122.025C88.7632 121.637 88.8411 121.223 88.8354 120.806C88.714 111.82 88.3698 104.517 87.664 101.13Z" fill="#3F3D56"/>
<path d="M97.072 11.5068C94.2189 11.5068 91.4827 12.6317 89.4653 14.634C87.4478 16.6362 86.3145 19.3519 86.3145 22.1835C86.3145 25.0152 87.4478 27.7308 89.4653 29.7331C91.4827 31.7354 94.2189 32.8602 97.072 32.8602H177.241C180.095 32.8602 182.831 31.7354 184.848 29.7331C186.866 27.7308 187.999 25.0152 187.999 22.1835C187.999 19.3519 186.866 16.6362 184.848 14.634C182.831 12.6317 180.095 11.5068 177.241 11.5068H97.072Z" fill="#E5E5E5"/>
<path d="M97.0726 13.667C94.7969 13.667 92.6145 14.5642 91.0053 16.1613C89.3962 17.7583 88.4922 19.9244 88.4922 22.1829C88.4922 24.4415 89.3962 26.6076 91.0053 28.2046C92.6145 29.8017 94.7969 30.6989 97.0726 30.6989H177.242C179.518 30.6989 181.7 29.8017 183.309 28.2046C184.919 26.6076 185.823 24.4415 185.823 22.1829C185.823 19.9244 184.919 17.7583 183.309 16.1613C181.7 14.5642 179.518 13.667 177.242 13.667H97.0726Z" fill="white"/>
<path d="M47.1017 62.2304C56.8013 62.2304 64.6643 54.4265 64.6643 44.7998C64.6643 35.1731 56.8013 27.3691 47.1017 27.3691C37.4021 27.3691 29.5391 35.1731 29.5391 44.7998C29.5391 54.4265 37.4021 62.2304 47.1017 62.2304Z" fill="#9E616A"/>
<path d="M42.6088 61.3775C42.5339 61.2135 42.4592 61.0489 42.3848 60.8838C42.4135 60.8847 42.4419 60.8888 42.4706 60.8896L42.6088 61.3775Z" fill="#2F2E41"/>
<path d="M29.0502 28.1622C29.9385 27.4589 30.9767 26.8118 32.1124 26.8482C33.248 26.8845 34.3997 27.9025 34.1644 29.0058C36.2504 25.3401 39.5707 22.5208 43.5425 21.0427C47.5142 19.5646 51.8837 19.5221 55.8838 20.9228C58.7065 21.9112 61.4745 23.8885 62.1229 26.7886C62.2893 27.5331 62.3251 28.3494 62.7934 28.9539C63.3839 29.7161 64.5138 29.8885 65.4441 29.6204C65.4534 29.6177 65.4627 29.615 65.472 29.6122C65.6291 29.559 65.7988 29.5537 65.959 29.5972C66.1192 29.6407 66.2625 29.7308 66.3705 29.8561C66.4785 29.9813 66.5462 30.1358 66.5647 30.2996C66.5833 30.4634 66.5519 30.6289 66.4746 30.7748L65.676 32.2531C66.6827 32.4758 67.7288 32.4538 68.7251 32.1888C68.8906 32.1457 69.0655 32.1545 69.2258 32.2139C69.386 32.2734 69.5239 32.3806 69.6203 32.5209C69.7167 32.6612 69.7671 32.8276 69.7644 32.9974C69.7618 33.1672 69.7063 33.332 69.6055 33.4693C66.9721 37.0577 62.5724 39.3749 58.0826 39.3477C54.8916 39.3284 51.6677 38.2369 48.562 38.9652C47.3606 39.2469 46.238 39.7921 45.2765 40.5606C44.315 41.3291 43.5391 42.3015 43.0057 43.4065C42.4723 44.5115 42.1949 45.7209 42.1938 46.9462C42.1928 48.1714 42.4682 49.3814 42.9998 50.4872C42.0457 49.4515 40.2014 49.6967 39.2255 50.7122C38.2496 51.7277 37.9969 53.2433 38.0953 54.6432C38.2456 56.7844 39.0909 58.802 39.982 60.7656C32.511 60.5322 25.4447 55.3308 23.0662 48.2958C20.6777 41.2314 23.181 32.8091 29.0502 28.1622Z" fill="#2F2E41"/>
<path opacity="0.2" d="M17.2871 97.1455L22.213 123.745L25.1687 124.001L17.2871 97.1455Z" fill="black"/>
<path opacity="0.2" d="M71.5457 95.1387L66.6197 123.725L63.6641 124L71.5457 95.1387Z" fill="black"/>
<path d="M33.2515 19.2096C32.307 19.601 31.3215 19.172 30.9082 18.1897C30.4885 17.1923 30.8805 16.1798 31.8401 15.7821C32.7998 15.3844 33.7678 15.8144 34.1941 16.8279C34.6141 17.8262 34.2265 18.8055 33.2515 19.2096ZM31.4423 13.8189L30.6913 14.1302C30.5037 14.207 30.2939 14.2111 30.1033 14.1418C29.9128 14.0724 29.7554 13.9346 29.6624 13.7556L29.6252 13.6835C28.8172 12.2372 28.7247 10.4794 29.3517 8.46175C29.9326 6.6518 30.1738 5.37886 29.6886 4.22565C29.1277 2.89232 27.9298 2.47466 26.4022 3.0797C25.8098 3.32522 25.6212 3.32131 25.155 3.78035C25.0536 3.88141 24.9327 3.96118 24.7996 4.01487C24.6664 4.06857 24.5237 4.09511 24.38 4.09291C24.2411 4.09128 24.1039 4.06191 23.9767 4.00654C23.8495 3.95117 23.7348 3.87094 23.6394 3.77063C23.4558 3.57731 23.3529 3.32204 23.3516 3.05636C23.3502 2.79068 23.4505 2.53438 23.6322 2.33924C24.4158 1.52506 25.361 0.880939 26.4081 0.447525C29.6902 -0.912651 31.3424 1.09545 32.0985 2.89252C32.838 4.65025 32.422 6.28114 31.7536 8.3933C31.1935 10.1484 31.2261 11.4489 31.8624 12.7419C31.9083 12.8397 31.9339 12.9457 31.9375 13.0535C31.9412 13.1613 31.9228 13.2687 31.8836 13.3693C31.8443 13.4699 31.785 13.5616 31.7092 13.6388C31.6333 13.7161 31.5425 13.7774 31.4423 13.8189Z" fill="#6C63FF"/>
<path d="M114.781 27.2765H98.8302C98.7795 27.2768 98.7293 27.2672 98.6823 27.2482C98.6354 27.2292 98.5928 27.2012 98.5568 27.1657C98.5209 27.1303 98.4923 27.0881 98.4729 27.0417C98.4534 26.9952 98.4434 26.9454 98.4434 26.8951C98.4434 26.8448 98.4534 26.795 98.4729 26.7485C98.4923 26.7021 98.5209 26.6599 98.5568 26.6245C98.5928 26.589 98.6354 26.561 98.6823 26.542C98.7293 26.523 98.7795 26.5133 98.8302 26.5137H114.781C114.882 26.5144 114.979 26.5548 115.051 26.6263C115.122 26.6978 115.163 26.7944 115.163 26.8951C115.163 26.9958 115.122 27.0924 115.051 27.1639C114.979 27.2353 114.882 27.2758 114.781 27.2765Z" fill="#6C63FF"/>
<path d="M135.015 27.4015H119.065C119.014 27.4018 118.964 27.3922 118.917 27.3732C118.87 27.3542 118.827 27.3262 118.791 27.2907C118.755 27.2553 118.727 27.2131 118.707 27.1667C118.688 27.1202 118.678 27.0704 118.678 27.0201C118.678 26.9698 118.688 26.92 118.707 26.8735C118.727 26.8271 118.755 26.7849 118.791 26.7495C118.827 26.714 118.87 26.686 118.917 26.667C118.964 26.648 119.014 26.6383 119.065 26.6387H135.015C135.066 26.6383 135.116 26.648 135.163 26.667C135.21 26.686 135.253 26.714 135.289 26.7495C135.325 26.7849 135.353 26.8271 135.373 26.8735C135.392 26.92 135.402 26.9698 135.402 27.0201C135.402 27.0704 135.392 27.1202 135.373 27.1667C135.353 27.2131 135.325 27.2553 135.289 27.2907C135.253 27.3262 135.21 27.3542 135.163 27.3732C135.116 27.3922 135.066 27.4018 135.015 27.4015Z" fill="#6C63FF"/>
<path d="M155.25 27.5304H139.3C139.198 27.5297 139.101 27.4892 139.03 27.4178C138.958 27.3463 138.918 27.2497 138.918 27.149C138.918 27.0483 138.958 26.9517 139.03 26.8802C139.101 26.8088 139.198 26.7683 139.3 26.7676H155.25C155.301 26.7672 155.351 26.7769 155.398 26.7959C155.445 26.8149 155.488 26.8429 155.524 26.8784C155.56 26.9138 155.588 26.956 155.608 27.0024C155.627 27.0489 155.637 27.0987 155.637 27.149C155.637 27.1993 155.627 27.2491 155.608 27.2956C155.588 27.342 155.56 27.3842 155.524 27.4196C155.488 27.4551 155.445 27.4831 155.398 27.5021C155.351 27.5211 155.301 27.5307 155.25 27.5304Z" fill="#6C63FF"/>
<path d="M175.485 27.6573H159.534C159.432 27.6567 159.335 27.6162 159.264 27.5447C159.192 27.4733 159.152 27.3766 159.152 27.2759C159.152 27.1752 159.192 27.0786 159.264 27.0072C159.335 26.9357 159.432 26.8952 159.534 26.8945H175.485C175.586 26.8952 175.683 26.9357 175.755 27.0072C175.826 27.0786 175.866 27.1752 175.866 27.2759C175.866 27.3766 175.826 27.4733 175.755 27.5447C175.683 27.6162 175.586 27.6567 175.485 27.6573Z" fill="#6C63FF"/>
<path d="M106.771 23.7664C108.408 23.7664 109.736 22.4491 109.736 20.8241C109.736 19.1991 108.408 17.8818 106.771 17.8818C105.134 17.8818 103.807 19.1991 103.807 20.8241C103.807 22.4491 105.134 23.7664 106.771 23.7664Z" fill="#6C63FF"/>
<path d="M127.129 23.7664C128.766 23.7664 130.093 22.4491 130.093 20.8241C130.093 19.1991 128.766 17.8818 127.129 17.8818C125.491 17.8818 124.164 19.1991 124.164 20.8241C124.164 22.4491 125.491 23.7664 127.129 23.7664Z" fill="#6C63FF"/>
<path d="M147.484 23.7664C149.121 23.7664 150.449 22.4491 150.449 20.8241C150.449 19.1991 149.121 17.8818 147.484 17.8818C145.847 17.8818 144.52 19.1991 144.52 20.8241C144.52 22.4491 145.847 23.7664 147.484 23.7664Z" fill="#6C63FF"/>
<path d="M167.842 23.7664C169.479 23.7664 170.806 22.4491 170.806 20.8241C170.806 19.1991 169.479 17.8818 167.842 17.8818C166.204 17.8818 164.877 19.1991 164.877 20.8241C164.877 22.4491 166.204 23.7664 167.842 23.7664Z" fill="#6C63FF"/>
</g>
<defs>
<clipPath id="clip0_1088_2995">
<rect width="188" height="124" fill="white"/>
</clipPath>
</defs>
</svg>
