<svg width="40" height="40" viewBox="0 0 40 40" fill="none" xmlns="http://www.w3.org/2000/svg">
<path d="M20.5477 1.99908C19.643 0.717579 18.102 0.027415 16.5565 0.295626C7.15169 1.92773 0 10.1288 0 20.0003C0 29.8717 7.15165 38.0728 16.5564 39.7049C18.1019 39.9731 19.643 39.283 20.5476 38.0015C24.1398 32.9127 26.25 26.7029 26.25 20.0002C26.25 13.2976 24.1399 7.08789 20.5477 1.99908Z" fill="#443CC5"/>
<path opacity="0.8" d="M28.1544 2.41797C30.8457 7.69474 32.3633 13.67 32.3633 19.9998C32.3633 26.3296 30.8456 32.3049 28.1543 37.5817C34.3845 34.1936 38.6133 27.5906 38.6133 19.9998C38.6133 12.4091 34.3846 5.80603 28.1544 2.41797Z" fill="#443CC5" fill-opacity="0.48"/>
</svg>
