<svg width="148" height="148" viewBox="0 0 148 148" fill="none" xmlns="http://www.w3.org/2000/svg">
<g filter="url(#filter0_dd_943_58116)">
<path d="M74 136C110.451 136 140 106.451 140 70C140 33.5492 110.451 4 74 4C37.5492 4 8 33.5492 8 70C8 106.451 37.5492 136 74 136Z" fill="white"/>
</g>
<g filter="url(#filter1_dd_943_58116)">
<path d="M58.3132 100.056L35.164 74.5237C34.3097 73.5816 33.8643 72.3389 33.9255 71.0686C33.9867 69.7984 34.5496 68.6043 35.4905 67.7487L41.9226 61.9043C42.8647 61.05 44.1074 60.6046 45.3777 60.6658C46.6479 60.727 47.842 61.2899 48.6976 62.2308L62.6394 77.5765L101.036 41.8732C101.968 41.0087 103.204 40.549 104.474 40.5949C105.744 40.6408 106.945 41.1886 107.811 42.1181L113.721 48.4849C114.151 48.9452 114.486 49.4859 114.706 50.0759C114.927 50.666 115.029 51.2938 115.006 51.9233C114.983 52.5528 114.836 53.1716 114.574 53.7442C114.311 54.3168 113.938 54.8319 113.476 55.2599L65.0555 100.285C64.599 100.715 64.0619 101.05 63.4751 101.272C62.8883 101.493 62.2635 101.596 61.6367 101.575C61.0099 101.554 60.3935 101.409 59.823 101.148C59.2526 100.887 58.7395 100.516 58.3132 100.056Z" fill="#1D915F"/>
</g>
<defs>
<filter id="filter0_dd_943_58116" x="0" y="0" width="148" height="148" filterUnits="userSpaceOnUse" color-interpolation-filters="sRGB">
<feFlood flood-opacity="0" result="BackgroundImageFix"/>
<feColorMatrix in="SourceAlpha" type="matrix" values="0 0 0 0 0 0 0 0 0 0 0 0 0 0 0 0 0 0 127 0" result="hardAlpha"/>
<feMorphology radius="4" operator="erode" in="SourceAlpha" result="effect1_dropShadow_943_58116"/>
<feOffset dy="4"/>
<feGaussianBlur stdDeviation="6"/>
<feComposite in2="hardAlpha" operator="out"/>
<feColorMatrix type="matrix" values="0 0 0 0 0.568627 0 0 0 0 0.619608 0 0 0 0 0.670588 0 0 0 0.12 0"/>
<feBlend mode="normal" in2="BackgroundImageFix" result="effect1_dropShadow_943_58116"/>
<feColorMatrix in="SourceAlpha" type="matrix" values="0 0 0 0 0 0 0 0 0 0 0 0 0 0 0 0 0 0 127 0" result="hardAlpha"/>
<feOffset/>
<feGaussianBlur stdDeviation="1"/>
<feComposite in2="hardAlpha" operator="out"/>
<feColorMatrix type="matrix" values="0 0 0 0 0.568627 0 0 0 0 0.619608 0 0 0 0 0.670588 0 0 0 0.12 0"/>
<feBlend mode="normal" in2="effect1_dropShadow_943_58116" result="effect2_dropShadow_943_58116"/>
<feBlend mode="normal" in="SourceGraphic" in2="effect2_dropShadow_943_58116" result="shape"/>
</filter>
<filter id="filter1_dd_943_58116" x="25.9199" y="36.5918" width="97.0898" height="76.9863" filterUnits="userSpaceOnUse" color-interpolation-filters="sRGB">
<feFlood flood-opacity="0" result="BackgroundImageFix"/>
<feColorMatrix in="SourceAlpha" type="matrix" values="0 0 0 0 0 0 0 0 0 0 0 0 0 0 0 0 0 0 127 0" result="hardAlpha"/>
<feMorphology radius="4" operator="erode" in="SourceAlpha" result="effect1_dropShadow_943_58116"/>
<feOffset dy="4"/>
<feGaussianBlur stdDeviation="6"/>
<feComposite in2="hardAlpha" operator="out"/>
<feColorMatrix type="matrix" values="0 0 0 0 0.568627 0 0 0 0 0.619608 0 0 0 0 0.670588 0 0 0 0.12 0"/>
<feBlend mode="normal" in2="BackgroundImageFix" result="effect1_dropShadow_943_58116"/>
<feColorMatrix in="SourceAlpha" type="matrix" values="0 0 0 0 0 0 0 0 0 0 0 0 0 0 0 0 0 0 127 0" result="hardAlpha"/>
<feOffset/>
<feGaussianBlur stdDeviation="1"/>
<feComposite in2="hardAlpha" operator="out"/>
<feColorMatrix type="matrix" values="0 0 0 0 0.568627 0 0 0 0 0.619608 0 0 0 0 0.670588 0 0 0 0.12 0"/>
<feBlend mode="normal" in2="effect1_dropShadow_943_58116" result="effect2_dropShadow_943_58116"/>
<feBlend mode="normal" in="SourceGraphic" in2="effect2_dropShadow_943_58116" result="shape"/>
</filter>
</defs>
</svg>
