<svg width="200" height="132" viewBox="0 0 200 132" fill="none" xmlns="http://www.w3.org/2000/svg">
<g clip-path="url(#clip0_943_47024)">
<path d="M71.7407 75.9183C78.5947 63.9519 91.6689 54.7637 105.509 55.6488C95.3002 66.6671 89.3472 80.9141 88.7033 95.8692C88.476 101.638 88.8284 108.077 84.9694 112.396C82.5682 115.084 78.898 116.386 75.2893 116.659C71.6805 116.932 68.0725 116.285 64.5119 115.64L63.6482 115.903C63.3194 102.143 64.8867 87.8846 71.7407 75.9183Z" fill="#F0F0F0"/>
<path d="M105.528 55.9368C95.2937 60.8267 86.5669 68.9934 81.2097 78.9533C80.0515 81.1066 79.0654 83.391 78.6352 85.8064C78.2049 88.2228 78.5055 90.523 79.3371 92.8181C80.0973 94.9163 81.1198 96.9751 81.3529 99.2202C81.5986 101.587 80.7213 103.799 79.1422 105.555C77.21 107.704 74.6152 109.035 72.0321 110.25C69.1641 111.598 66.1636 112.954 64.1322 115.47C63.8861 115.775 63.4237 115.378 63.6695 115.074C67.2037 110.695 73.2535 109.872 77.4486 106.345C79.4062 104.699 80.8758 102.458 80.7831 99.8317C80.702 97.5351 79.6494 95.4112 78.8612 93.2933C78.0335 91.0696 77.6207 88.8336 77.9175 86.4627C78.2212 84.0375 79.1193 81.71 80.217 79.5367C82.6925 74.6355 86.0803 70.1358 89.9612 66.2461C94.4214 61.7751 99.6195 58.0942 105.33 55.3627C105.684 55.1938 105.88 55.769 105.528 55.9368Z" fill="white"/>
<path d="M82.7796 75.6242C81.2106 74.4856 80.1005 72.8305 79.6475 70.9545C79.1945 69.0786 79.4282 67.1039 80.3068 65.3831C80.4858 65.0355 81.0384 65.2952 80.8592 65.6433C80.0381 67.2441 79.8206 69.0836 80.246 70.8296C80.6714 72.5757 81.7116 74.1133 83.179 75.1649C83.4976 75.3939 83.0963 75.8518 82.7796 75.6242Z" fill="white"/>
<path d="M78.8113 91.8051C82.7429 91.2349 86.3135 89.215 88.8111 86.1481C89.0583 85.8441 89.5207 86.2408 89.2738 86.5445C86.6687 89.7312 82.9487 91.8257 78.8561 92.4101C78.466 92.4655 78.4233 91.8602 78.8113 91.8051Z" fill="white"/>
<path d="M94.724 62.5223C95.2386 63.0884 95.8868 63.5188 96.6104 63.7749C97.334 64.0309 98.1103 64.1045 98.8697 63.9892C99.2589 63.9289 99.3011 64.5343 98.9145 64.5942C98.0749 64.7178 97.2176 64.6354 96.4175 64.3543C95.6174 64.0732 94.8988 63.6019 94.3246 62.9815C94.2655 62.9276 94.2294 62.8533 94.2235 62.7738C94.2176 62.6944 94.2424 62.6157 94.2929 62.5537C94.3461 62.4932 94.4212 62.4559 94.502 62.45C94.5827 62.4442 94.6625 62.4701 94.724 62.5223Z" fill="white"/>
<path d="M133.045 93.3984C132.803 93.4429 132.561 93.4874 132.317 93.5366C129.067 94.1518 125.873 95.0281 122.767 96.1568C122.525 96.2403 122.281 96.3285 122.043 96.4187C114.587 99.217 107.719 103.365 101.789 108.651C99.4314 110.757 97.2384 113.038 95.2293 115.474C92.4548 118.838 89.7162 122.705 86.0906 124.899C85.7149 125.132 85.3251 125.342 84.9233 125.527L64.0372 116.929C63.9996 116.886 63.9598 116.847 63.922 116.804L63.0723 116.498C63.167 116.366 63.2682 116.23 63.363 116.097C63.4177 116.02 63.477 115.944 63.5316 115.867C63.5695 115.816 63.6077 115.765 63.639 115.717C63.6515 115.7 63.6643 115.683 63.6749 115.671C63.7062 115.623 63.7404 115.582 63.7697 115.538C64.3331 114.778 64.9029 114.02 65.4791 113.265C65.4811 113.261 65.4811 113.261 65.4877 113.258C69.8926 107.516 74.8193 102.089 80.4193 97.5758C80.5878 97.4401 80.7581 97.2996 80.9361 97.1678C83.4717 95.1476 86.1694 93.3365 89.0023 91.7525C90.5563 90.8901 92.1533 90.1063 93.7872 89.4042C98.0124 87.5981 102.498 86.4628 107.078 86.0399C116.21 85.1983 125.511 87.2646 132.515 92.9582C132.694 93.1039 132.868 93.2479 133.045 93.3984Z" fill="#F0F0F0"/>
<path d="M132.889 93.642C121.751 91.4307 109.829 92.7366 99.5094 97.4879C97.2784 98.5151 95.1053 99.7499 93.2966 101.421C91.4871 103.094 90.3317 105.11 89.6035 107.439C88.9377 109.569 88.5051 111.824 87.3293 113.755C86.09 115.792 84.0473 117.034 81.7211 117.493C78.875 118.054 75.9955 117.566 73.1963 116.992C70.0884 116.355 66.8703 115.645 63.7217 116.44C63.3402 116.537 63.2118 115.943 63.5927 115.847C69.0708 114.463 74.4005 117.421 79.8898 117.111C82.4512 116.967 84.9843 116.056 86.5034 113.903C87.8318 112.021 88.2798 109.696 88.9352 107.534C89.6233 105.264 90.6501 103.232 92.3254 101.517C94.0391 99.7616 96.1681 98.4399 98.3629 97.3606C103.313 94.9264 108.747 93.3581 114.206 92.5714C120.479 91.6666 126.862 91.8337 133.079 93.0653C133.464 93.1417 133.271 93.7179 132.889 93.642Z" fill="white"/>
<path d="M102.782 95.7676C102.22 93.9209 102.337 91.9361 103.114 90.1676C103.89 88.3991 105.275 86.962 107.02 86.1131C107.374 85.9425 107.657 86.4801 107.303 86.6509C105.676 87.4384 104.387 88.7772 103.667 90.4255C102.948 92.0738 102.846 93.9231 103.379 95.6396C103.495 96.0127 102.897 96.1386 102.782 95.7676Z" fill="white"/>
<path d="M89.7991 106.314C93.2841 108.208 97.3603 108.729 101.215 107.773C101.597 107.678 101.725 108.271 101.344 108.366C97.3308 109.354 93.09 108.803 89.4678 106.824C89.1227 106.635 89.4558 106.127 89.7991 106.314Z" fill="white"/>
<path d="M120.267 92.4441C120.334 93.2036 120.591 93.9346 121.013 94.5714C121.435 95.2082 122.011 95.7309 122.687 96.0926C123.034 96.277 122.701 96.7856 122.356 96.6024C121.61 96.1994 120.976 95.6213 120.508 94.9188C120.039 94.2162 119.751 93.4105 119.669 92.5721C119.655 92.4937 119.671 92.4129 119.714 92.3459C119.758 92.2789 119.826 92.2309 119.903 92.2116C119.983 92.1951 120.065 92.2102 120.133 92.2537C120.201 92.2973 120.249 92.3657 120.267 92.4441Z" fill="white"/>
<path d="M93.2596 107.583C90.3345 93.5467 86.6782 88.8668 86.6782 88.8668L85.2814 87.7918L83.6017 86.4968L83.6098 86.3303L83.2114 86.1959L83.1178 86.1238L82.9644 86.0069L82.9398 86.0332L82.8877 86.0867L75.2865 83.5224L65.6432 80.2714L61.1777 74.5108C60.4505 73.5726 59.5142 72.8143 58.4422 72.2954C57.3702 71.7765 56.1918 71.511 54.9991 71.5197L40.7378 71.6245C38.8095 71.6386 36.9563 72.3682 35.5425 73.6697L26.1688 82.2992L11.5628 89.2225L11.5381 89.198L11.3847 89.3068L9.12797 90.3777L9.2211 90.8589L7.8243 91.8592C7.8243 91.8592 4.168 96.2138 1.24295 109.275C0.49885 112.598 0.132576 119.727 0.000371524 128.512C-0.00626912 128.956 0.0761714 129.398 0.242897 129.81C0.409623 130.223 0.65731 130.598 0.971554 130.915C1.2858 131.231 1.66033 131.483 2.07338 131.655C2.48642 131.826 2.92974 131.915 3.37755 131.915H81.3914L91.1285 131.915C91.576 131.915 92.019 131.826 92.4318 131.655C92.8445 131.483 93.2189 131.232 93.5331 130.916C93.8473 130.6 94.095 130.224 94.262 129.812C94.429 129.4 94.5118 128.96 94.5057 128.515C94.3766 118.956 94.0104 111.188 93.2596 107.583Z" fill="#3F3D56"/>
<path d="M103.268 12.2422C100.233 12.2422 97.3224 13.4388 95.1762 15.5689C93.0299 17.699 91.8242 20.588 91.8242 23.6004C91.8242 26.6128 93.0299 29.5018 95.1762 31.6318C97.3224 33.7619 100.233 34.9586 103.268 34.9586H188.555C191.59 34.9586 194.501 33.7619 196.647 31.6318C198.794 29.5018 199.999 26.6128 199.999 23.6004C199.999 20.588 198.794 17.699 196.647 15.5689C194.501 13.4388 191.59 12.2422 188.555 12.2422H103.268Z" fill="#E5E5E5"/>
<path d="M103.269 14.5391C100.848 14.5391 98.526 15.4935 96.8142 17.1925C95.1023 18.8915 94.1406 21.1958 94.1406 23.5986C94.1406 26.0013 95.1023 28.3056 96.8142 30.0046C98.526 31.7036 100.848 32.6581 103.269 32.6581H188.555C190.976 32.6581 193.298 31.7036 195.01 30.0046C196.722 28.3056 197.684 26.0013 197.684 23.5986C197.684 21.1958 196.722 18.8915 195.01 17.1925C193.298 15.4935 190.976 14.5391 188.555 14.5391H103.269Z" fill="white"/>
<path d="M50.1075 66.2017C60.4262 66.2017 68.7912 57.8996 68.7912 47.6585C68.7912 37.4173 60.4262 29.1152 50.1075 29.1152C39.7888 29.1152 31.4238 37.4173 31.4238 47.6585C31.4238 57.8996 39.7888 66.2017 50.1075 66.2017Z" fill="#9E616A"/>
<path d="M45.3283 65.2951C45.2486 65.1205 45.1691 64.9453 45.0898 64.7695C45.1204 64.7705 45.1506 64.7749 45.1812 64.7757L45.3283 65.2951Z" fill="#2F2E41"/>
<path d="M30.9055 29.9589C31.8505 29.2108 32.9549 28.5224 34.1631 28.5611C35.3713 28.5997 36.5964 29.6827 36.3461 30.8564C38.5653 26.9568 42.0975 23.9575 46.3228 22.385C50.5481 20.8125 55.1964 20.7674 59.4519 22.2575C62.4547 23.3089 65.3994 25.4125 66.0892 28.4977C66.2663 29.2897 66.3043 30.1581 66.8025 30.8012C67.4307 31.612 68.6327 31.7955 69.6224 31.5102C69.6323 31.5074 69.6422 31.5045 69.6521 31.5015C69.8193 31.4449 69.9997 31.4393 70.1702 31.4855C70.3406 31.5318 70.4931 31.6277 70.608 31.7609C70.7229 31.8941 70.7948 32.0585 70.8146 32.2328C70.8343 32.407 70.8009 32.5831 70.7187 32.7383L69.8691 34.311C70.9401 34.5479 72.053 34.5244 73.1129 34.2425C73.2889 34.1967 73.475 34.206 73.6455 34.2693C73.816 34.3326 73.9626 34.4466 74.0652 34.5959C74.1678 34.7451 74.2214 34.9222 74.2185 35.1028C74.2157 35.2834 74.1567 35.4588 74.0495 35.6048C71.2479 39.4223 66.5674 41.8874 61.791 41.8584C58.3963 41.8379 54.9666 40.6767 51.6628 41.4515C50.3847 41.7512 49.1904 42.3312 48.1675 43.1487C47.1447 43.9663 46.3192 45.0008 45.7518 46.1763C45.1843 47.3518 44.8892 48.6385 44.8881 49.9419C44.887 51.2454 45.18 52.5325 45.7455 53.709C44.7305 52.6072 42.7685 52.868 41.7303 53.9483C40.6921 55.0286 40.4233 56.641 40.5279 58.1303C40.6879 60.4081 41.5871 62.5544 42.5351 64.6434C34.5873 64.3951 27.0699 58.8617 24.5396 51.3777C21.9986 43.8623 24.6616 34.9025 30.9055 29.9589Z" fill="#2F2E41"/>
<path opacity="0.2" d="M18.3906 103.346L23.631 131.643L26.7753 131.915L18.3906 103.346Z" fill="black"/>
<path opacity="0.2" d="M76.1132 101.211L70.8729 131.622L67.7285 131.914L76.1132 101.211Z" fill="black"/>
<path d="M122.107 29.0166H105.138C105.084 29.017 105.031 29.0067 104.981 28.9865C104.931 28.9663 104.886 28.9364 104.847 28.8987C104.809 28.861 104.779 28.8162 104.758 28.7668C104.737 28.7173 104.727 28.6644 104.727 28.6108C104.727 28.5573 104.737 28.5043 104.758 28.4549C104.779 28.4055 104.809 28.3607 104.847 28.3229C104.886 28.2852 104.931 28.2554 104.981 28.2352C105.031 28.215 105.084 28.2047 105.138 28.2051H122.107C122.215 28.2058 122.318 28.2489 122.394 28.3249C122.47 28.4009 122.513 28.5037 122.513 28.6108C122.513 28.718 122.47 28.8208 122.394 28.8968C122.318 28.9728 122.215 29.0159 122.107 29.0166Z" fill="#6C63FF"/>
<path d="M143.634 29.1514H126.665C126.612 29.1517 126.558 29.1415 126.508 29.1213C126.458 29.101 126.413 29.0712 126.375 29.0335C126.336 28.9958 126.306 28.9509 126.285 28.9015C126.265 28.8521 126.254 28.7991 126.254 28.7456C126.254 28.6921 126.265 28.6391 126.285 28.5897C126.306 28.5403 126.336 28.4954 126.375 28.4577C126.413 28.42 126.458 28.3902 126.508 28.3699C126.558 28.3497 126.612 28.3395 126.665 28.3399H143.634C143.688 28.3395 143.742 28.3497 143.792 28.3699C143.841 28.3902 143.887 28.42 143.925 28.4577C143.963 28.4954 143.994 28.5403 144.014 28.5897C144.035 28.6391 144.046 28.6921 144.046 28.7456C144.046 28.7991 144.035 28.8521 144.014 28.9015C143.994 28.9509 143.963 28.9958 143.925 29.0335C143.887 29.0712 143.841 29.101 143.792 29.1213C143.742 29.1415 143.688 29.1517 143.634 29.1514Z" fill="#6C63FF"/>
<path d="M165.16 29.2881H148.191C148.083 29.2874 147.98 29.2443 147.904 29.1683C147.828 29.0922 147.785 28.9895 147.785 28.8823C147.785 28.7752 147.828 28.6724 147.904 28.5964C147.98 28.5204 148.083 28.4773 148.191 28.4766H165.16C165.214 28.4762 165.267 28.4864 165.317 28.5067C165.367 28.5269 165.413 28.5567 165.451 28.5944C165.489 28.6321 165.519 28.677 165.54 28.7264C165.561 28.7758 165.571 28.8288 165.571 28.8823C165.571 28.9358 165.561 28.9888 165.54 29.0382C165.519 29.0877 165.489 29.1325 165.451 29.1702C165.413 29.2079 165.367 29.2378 165.317 29.258C165.267 29.2782 165.214 29.2884 165.16 29.2881Z" fill="#6C63FF"/>
<path d="M186.685 29.4228H169.717C169.609 29.4221 169.505 29.379 169.429 29.303C169.353 29.227 169.311 29.1242 169.311 29.0171C169.311 28.9099 169.353 28.8072 169.429 28.7311C169.505 28.6551 169.609 28.6121 169.717 28.6113H186.685C186.793 28.6121 186.897 28.6551 186.973 28.7311C187.049 28.8072 187.091 28.9099 187.091 29.0171C187.091 29.1242 187.049 29.227 186.973 29.303C186.897 29.379 186.793 29.4221 186.685 29.4228Z" fill="#6C63FF"/>
<path d="M113.585 25.2836C115.327 25.2836 116.739 23.8822 116.739 22.1535C116.739 20.4248 115.327 19.0234 113.585 19.0234C111.844 19.0234 110.432 20.4248 110.432 22.1535C110.432 23.8822 111.844 25.2836 113.585 25.2836Z" fill="#6C63FF"/>
<path d="M135.242 25.2836C136.983 25.2836 138.395 23.8822 138.395 22.1535C138.395 20.4248 136.983 19.0234 135.242 19.0234C133.5 19.0234 132.088 20.4248 132.088 22.1535C132.088 23.8822 133.5 25.2836 135.242 25.2836Z" fill="#6C63FF"/>
<path d="M156.898 25.2836C158.64 25.2836 160.052 23.8822 160.052 22.1535C160.052 20.4248 158.64 19.0234 156.898 19.0234C155.156 19.0234 153.744 20.4248 153.744 22.1535C153.744 23.8822 155.156 25.2836 156.898 25.2836Z" fill="#6C63FF"/>
<path d="M178.554 25.2836C180.296 25.2836 181.708 23.8822 181.708 22.1535C181.708 20.4248 180.296 19.0234 178.554 19.0234C176.812 19.0234 175.4 20.4248 175.4 22.1535C175.4 23.8822 176.812 25.2836 178.554 25.2836Z" fill="#6C63FF"/>
<path d="M142.977 88.298C141.679 88.3005 140.416 87.8731 139.378 87.0802L139.314 87.031L125.763 76.4603C125.136 75.9704 124.609 75.3593 124.213 74.662C123.817 73.9647 123.56 73.1948 123.456 72.3962C123.353 71.5977 123.404 70.7861 123.608 70.0079C123.812 69.2297 124.165 68.5001 124.646 67.8607C125.127 67.2213 125.726 66.6846 126.411 66.2814C127.095 65.8781 127.851 65.6162 128.635 65.5105C129.418 65.4048 130.215 65.4574 130.979 65.6653C131.743 65.8732 132.459 66.2324 133.086 66.7223L141.864 73.5795L162.606 46.0187C163.087 45.3795 163.687 44.8431 164.371 44.4401C165.056 44.037 165.812 43.7754 166.595 43.6699C167.379 43.5645 168.176 43.6174 168.939 43.8257C169.703 44.0339 170.419 44.3933 171.047 44.8835L170.918 45.0619L171.05 44.8861C172.315 45.8771 173.144 47.3391 173.352 48.9514C173.561 50.5636 173.134 52.1945 172.164 53.4861L147.766 85.9042C147.202 86.6512 146.477 87.2558 145.646 87.6709C144.815 88.0861 143.902 88.3006 142.977 88.298Z" fill="#6C63FF"/>
</g>
<defs>
<clipPath id="clip0_943_47024">
<rect width="200" height="131.915" fill="white"/>
</clipPath>
</defs>
</svg>
